SplineFontDB: 3.2
FontName: IRZeytoon
FullName: IRZeytoon
FamilyName: IRZeytoon
Weight: Book
Copyright: Copyright (c) 2022, Information Technology Organization of Iran (ito.gov.ir)
Version: 1.001
ItalicAngle: 0
UnderlinePosition: -100
UnderlineWidth: 60
Ascent: 1638
Descent: 410
InvalidEm: 0
sfntRevision: 0x00010042
LayerCount: 2
Layer: 0 1 "Back" 1
Layer: 1 1 "Fore" 0
XUID: [1021 420 722297922 12839665]
StyleMap: 0x0040
FSType: 0
OS2Version: 3
OS2_WeightWidthSlopeOnly: 0
OS2_UseTypoMetrics: 0
CreationTime: 1356346422
ModificationTime: 1662631141
PfmFamily: 17
TTFWeight: 400
TTFWidth: 5
LineGap: 100
VLineGap: 0
Panose: 2 0 5 3 0 0 0 2 0 2
OS2TypoAscent: 2060
OS2TypoAOffset: 0
OS2TypoDescent: -1093
OS2TypoDOffset: 0
OS2TypoLinegap: 1500
OS2WinAscent: 2060
OS2WinAOffset: 0
OS2WinDescent: 1093
OS2WinDOffset: 0
HheadAscent: 2060
HheadAOffset: 0
HheadDescent: -1093
HheadDOffset: 0
OS2SubXSize: 1434
OS2SubYSize: 1331
OS2SubXOff: 0
OS2SubYOff: 293
OS2SupXSize: 1434
OS2SupYSize: 1331
OS2SupXOff: 0
OS2SupYOff: 930
OS2StrikeYSize: 50
OS2StrikeYPos: 250
OS2CapHeight: 2081
OS2XHeight: 606
OS2FamilyClass: 2048
OS2Vendor: 'PARS'
OS2CodePages: 20000041.00000000
OS2UnicodeRanges: 00002003.00000000.00000000.00000000
Lookup: 1 1 0 "'isol' Isolated Forms in Arabic lookup 0" { "'isol' Isolated Forms in Arabic lookup 0 subtable"  } ['isol' ('arab' <'dflt' > ) ]
Lookup: 1 1 0 "'init' Initial Forms in Arabic lookup 1" { "'init' Initial Forms in Arabic lookup 1 subtable"  } ['init' ('arab' <'dflt' > ) ]
Lookup: 1 1 0 "'fina' Terminal Forms in Arabic lookup 2" { "'fina' Terminal Forms in Arabic lookup 2 subtable"  } ['fina' ('arab' <'dflt' > ) ]
Lookup: 1 1 0 "'medi' Medial Forms in Arabic lookup 3" { "'medi' Medial Forms in Arabic lookup 3 subtable"  } ['medi' ('arab' <'dflt' > ) ]
Lookup: 4 1 0 "'ccmp' Glyph Composition/Decomposition in Arabic lookup 4" { "'ccmp' Glyph Composition/Decomposition in Arabic lookup 4 subtable"  } ['ccmp' ('arab' <'dflt' > ) ]

StartChar: quotedbl
Encoding: 34 34 4
Width: 696
Flags: W
LayerCount: 2
Fore
SplineSet
498 699 m 1,0,1
 493 720 493 720 488.5 737 c 128,-1,2
 484 754 484 754 482 761 c 0,3,4
 462 844 462 844 450.5 902 c 128,-1,5
 439 960 439 960 439 980 c 0,6,7
 439 1023 439 1023 463 1048 c 128,-1,8
 487 1073 487 1073 524 1073 c 0,9,10
 543 1073 543 1073 559 1066.5 c 128,-1,11
 575 1060 575 1060 587 1048 c 128,-1,12
 599 1036 599 1036 605 1020 c 128,-1,13
 611 1004 611 1004 611 986 c 0,14,15
 611 975 611 975 607.5 953.5 c 128,-1,16
 604 932 604 932 597 897 c 128,-1,17
 590 862 590 862 579 813 c 128,-1,18
 568 764 568 764 552 699 c 1,19,-1
 498 699 l 1,0,1
178 699 m 1,20,21
 173 720 173 720 168.5 737 c 128,-1,22
 164 754 164 754 162 761 c 0,23,24
 142 844 142 844 130.5 902 c 128,-1,25
 119 960 119 960 119 980 c 0,26,27
 119 1023 119 1023 143 1048 c 128,-1,28
 167 1073 167 1073 204 1073 c 0,29,30
 223 1073 223 1073 239 1066.5 c 128,-1,31
 255 1060 255 1060 267 1048 c 128,-1,32
 279 1036 279 1036 285 1020 c 128,-1,33
 291 1004 291 1004 291 986 c 0,34,35
 291 975 291 975 287.5 953.5 c 128,-1,36
 284 932 284 932 277 897 c 128,-1,37
 270 862 270 862 259 813 c 128,-1,38
 248 764 248 764 232 699 c 1,39,-1
 178 699 l 1,20,21
EndSplineSet
EndChar

StartChar: quotesingle
Encoding: 39 39 5
Width: 430
Flags: W
LayerCount: 2
Fore
SplineSet
178 699 m 1,0,1
 173 720 173 720 168.5 737 c 128,-1,2
 164 754 164 754 162 761 c 0,3,4
 142 844 142 844 130.5 902 c 128,-1,5
 119 960 119 960 119 980 c 0,6,7
 119 1023 119 1023 143 1048 c 128,-1,8
 167 1073 167 1073 204 1073 c 0,9,10
 223 1073 223 1073 239 1066.5 c 128,-1,11
 255 1060 255 1060 267 1048 c 128,-1,12
 279 1036 279 1036 285 1020 c 128,-1,13
 291 1004 291 1004 291 986 c 0,14,15
 291 975 291 975 287.5 953.5 c 128,-1,16
 284 932 284 932 277 897 c 128,-1,17
 270 862 270 862 259 813 c 128,-1,18
 248 764 248 764 232 699 c 1,19,-1
 178 699 l 1,0,1
EndSplineSet
EndChar

StartChar: asterisk
Encoding: 42 42 6
Width: 1126
Flags: W
LayerCount: 2
Fore
SplineSet
568 347 m 1,0,-1
 574 687 l 1,1,-1
 355 467 l 1,2,-1
 250 467 l 1,3,-1
 527 746 l 1,4,-1
 203 746 l 1,5,-1
 223 839 l 1,6,-1
 547 839 l 1,7,-1
 277 1104 l 1,8,-1
 370 1104 l 1,9,-1
 579 899 l 1,10,-1
 585 1199 l 1,11,-1
 704 1239 l 1,12,-1
 699 912 l 1,13,-1
 905 1104 l 1,14,-1
 1013 1104 l 1,15,-1
 730 839 l 1,16,-1
 1065 839 l 1,17,-1
 1043 746 l 1,18,-1
 729 746 l 1,19,-1
 1002 467 l 1,20,-1
 910 467 l 1,21,-1
 696 687 l 1,22,-1
 688 386 l 1,23,-1
 568 347 l 1,0,-1
EndSplineSet
EndChar

StartChar: plus
Encoding: 43 43 7
Width: 987
GlyphClass: 2
Flags: W
LayerCount: 2
Fore
SplineSet
549 108 m 1,0,-1
 404 110 l 1,1,-1
 406 392 l 1,2,-1
 124 392 l 1,3,-1
 123 535 l 1,4,-1
 405 535 l 1,5,-1
 404 816 l 1,6,-1
 549 817 l 1,7,-1
 549 535 l 1,8,-1
 830 536 l 1,9,-1
 829 391 l 1,10,-1
 548 392 l 1,11,-1
 549 108 l 1,0,-1
EndSplineSet
EndChar

StartChar: hyphen
Encoding: 45 45 8
Width: 1244
Flags: W
LayerCount: 2
Fore
SplineSet
181 576 m 1,0,-1
 1056 576 l 1,1,-1
 1056 428 l 1,2,-1
 181 428 l 1,3,-1
 181 576 l 1,0,-1
EndSplineSet
EndChar

StartChar: period
Encoding: 46 46 9
Width: 675
GlyphClass: 2
Flags: W
LayerCount: 2
Fore
SplineSet
632 136 m 0,0,1
 632 78 632 78 593 38.5 c 128,-1,2
 554 -1 554 -1 496 -1 c 256,3,4
 438 -1 438 -1 399 38.5 c 128,-1,5
 360 78 360 78 360 136 c 0,6,7
 360 193 360 193 399.5 232.5 c 128,-1,8
 439 272 439 272 496 272 c 256,9,10
 553 272 553 272 592.5 232.5 c 128,-1,11
 632 193 632 193 632 136 c 0,0,1
EndSplineSet
EndChar

StartChar: slash
Encoding: 47 47 10
Width: 712
Flags: W
LayerCount: 2
Fore
SplineSet
583 1091 m 2,0,1
 593 1091 593 1091 599 1084.5 c 128,-1,2
 605 1078 605 1078 603 1068 c 2,3,-1
 257 -88 l 2,4,5
 255 -94 255 -94 250 -98.5 c 128,-1,6
 245 -103 245 -103 238 -103 c 2,7,-1
 135 -103 l 2,8,9
 126 -103 126 -103 120 -96 c 128,-1,10
 114 -89 114 -89 116 -80 c 2,11,-1
 460 1076 l 2,12,13
 462 1083 462 1083 467.5 1087 c 128,-1,14
 473 1091 473 1091 479 1091 c 2,15,-1
 583 1091 l 2,0,1
EndSplineSet
EndChar

StartChar: less
Encoding: 60 60 11
Width: 1117
Flags: W
LayerCount: 2
Fore
SplineSet
955 58 m 1,0,-1
 150 444 l 1,1,-1
 150 534 l 1,2,-1
 955 918 l 1,3,-1
 955 784 l 1,4,-1
 331 489 l 1,5,-1
 955 192 l 1,6,-1
 955 58 l 1,0,-1
EndSplineSet
EndChar

StartChar: equal
Encoding: 61 61 12
Width: 1117
Flags: W
LayerCount: 2
Fore
SplineSet
973 586 m 1,0,-1
 144 586 l 1,1,-1
 144 706 l 1,2,-1
 973 706 l 1,3,-1
 973 586 l 1,0,-1
973 271 m 1,4,-1
 144 271 l 1,5,-1
 144 391 l 1,6,-1
 973 391 l 1,7,-1
 973 271 l 1,4,-1
EndSplineSet
EndChar

StartChar: greater
Encoding: 62 62 13
Width: 1117
Flags: W
LayerCount: 2
Fore
SplineSet
966 444 m 1,0,-1
 160 58 l 1,1,-1
 160 192 l 1,2,-1
 786 489 l 1,3,-1
 160 784 l 1,4,-1
 160 918 l 1,5,-1
 966 534 l 1,6,-1
 966 444 l 1,0,-1
EndSplineSet
EndChar

StartChar: bracketleft
Encoding: 91 91 14
Width: 455
GlyphClass: 2
Flags: W
LayerCount: 2
Fore
SplineSet
112 -314 m 2,0,1
 104 -314 104 -314 98.5 -308 c 128,-1,2
 93 -302 93 -302 93 -294 c 2,3,-1
 93 1148 l 2,4,5
 93 1167 93 1167 112 1167 c 2,6,-1
 418 1167 l 2,7,8
 437 1167 437 1167 437 1148 c 2,9,-1
 437 1034 l 2,10,11
 437 1026 437 1026 431.5 1020 c 128,-1,12
 426 1014 426 1014 418 1014 c 2,13,-1
 270 1014 l 1,14,-1
 270 -160 l 1,15,-1
 418 -160 l 2,16,17
 437 -160 437 -160 437 -179 c 2,18,-1
 437 -294 l 2,19,20
 437 -302 437 -302 431.5 -308 c 128,-1,21
 426 -314 426 -314 418 -314 c 2,22,-1
 112 -314 l 2,0,1
EndSplineSet
EndChar

StartChar: bracketright
Encoding: 93 93 15
Width: 455
GlyphClass: 2
Flags: W
LayerCount: 2
Fore
SplineSet
359 -294 m 2,0,1
 359 -302 359 -302 353 -308 c 128,-1,2
 347 -314 347 -314 339 -314 c 2,3,-1
 33 -314 l 2,4,5
 25 -314 25 -314 19.5 -308 c 128,-1,6
 14 -302 14 -302 14 -294 c 2,7,-1
 14 -179 l 2,8,9
 14 -171 14 -171 19.5 -165.5 c 128,-1,10
 25 -160 25 -160 33 -160 c 2,11,-1
 182 -160 l 1,12,-1
 182 1014 l 1,13,-1
 33 1014 l 2,14,15
 25 1014 25 1014 19.5 1020 c 128,-1,16
 14 1026 14 1026 14 1034 c 2,17,-1
 14 1148 l 2,18,19
 14 1156 14 1156 19.5 1161.5 c 128,-1,20
 25 1167 25 1167 33 1167 c 2,21,-1
 339 1167 l 2,22,23
 347 1167 347 1167 353 1161.5 c 128,-1,24
 359 1156 359 1156 359 1148 c 2,25,-1
 359 -294 l 2,0,1
EndSplineSet
EndChar

StartChar: grave
Encoding: 96 96 16
Width: 580
Flags: W
LayerCount: 2
Fore
SplineSet
352 882 m 1,0,-1
 83 1051 l 2,1,2
 60 1068 60 1068 46.5 1086.5 c 128,-1,3
 33 1105 33 1105 33 1126 c 0,4,5
 33 1151 33 1151 49 1166 c 128,-1,6
 65 1181 65 1181 93 1181 c 0,7,8
 111 1181 111 1181 126.5 1172 c 128,-1,9
 142 1163 142 1163 166 1140 c 2,10,-1
 422 882 l 1,11,-1
 352 882 l 1,0,-1
EndSplineSet
EndChar

StartChar: braceleft
Encoding: 123 123 17
Width: 547
GlyphClass: 2
Flags: W
LayerCount: 2
Fore
SplineSet
30 491 m 2,0,1
 30 499 30 499 35.5 504.5 c 128,-1,2
 41 510 41 510 49 510 c 0,3,4
 101 511 101 511 133 537 c 128,-1,5
 165 563 165 563 176 609 c 0,6,7
 187 661 187 661 189 787 c 0,8,9
 190 853 190 853 191 896 c 128,-1,10
 192 939 192 939 194 959 c 0,11,12
 201 1011 201 1011 213 1047.5 c 128,-1,13
 225 1084 225 1084 244 1109 c 128,-1,14
 263 1134 263 1134 289.5 1150 c 128,-1,15
 316 1166 316 1166 351 1178 c 0,16,17
 382 1187 382 1187 452 1187 c 2,18,-1
 495 1187 l 2,19,20
 503 1187 503 1187 508.5 1181 c 128,-1,21
 514 1175 514 1175 514 1167 c 2,22,-1
 514 1046 l 2,23,24
 514 1038 514 1038 508.5 1032.5 c 128,-1,25
 503 1027 503 1027 495 1027 c 2,26,-1
 471 1027 l 2,27,28
 438 1027 438 1027 413.5 1020.5 c 128,-1,29
 389 1014 389 1014 378 1004 c 0,30,31
 357 975 357 975 357 888 c 0,32,33
 357 786 357 786 355.5 721.5 c 128,-1,34
 354 657 354 657 350 630 c 0,35,36
 333 544 333 544 298 495 c 0,37,38
 270 458 270 458 221 427 c 1,39,40
 252 409 252 409 276.5 384 c 128,-1,41
 301 359 301 359 317 327 c 1,42,-1
 317 328 l 1,43,44
 357 252 357 252 357 81 c 0,45,46
 357 6 357 6 358 -38 c 128,-1,47
 359 -82 359 -82 361 -96 c 0,48,49
 363 -119 363 -119 369.5 -133.5 c 128,-1,50
 376 -148 376 -148 385 -156 c 0,51,52
 404 -172 404 -172 471 -172 c 2,53,-1
 495 -172 l 2,54,55
 503 -172 503 -172 508.5 -178 c 128,-1,56
 514 -184 514 -184 514 -192 c 2,57,-1
 514 -313 l 2,58,59
 514 -321 514 -321 508.5 -326.5 c 128,-1,60
 503 -332 503 -332 495 -332 c 2,61,-1
 452 -332 l 2,62,63
 413 -332 413 -332 383 -329 c 128,-1,64
 353 -326 353 -326 335 -319 c 0,65,66
 284 -300 284 -300 247.5 -254 c 128,-1,67
 211 -208 211 -208 200 -145 c 0,68,69
 195 -116 195 -116 192.5 -65.5 c 128,-1,70
 190 -15 190 -15 189 57 c 0,71,72
 187 193 187 193 176 243 c 0,73,74
 165 290 165 290 133 318 c 0,75,76
 101 345 101 345 49 346 c 0,77,78
 41 346 41 346 35.5 351.5 c 128,-1,79
 30 357 30 357 30 365 c 2,80,-1
 30 491 l 2,0,1
EndSplineSet
EndChar

StartChar: bar
Encoding: 124 124 18
Width: 426
Flags: W
LayerCount: 2
Fore
SplineSet
148 -332 m 2,0,1
 140 -332 140 -332 134.5 -326.5 c 128,-1,2
 129 -321 129 -321 129 -313 c 2,3,-1
 129 1167 l 2,4,5
 129 1175 129 1175 134.5 1181 c 128,-1,6
 140 1187 140 1187 148 1187 c 2,7,-1
 270 1187 l 2,8,9
 278 1187 278 1187 283.5 1181 c 128,-1,10
 289 1175 289 1175 289 1167 c 2,11,-1
 289 -313 l 2,12,13
 289 -321 289 -321 283.5 -326.5 c 128,-1,14
 278 -332 278 -332 270 -332 c 2,15,-1
 148 -332 l 2,0,1
EndSplineSet
EndChar

StartChar: asciitilde
Encoding: 126 126 19
Width: 957
Flags: W
LayerCount: 2
Fore
SplineSet
57 613 m 1,0,1
 148 718 148 718 290 718 c 0,2,3
 314 718 314 718 339 714.5 c 128,-1,4
 364 711 364 711 392 704 c 0,5,6
 447 690 447 690 539 649 c 1,7,-1
 539 650 l 1,8,9
 568 638 568 638 588.5 630 c 128,-1,10
 609 622 609 622 616 620 c 0,11,12
 640 614 640 614 665 614 c 0,13,14
 712 614 712 614 761.5 642 c 128,-1,15
 811 670 811 670 849 713 c 0,16,17
 859 724 859 724 871 719.5 c 128,-1,18
 883 715 883 715 883 701 c 2,19,-1
 883 537 l 2,20,21
 883 535 883 535 881 530 c 128,-1,22
 879 525 879 525 877 523 c 0,23,24
 825 474 825 474 771.5 452 c 128,-1,25
 718 430 718 430 650 430 c 0,26,27
 602 430 602 430 557 442 c 0,28,29
 535 448 535 448 501.5 461.5 c 128,-1,30
 468 475 468 475 421 495 c 0,31,32
 336 533 336 533 277 533 c 0,33,34
 231 533 231 533 193 514 c 0,35,36
 151 493 151 493 90 435 c 0,37,38
 80 425 80 425 68.5 429.5 c 128,-1,39
 57 434 57 434 57 448 c 2,40,-1
 57 613 l 1,0,1
EndSplineSet
EndChar

StartChar: agrave
Encoding: 224 224 20
Width: 1075
Flags: W
LayerCount: 2
Fore
SplineSet
741 331 m 1,0,1
 720 266 720 266 690.5 213 c 128,-1,2
 661 160 661 160 626 114 c 0,3,4
 519 -19 519 -19 400 -19 c 0,5,6
 208 -19 208 -19 159 214 c 0,7,8
 133 334 133 334 157 451 c 128,-1,9
 181 568 181 568 252 683 c 0,10,11
 325 801 325 801 433 860 c 128,-1,12
 541 919 541 919 684 919 c 0,13,14
 712 919 712 919 746 918.5 c 128,-1,15
 780 918 780 918 815.5 916 c 128,-1,16
 851 914 851 914 886 912 c 128,-1,17
 921 910 921 910 952 908 c 1,18,-1
 946 646 l 1,19,-1
 946 647 l 1,20,-1
 950 254 l 2,21,22
 952 209 952 209 954.5 179.5 c 128,-1,23
 957 150 957 150 958 139 c 0,24,25
 961 114 961 114 985 114 c 0,26,27
 1053 114 1053 114 1214 346 c 1,28,-1
 1218 179 l 1,29,30
 1073 -19 1073 -19 925 -19 c 0,31,32
 785 -19 785 -19 753 126 c 0,33,34
 749 146 749 146 747 182 c 128,-1,35
 745 218 745 218 745 264 c 2,36,-1
 741 331 l 1,0,1
737 758 m 1,37,38
 688 775 688 775 647 783.5 c 128,-1,39
 606 792 606 792 561 792 c 0,40,41
 497 792 497 792 453.5 749.5 c 128,-1,42
 410 707 410 707 387 625 c 0,43,44
 362 522 362 522 357 425 c 128,-1,45
 352 328 352 328 368 248 c 0,46,47
 388 146 388 146 437 146 c 0,48,49
 493 146 493 146 589 280 c 0,50,51
 637 352 637 352 674 430 c 128,-1,52
 711 508 711 508 739 599 c 1,53,-1
 737 758 l 1,37,38
641 537 m 1,54,-1
 372 706 l 2,55,56
 349 723 349 723 335.5 741.5 c 128,-1,57
 322 760 322 760 322 781 c 0,58,59
 322 806 322 806 338 821 c 128,-1,60
 354 836 354 836 382 836 c 0,61,62
 400 836 400 836 415.5 827 c 128,-1,63
 431 818 431 818 455 795 c 2,64,-1
 711 537 l 1,65,-1
 641 537 l 1,54,-1
EndSplineSet
EndChar

StartChar: ocircumflex.001
Encoding: 65539 -1 26
Width: 1112
Flags: W
LayerCount: 2
Fore
SplineSet
416 -19 m 0,0,1
 301 -19 301 -19 205 70 c 0,2,3
 110 160 110 160 85 288 c 0,4,5
 32 528 32 528 170 726 c 0,6,7
 307 928 307 928 522 928 c 0,8,9
 643 928 643 928 742 842 c 1,10,11
 837 753 837 753 864 626 c 0,12,13
 890 499 890 499 869 388.5 c 128,-1,14
 848 278 848 278 781 179 c 0,15,16
 711 79 711 79 619.5 30 c 128,-1,17
 528 -19 528 -19 416 -19 c 0,0,1
483 98 m 0,18,19
 536 98 536 98 573.5 133 c 128,-1,20
 611 168 611 168 637 236 c 0,21,22
 665 310 665 310 668.5 393.5 c 128,-1,23
 672 477 672 477 652 574 c 0,24,25
 602 813 602 813 466 813 c 0,26,27
 365 813 365 813 313 670 c 0,28,29
 284 595 284 595 281 510.5 c 128,-1,30
 278 426 278 426 298 332 c 0,31,32
 324 213 324 213 370 155.5 c 128,-1,33
 416 98 416 98 483 98 c 0,18,19
EndSplineSet
EndChar

StartChar: dagger
Encoding: 8224 8224 30
Width: 932
Flags: W
LayerCount: 2
Fore
SplineSet
347 -231 m 1,0,-1
 567 622 l 1,1,-1
 248 592 l 1,2,-1
 297 700 l 1,3,-1
 576 668 l 1,4,-1
 607 1066 l 1,5,-1
 755 1093 l 1,6,-1
 621 668 l 1,7,-1
 941 700 l 1,8,-1
 895 592 l 1,9,-1
 612 622 l 1,10,-1
 496 -213 l 1,11,-1
 347 -231 l 1,0,-1
EndSplineSet
EndChar

StartChar: degree
Encoding: 176 176 31
Width: 409
Flags: W
LayerCount: 2
Fore
SplineSet
395 844 m 0,0,1
 344 844 344 844 307.5 880 c 128,-1,2
 271 916 271 916 271 968 c 0,3,4
 271 1021 271 1021 307.5 1057 c 128,-1,5
 344 1093 344 1093 395 1093 c 0,6,7
 447 1093 447 1093 483 1057 c 128,-1,8
 519 1021 519 1021 519 968 c 0,9,10
 519 916 519 916 483 880 c 128,-1,11
 447 844 447 844 395 844 c 0,0,1
395 888 m 256,12,13
 427 888 427 888 450.5 912 c 128,-1,14
 474 936 474 936 474 968 c 256,15,16
 474 1000 474 1000 450.5 1024 c 128,-1,17
 427 1048 427 1048 395 1048 c 256,18,19
 363 1048 363 1048 339 1024 c 128,-1,20
 315 1000 315 1000 315 968 c 256,21,22
 315 936 315 936 339 912 c 128,-1,23
 363 888 363 888 395 888 c 256,12,13
EndSplineSet
EndChar

StartChar: bullet
Encoding: 8226 8226 32
Width: 931
Flags: W
LayerCount: 2
Fore
SplineSet
817 662 m 256,0,1
 817 517 817 517 713.5 414 c 128,-1,2
 610 311 610 311 465 311 c 256,3,4
 320 311 320 311 217 414 c 128,-1,5
 114 517 114 517 114 662 c 256,6,7
 114 807 114 807 217 910 c 128,-1,8
 320 1013 320 1013 465 1013 c 256,9,10
 610 1013 610 1013 713.5 910 c 128,-1,11
 817 807 817 807 817 662 c 256,0,1
EndSplineSet
EndChar

StartChar: registered
Encoding: 174 174 33
Width: 897
Flags: W
LayerCount: 2
Fore
SplineSet
580 445 m 0,0,1
 448 445 448 445 354.5 538.5 c 128,-1,2
 261 632 261 632 261 764 c 256,3,4
 261 896 261 896 354.5 990 c 128,-1,5
 448 1084 448 1084 580 1084 c 0,6,7
 714 1084 714 1084 807 990 c 128,-1,8
 900 896 900 896 900 764 c 256,9,10
 900 632 900 632 806.5 538.5 c 128,-1,11
 713 445 713 445 580 445 c 0,0,1
580 484 m 0,12,13
 695 484 695 484 777.5 567 c 128,-1,14
 860 650 860 650 860 764 c 256,15,16
 860 878 860 878 777.5 961 c 128,-1,17
 695 1044 695 1044 580 1044 c 0,18,19
 466 1044 466 1044 383.5 961 c 128,-1,20
 301 878 301 878 301 764 c 256,21,22
 301 650 301 650 383.5 567 c 128,-1,23
 466 484 466 484 580 484 c 0,12,13
529 737 m 1,24,-1
 501 596 l 1,25,-1
 394 596 l 1,26,-1
 403 639 l 1,27,-1
 456 639 l 1,28,-1
 511 915 l 1,29,-1
 458 915 l 1,30,-1
 466 959 l 1,31,-1
 598 959 l 2,32,33
 751 959 751 959 751 875 c 0,34,35
 751 800 751 800 650 750 c 1,36,-1
 685 639 l 1,37,-1
 747 639 l 1,38,-1
 738 596 l 1,39,-1
 641 596 l 1,40,-1
 591 737 l 1,41,-1
 529 737 l 1,24,-1
538 782 m 1,42,-1
 574 782 l 2,43,44
 697 782 697 782 697 866 c 0,45,46
 697 915 697 915 607 915 c 2,47,-1
 564 915 l 1,48,-1
 538 782 l 1,42,-1
EndSplineSet
EndChar

StartChar: copyright
Encoding: 169 169 34
Width: 1244
Flags: W
LayerCount: 2
Fore
SplineSet
725 -27 m 0,0,1
 495 -27 495 -27 330.5 137 c 128,-1,2
 166 301 166 301 166 533 c 256,3,4
 166 765 166 765 330.5 929 c 128,-1,5
 495 1093 495 1093 725 1093 c 0,6,7
 958 1093 958 1093 1122 929 c 128,-1,8
 1286 765 1286 765 1286 533 c 256,9,10
 1286 301 1286 301 1122 137 c 128,-1,11
 958 -27 958 -27 725 -27 c 0,0,1
725 18 m 0,12,13
 939 18 939 18 1090 169 c 128,-1,14
 1241 320 1241 320 1241 533 c 256,15,16
 1241 746 1241 746 1090 897 c 128,-1,17
 939 1048 939 1048 725 1048 c 0,18,19
 513 1048 513 1048 362 897 c 128,-1,20
 211 746 211 746 211 533 c 256,21,22
 211 320 211 320 362 169 c 128,-1,23
 513 18 513 18 725 18 c 0,12,13
890 246 m 1,24,25
 785 213 785 213 704 213 c 0,26,27
 580 213 580 213 508 279.5 c 128,-1,28
 436 346 436 346 436 462 c 0,29,30
 436 625 436 625 541 734.5 c 128,-1,31
 646 844 646 844 805 844 c 0,32,33
 896 844 896 844 1003 814 c 1,34,-1
 967 675 l 1,35,-1
 915 684 l 1,36,-1
 923 766 l 1,37,38
 854 798 854 798 792 798 c 0,39,40
 688 798 688 798 616 700 c 128,-1,41
 544 602 544 602 544 462 c 0,42,43
 544 271 544 271 722 271 c 0,44,45
 823 271 823 271 902 307 c 1,46,-1
 890 246 l 1,24,25
EndSplineSet
EndChar

StartChar: trademark
Encoding: 8482 8482 35
Width: 1333
Flags: W
LayerCount: 2
Fore
SplineSet
440 1021 m 1,0,-1
 307 1021 l 1,1,-1
 288 923 l 1,2,-1
 225 923 l 1,3,-1
 254 1066 l 1,4,-1
 751 1066 l 1,5,-1
 723 923 l 1,6,-1
 661 923 l 1,7,-1
 679 1021 l 1,8,-1
 546 1021 l 1,9,-1
 456 569 l 1,10,-1
 554 569 l 1,11,-1
 545 524 l 1,12,-1
 243 524 l 1,13,-1
 253 569 l 1,14,-1
 350 569 l 1,15,-1
 440 1021 l 1,0,-1
1011 569 m 1,16,-1
 942 956 l 1,17,-1
 857 524 l 1,18,-1
 688 524 l 1,19,-1
 697 569 l 1,20,-1
 794 569 l 1,21,-1
 884 1021 l 1,22,-1
 787 1021 l 1,23,-1
 796 1066 l 1,24,-1
 1036 1066 l 1,25,-1
 1092 747 l 1,26,-1
 1265 1066 l 1,27,-1
 1481 1066 l 1,28,-1
 1473 1021 l 1,29,-1
 1375 1021 l 1,30,-1
 1285 569 l 1,31,-1
 1383 569 l 1,32,-1
 1373 524 l 1,33,-1
 1178 524 l 1,34,-1
 1270 985 l 1,35,-1
 1041 569 l 1,36,-1
 1011 569 l 1,16,-1
EndSplineSet
EndChar

StartChar: logicalnot
Encoding: 172 172 39
Width: 932
Flags: W
LayerCount: 2
Fore
SplineSet
177 510 m 1,0,-1
 193 590 l 1,1,-1
 975 590 l 1,2,-1
 906 248 l 1,3,-1
 814 248 l 1,4,-1
 866 510 l 1,5,-1
 177 510 l 1,0,-1
EndSplineSet
EndChar

StartChar: florin
Encoding: 402 402 40
Width: 679
Flags: W
LayerCount: 2
Fore
SplineSet
158 -231 m 1,0,-1
 210 -18 l 1,1,-1
 286 364 l 1,2,-1
 108 364 l 1,3,-1
 117 409 l 1,4,-1
 294 409 l 1,5,-1
 298 427 l 2,6,7
 330 586 330 586 463 692.5 c 128,-1,8
 596 799 596 799 761 799 c 0,9,10
 818 799 818 799 860 784 c 1,11,-1
 764 678 l 1,12,13
 712 729 712 729 643 729 c 0,14,15
 500 729 500 729 457 512 c 2,16,-1
 436 409 l 1,17,-1
 623 409 l 1,18,-1
 614 364 l 1,19,-1
 427 364 l 1,20,-1
 313 -213 l 1,21,-1
 158 -231 l 1,0,-1
EndSplineSet
EndChar

StartChar: ellipsis
Encoding: 8230 8230 41
Width: 1827
Flags: W
LayerCount: 2
Fore
SplineSet
758 113 m 0,0,1
 758 144 758 144 809.5 245.5 c 128,-1,2
 861 347 861 347 876 355 c 0,3,4
 907 369 907 369 964.5 307.5 c 128,-1,5
 1022 246 1022 246 1026 211 c 1,6,7
 1026 166 1026 166 977.5 79.5 c 128,-1,8
 929 -7 929 -7 908 -7 c 0,9,10
 899 -7 899 -7 851 26.5 c 128,-1,11
 803 60 803 60 778 79 c 0,12,13
 758 96 758 96 758 113 c 0,0,1
1308 113 m 0,14,15
 1308 144 1308 144 1359 245.5 c 128,-1,16
 1410 347 1410 347 1426 355 c 0,17,18
 1457 369 1457 369 1514.5 307.5 c 128,-1,19
 1572 246 1572 246 1575 211 c 0,20,21
 1575 166 1575 166 1527 79.5 c 128,-1,22
 1479 -7 1479 -7 1458 -7 c 0,23,24
 1449 -7 1449 -7 1401 26.5 c 128,-1,25
 1353 60 1353 60 1328 79 c 0,26,27
 1308 96 1308 96 1308 113 c 0,14,15
211 113 m 0,28,29
 211 144 211 144 262 245.5 c 128,-1,30
 313 347 313 347 329 355 c 0,31,32
 360 369 360 369 417.5 307.5 c 128,-1,33
 475 246 475 246 478 211 c 0,34,35
 478 166 478 166 430 79.5 c 128,-1,36
 382 -7 382 -7 361 -7 c 0,37,38
 352 -7 352 -7 304 26.5 c 128,-1,39
 256 60 256 60 231 79 c 0,40,41
 211 96 211 96 211 113 c 0,28,29
EndSplineSet
EndChar

StartChar: endash
Encoding: 8211 8211 42
Width: 434
Flags: W
LayerCount: 2
Fore
SplineSet
434 154 m 1,0,-1
 0 154 l 1,1,-1
 0 234 l 1,2,-1
 434 234 l 1,3,-1
 434 154 l 1,0,-1
EndSplineSet
EndChar

StartChar: emdash
Encoding: 8212 8212 43
Width: 1862
Flags: W
LayerCount: 2
Fore
SplineSet
1866 572 m 1,0,-1
 -4 572 l 1,1,-1
 -4 732 l 1,2,-1
 1866 732 l 1,3,-1
 1866 572 l 1,0,-1
EndSplineSet
EndChar

StartChar: quotedblleft
Encoding: 8220 8220 44
Width: 613
Flags: W
LayerCount: 2
Fore
SplineSet
340 953 m 0,0,1
 341 1018 341 1018 385 1081.5 c 128,-1,2
 429 1145 429 1145 483 1171 c 1,3,-1
 514 1113 l 1,4,5
 498 1104 498 1104 476 1080 c 128,-1,6
 454 1056 454 1056 444 1018 c 1,7,8
 510 990 510 990 507 935 c 0,9,10
 507 919 507 919 500.5 904.5 c 128,-1,11
 494 890 494 890 483.5 879 c 128,-1,12
 473 868 473 868 458 861.5 c 128,-1,13
 443 855 443 855 427 855 c 0,14,15
 406 855 406 855 390 863.5 c 128,-1,16
 374 872 374 872 363 885.5 c 128,-1,17
 352 899 352 899 346 917 c 128,-1,18
 340 935 340 935 340 953 c 0,0,1
121 953 m 0,19,20
 122 1018 122 1018 166 1081.5 c 128,-1,21
 210 1145 210 1145 265 1171 c 1,22,-1
 296 1113 l 1,23,24
 280 1104 280 1104 258 1080 c 128,-1,25
 236 1056 236 1056 226 1018 c 1,26,27
 292 990 292 990 289 935 c 0,28,29
 289 919 289 919 282.5 904.5 c 128,-1,30
 276 890 276 890 265 879 c 128,-1,31
 254 868 254 868 239 861.5 c 128,-1,32
 224 855 224 855 208 855 c 0,33,34
 188 855 188 855 171.5 863.5 c 128,-1,35
 155 872 155 872 144 885.5 c 128,-1,36
 133 899 133 899 127 917 c 128,-1,37
 121 935 121 935 121 953 c 0,19,20
EndSplineSet
EndChar

StartChar: quotedblright
Encoding: 8221 8221 45
Width: 597
Flags: W
LayerCount: 2
Fore
SplineSet
295 1073 m 0,0,1
 294 1008 294 1008 250 944.5 c 128,-1,2
 206 881 206 881 152 855 c 1,3,-1
 121 913 l 1,4,5
 137 922 137 922 159 946 c 128,-1,6
 181 970 181 970 191 1008 c 1,7,8
 125 1036 125 1036 128 1091 c 0,9,10
 128 1107 128 1107 134.5 1121.5 c 128,-1,11
 141 1136 141 1136 151.5 1147 c 128,-1,12
 162 1158 162 1158 176.5 1164.5 c 128,-1,13
 191 1171 191 1171 208 1171 c 0,14,15
 229 1171 229 1171 245 1162.5 c 128,-1,16
 261 1154 261 1154 272 1140.5 c 128,-1,17
 283 1127 283 1127 289 1109 c 128,-1,18
 295 1091 295 1091 295 1073 c 0,0,1
514 1073 m 0,19,20
 513 1008 513 1008 469 944.5 c 128,-1,21
 425 881 425 881 370 855 c 1,22,-1
 339 913 l 1,23,24
 355 922 355 922 377 946 c 128,-1,25
 399 970 399 970 409 1008 c 1,26,27
 343 1036 343 1036 346 1091 c 0,28,29
 346 1107 346 1107 352.5 1121.5 c 128,-1,30
 359 1136 359 1136 370 1147 c 128,-1,31
 381 1158 381 1158 395.5 1164.5 c 128,-1,32
 410 1171 410 1171 427 1171 c 0,33,34
 447 1171 447 1171 463 1162.5 c 128,-1,35
 479 1154 479 1154 490.5 1140.5 c 128,-1,36
 502 1127 502 1127 508 1109 c 128,-1,37
 514 1091 514 1091 514 1073 c 0,19,20
EndSplineSet
EndChar

StartChar: divide
Encoding: 247 247 46
Width: 1093
Flags: W
LayerCount: 2
Fore
SplineSet
624 674 m 1,0,-1
 466 674 l 1,1,-1
 466 855 l 1,2,-1
 624 855 l 1,3,-1
 624 674 l 1,0,-1
933 383 m 1,4,-1
 157 383 l 1,5,-1
 157 489 l 1,6,-1
 933 489 l 1,7,-1
 933 383 l 1,4,-1
624 17 m 1,8,-1
 466 17 l 1,9,-1
 466 198 l 1,10,-1
 624 198 l 1,11,-1
 624 17 l 1,8,-1
EndSplineSet
EndChar

StartChar: lozenge
Encoding: 9674 9674 47
Width: 1118
Flags: W
LayerCount: 2
Fore
SplineSet
1003 699 m 1,0,-1
 560 197 l 1,1,-1
 117 699 l 1,2,-1
 560 1202 l 1,3,-1
 1003 699 l 1,0,-1
848 699 m 1,4,-1
 560 1036 l 1,5,-1
 271 699 l 1,6,-1
 560 364 l 1,7,-1
 848 699 l 1,4,-1
EndSplineSet
EndChar

StartChar: fraction
Encoding: 8260 8260 48
Width: 742
Flags: W
LayerCount: 2
Fore
SplineSet
740 1101 m 1,0,-1
 101 -82 l 1,1,-1
 -9 -82 l 1,2,-1
 629 1101 l 1,3,-1
 740 1101 l 1,0,-1
EndSplineSet
EndChar

StartChar: guilsinglleft
Encoding: 8249 8249 49
Width: 1117
Flags: W
LayerCount: 2
Fore
SplineSet
955 58 m 1,0,-1
 150 444 l 1,1,-1
 150 534 l 1,2,-1
 955 918 l 1,3,-1
 955 784 l 1,4,-1
 331 489 l 1,5,-1
 955 192 l 1,6,-1
 955 58 l 1,0,-1
EndSplineSet
EndChar

StartChar: daggerdbl
Encoding: 8225 8225 52
Width: 932
Flags: W
LayerCount: 2
Fore
SplineSet
349 -231 m 1,0,-1
 481 185 l 1,1,-1
 161 154 l 1,2,-1
 211 261 l 1,3,-1
 490 229 l 1,4,-1
 567 616 l 1,5,-1
 247 586 l 1,6,-1
 297 693 l 1,7,-1
 575 661 l 1,8,-1
 608 1066 l 1,9,-1
 758 1093 l 1,10,-1
 620 661 l 1,11,-1
 940 693 l 1,12,-1
 889 586 l 1,13,-1
 611 616 l 1,14,-1
 535 229 l 1,15,-1
 855 261 l 1,16,-1
 804 154 l 1,17,-1
 525 185 l 1,18,-1
 499 -213 l 1,19,-1
 349 -231 l 1,0,-1
EndSplineSet
EndChar

StartChar: middot.001
Encoding: 8729 8729 53
Width: 620
Flags: W
LayerCount: 2
Fore
SplineSet
429 516 m 1,0,-1
 190 516 l 1,1,-1
 190 789 l 1,2,-1
 429 789 l 1,3,-1
 429 516 l 1,0,-1
EndSplineSet
EndChar

StartChar: quotesinglbase
Encoding: 8218 8218 54
Width: 418
Flags: W
LayerCount: 2
Fore
SplineSet
103 128 m 1,0,-1
 247 231 l 1,1,-1
 353 90 l 1,2,3
 345 -56 345 -56 262.5 -134.5 c 128,-1,4
 180 -213 180 -213 36 -213 c 1,5,-1
 76 -168 l 1,6,7
 189 -158 189 -158 211 -18 c 1,8,-1
 103 128 l 1,0,-1
EndSplineSet
EndChar

StartChar: quotedblbase
Encoding: 8222 8222 55
Width: 684
Flags: W
LayerCount: 2
Fore
SplineSet
91 92 m 1,0,-1
 204 178 l 1,1,-1
 292 64 l 1,2,3
 270 -213 270 -213 31 -213 c 1,4,-1
 60 -168 l 1,5,6
 166 -148 166 -148 179 -16 c 1,7,-1
 91 92 l 1,0,-1
401 92 m 1,8,-1
 516 178 l 1,9,-1
 602 64 l 1,10,11
 581 -213 581 -213 341 -213 c 1,12,-1
 372 -168 l 1,13,14
 476 -148 476 -148 490 -16 c 1,15,-1
 401 92 l 1,8,-1
EndSplineSet
EndChar

StartChar: perthousand
Encoding: 8240 8240 56
Width: 1571
Flags: W
LayerCount: 2
Fore
SplineSet
385 533 m 0,0,1
 304 533 304 533 254.5 584.5 c 128,-1,2
 205 636 205 636 205 722 c 0,3,4
 205 865 205 865 286.5 965.5 c 128,-1,5
 368 1066 368 1066 483 1066 c 0,6,7
 567 1066 567 1066 617.5 1014.5 c 128,-1,8
 668 963 668 963 668 877 c 0,9,10
 668 733 668 733 585.5 633 c 128,-1,11
 503 533 503 533 385 533 c 0,0,1
311 715 m 0,12,13
 311 578 311 578 398 578 c 0,14,15
 463 578 463 578 517 671.5 c 128,-1,16
 571 765 571 765 571 881 c 0,17,18
 571 1022 571 1022 483 1022 c 0,19,20
 416 1022 416 1022 363.5 928 c 128,-1,21
 311 834 311 834 311 715 c 0,12,13
850 0 m 0,22,23
 769 0 769 0 719.5 51.5 c 128,-1,24
 670 103 670 103 670 189 c 0,25,26
 670 331 670 331 751 432 c 128,-1,27
 832 533 832 533 947 533 c 0,28,29
 1031 533 1031 533 1081.5 481.5 c 128,-1,30
 1132 430 1132 430 1132 344 c 0,31,32
 1132 200 1132 200 1049.5 100 c 128,-1,33
 967 0 967 0 850 0 c 0,22,23
776 182 m 0,34,35
 776 44 776 44 862 44 c 0,36,37
 929 44 929 44 982 138 c 128,-1,38
 1035 232 1035 232 1035 348 c 0,39,40
 1035 490 1035 490 948 490 c 0,41,42
 880 490 880 490 828 395.5 c 128,-1,43
 776 301 776 301 776 182 c 0,34,35
131 -27 m 1,44,-1
 1111 1093 l 1,45,-1
 1206 1093 l 1,46,-1
 225 -27 l 1,47,-1
 131 -27 l 1,44,-1
1376 0 m 0,48,49
 1294 0 1294 0 1244.5 51.5 c 128,-1,50
 1195 103 1195 103 1195 189 c 0,51,52
 1195 331 1195 331 1276.5 432 c 128,-1,53
 1358 533 1358 533 1473 533 c 0,54,55
 1557 533 1557 533 1607.5 481.5 c 128,-1,56
 1658 430 1658 430 1658 344 c 0,57,58
 1658 200 1658 200 1575.5 100 c 128,-1,59
 1493 0 1493 0 1376 0 c 0,48,49
1301 183 m 0,60,61
 1301 44 1301 44 1389 44 c 0,62,63
 1453 44 1453 44 1507 138 c 128,-1,64
 1561 232 1561 232 1561 347 c 0,65,66
 1561 490 1561 490 1473 490 c 0,67,68
 1406 490 1406 490 1353.5 395.5 c 128,-1,69
 1301 301 1301 301 1301 183 c 0,60,61
EndSplineSet
EndChar

StartChar: multiply
Encoding: 215 215 60
Width: 943
Flags: W
LayerCount: 2
Fore
SplineSet
262 160 m 1,0,-1
 161 264 l 1,1,-1
 362 462 l 1,2,-1
 163 661 l 1,3,-1
 263 763 l 1,4,-1
 462 564 l 1,5,-1
 660 763 l 1,6,-1
 764 661 l 1,7,-1
 564 462 l 1,8,-1
 764 264 l 1,9,-1
 660 162 l 1,10,-1
 462 362 l 1,11,-1
 262 160 l 1,0,-1
EndSplineSet
EndChar

StartChar: macron
Encoding: 175 175 61
Width: 1118
Flags: W
LayerCount: 2
Fore
SplineSet
1134 1259 m 1,0,-1
 -16 1259 l 1,1,-1
 -16 1389 l 1,2,-1
 1134 1389 l 1,3,-1
 1134 1259 l 1,0,-1
EndSplineSet
EndChar

StartChar: periodcentered
Encoding: 183 183 62
Width: 724
Flags: W
LayerCount: 2
Fore
SplineSet
482 832 m 1,0,-1
 243 832 l 1,1,-1
 243 1117 l 1,2,-1
 482 1117 l 1,3,-1
 482 832 l 1,0,-1
EndSplineSet
EndChar

StartChar: H22073
Encoding: 9633 9633 63
Width: 1237
Flags: W
LayerCount: 2
Fore
SplineSet
146 944 m 1,0,-1
 1090 944 l 1,1,-1
 1090 0 l 1,2,-1
 146 0 l 1,3,-1
 146 944 l 1,0,-1
222 868 m 1,4,-1
 222 76 l 1,5,-1
 1014 76 l 1,6,-1
 1014 868 l 1,7,-1
 222 868 l 1,4,-1
EndSplineSet
EndChar

StartChar: H18543
Encoding: 9642 9642 64
Width: 1089
Flags: W
LayerCount: 2
Fore
SplineSet
886 894 m 1,0,-1
 886 200 l 1,1,-1
 192 200 l 1,2,-1
 192 894 l 1,3,-1
 886 894 l 1,0,-1
EndSplineSet
EndChar

StartChar: H18551
Encoding: 9643 9643 65
Width: 1089
Flags: W
LayerCount: 2
Fore
SplineSet
888 930 m 1,0,-1
 888 235 l 1,1,-1
 193 235 l 1,2,-1
 193 930 l 1,3,-1
 888 930 l 1,0,-1
774 816 m 1,4,-1
 307 816 l 1,5,-1
 307 349 l 1,6,-1
 774 349 l 1,7,-1
 774 816 l 1,4,-1
EndSplineSet
EndChar

StartChar: H18533
Encoding: 9679 9679 66
Width: 1339
Flags: W
LayerCount: 2
Fore
SplineSet
204 775 m 0,0,1
 204 976 204 976 345 1117 c 128,-1,2
 486 1258 486 1258 685 1258 c 0,3,4
 885 1258 885 1258 1026 1117 c 128,-1,5
 1167 976 1167 976 1167 775 c 0,6,7
 1167 577 1167 577 1026 436 c 128,-1,8
 885 295 885 295 685 295 c 0,9,10
 486 295 486 295 345 436 c 128,-1,11
 204 577 204 577 204 775 c 0,0,1
EndSplineSet
EndChar

StartChar: openbullet
Encoding: 9702 9702 67
Width: 1089
Flags: W
LayerCount: 2
Fore
SplineSet
544 1392 m 0,0,1
 700 1392 700 1392 810.5 1281.5 c 128,-1,2
 921 1171 921 1171 921 1015 c 256,3,4
 921 859 921 859 810.5 749 c 128,-1,5
 700 639 700 639 544 639 c 256,6,7
 388 639 388 639 278 749 c 128,-1,8
 168 859 168 859 168 1015 c 256,9,10
 168 1171 168 1171 277.5 1281.5 c 128,-1,11
 387 1392 387 1392 544 1392 c 0,0,1
544 1278 m 0,12,13
 435 1278 435 1278 358.5 1200.5 c 128,-1,14
 282 1123 282 1123 282 1015 c 0,15,16
 282 906 282 906 359 829.5 c 128,-1,17
 436 753 436 753 544 753 c 256,18,19
 652 753 652 753 729.5 829.5 c 128,-1,20
 807 906 807 906 807 1015 c 0,21,22
 807 1123 807 1123 730.5 1200.5 c 128,-1,23
 654 1278 654 1278 544 1278 c 0,12,13
EndSplineSet
EndChar

StartChar: uniFFFC
Encoding: 65532 65532 68
Width: 2048
Flags: W
LayerCount: 2
Fore
SplineSet
2048 1150 m 1,0,-1
 1948 1150 l 1,1,-1
 1948 1373 l 1,2,-1
 1725 1373 l 1,3,-1
 1725 1473 l 1,4,-1
 2048 1473 l 1,5,-1
 2048 1150 l 1,0,-1
1473 1373 m 1,6,-1
 1150 1373 l 1,7,-1
 1150 1473 l 1,8,-1
 1473 1473 l 1,9,-1
 1473 1373 l 1,6,-1
2048 575 m 1,10,-1
 1948 575 l 1,11,-1
 1948 898 l 1,12,-1
 2048 898 l 1,13,-1
 2048 575 l 1,10,-1
1782 611 m 2,14,15
 1782 370 1782 370 1571 370 c 0,16,17
 1485 370 1485 370 1433 415 c 1,18,-1
 1506 494 l 1,19,20
 1531 468 1531 468 1571 468 c 0,21,22
 1666 468 1666 468 1666 606 c 2,23,-1
 1666 1090 l 1,24,-1
 1782 1090 l 1,25,-1
 1782 611 l 2,14,15
898 1373 m 1,26,-1
 575 1373 l 1,27,-1
 575 1473 l 1,28,-1
 898 1473 l 1,29,-1
 898 1373 l 1,26,-1
2048 0 m 1,30,-1
 1725 0 l 1,31,-1
 1725 100 l 1,32,-1
 1948 100 l 1,33,-1
 1948 323 l 1,34,-1
 2048 323 l 1,35,-1
 2048 0 l 1,30,-1
1423 591 m 0,36,37
 1423 382 1423 382 1149 382 c 2,38,-1
 909 382 l 1,39,-1
 909 1090 l 1,40,-1
 1144 1090 l 2,41,42
 1393 1090 1393 1090 1393 904 c 0,43,44
 1393 813 1393 813 1304 759 c 1,45,46
 1423 713 1423 713 1423 591 c 0,36,37
323 1373 m 1,47,-1
 100 1373 l 1,48,-1
 100 1150 l 1,49,-1
 0 1150 l 1,50,-1
 0 1473 l 1,51,-1
 323 1473 l 1,52,-1
 323 1373 l 1,47,-1
1473 0 m 1,53,-1
 1150 0 l 1,54,-1
 1150 100 l 1,55,-1
 1473 100 l 1,56,-1
 1473 0 l 1,53,-1
854 735 m 0,57,58
 854 562 854 562 772 466 c 128,-1,59
 690 370 690 370 537 370 c 256,60,61
 384 370 384 370 303.5 466 c 128,-1,62
 223 562 223 562 223 735 c 0,63,64
 223 910 223 910 303.5 1006 c 128,-1,65
 384 1102 384 1102 537 1102 c 256,66,67
 690 1102 690 1102 772 1006 c 128,-1,68
 854 910 854 910 854 735 c 0,57,58
100 575 m 1,69,-1
 0 575 l 1,70,-1
 0 898 l 1,71,-1
 100 898 l 1,72,-1
 100 575 l 1,69,-1
898 0 m 1,73,-1
 575 0 l 1,74,-1
 575 100 l 1,75,-1
 898 100 l 1,76,-1
 898 0 l 1,73,-1
323 0 m 1,77,-1
 0 0 l 1,78,-1
 0 323 l 1,79,-1
 100 323 l 1,80,-1
 100 100 l 1,81,-1
 323 100 l 1,82,-1
 323 0 l 1,77,-1
1277 893 m 0,83,84
 1277 992 1277 992 1114 992 c 2,85,-1
 1025 992 l 1,86,-1
 1025 798 l 1,87,-1
 1126 798 l 2,88,89
 1277 798 1277 798 1277 893 c 0,83,84
1307 591 m 0,90,91
 1307 700 1307 700 1136 700 c 2,92,-1
 1025 700 l 1,93,-1
 1025 480 l 1,94,-1
 1149 480 l 2,95,96
 1307 480 1307 480 1307 591 c 0,90,91
738 735 m 0,97,98
 738 1004 738 1004 537 1004 c 0,99,100
 339 1004 339 1004 339 735 c 0,101,102
 339 468 339 468 537 468 c 0,103,104
 738 468 738 468 738 735 c 0,97,98
EndSplineSet
EndChar

StartChar: zerowidthnonjoiner
Encoding: 8204 8204 88
Width: 0
GlyphClass: 2
Flags: W
LayerCount: 2
Fore
SplineSet
36 1289 m 1,0,-1
 36 -275 l 1,1,-1
 -36 -275 l 1,2,-1
 -36 1289 l 1,3,-1
 36 1289 l 1,0,-1
EndSplineSet
EndChar

StartChar: zerowidthjoiner
Encoding: 8205 8205 89
Width: 0
GlyphClass: 2
Flags: W
LayerCount: 2
Fore
SplineSet
36 -275 m 1,0,-1
 -36 -275 l 1,1,-1
 -36 1114 l 1,2,-1
 -170 978 l 1,3,-1
 -219 1027 l 1,4,-1
 -48 1196 l 1,5,-1
 -219 1364 l 1,6,-1
 -170 1413 l 1,7,-1
 0 1242 l 1,8,-1
 170 1413 l 1,9,-1
 219 1364 l 1,10,-1
 48 1196 l 1,11,-1
 219 1027 l 1,12,-1
 170 978 l 1,13,-1
 36 1114 l 1,14,-1
 36 -275 l 1,0,-1
EndSplineSet
EndChar

StartChar: lefttorightmark
Encoding: 8206 8206 90
Width: 0
GlyphClass: 2
Flags: W
LayerCount: 2
Fore
SplineSet
430 1198 m 1,0,-1
 213 984 l 1,1,-1
 164 1033 l 1,2,-1
 301 1163 l 1,3,-1
 35 1163 l 1,4,-1
 35 -275 l 1,5,-1
 -36 -275 l 1,6,-1
 -36 1234 l 1,7,-1
 301 1234 l 1,8,-1
 164 1364 l 1,9,-1
 213 1413 l 1,10,-1
 430 1198 l 1,0,-1
EndSplineSet
EndChar

StartChar: righttoleftmark
Encoding: 8207 8207 91
Width: 0
GlyphClass: 2
Flags: W
LayerCount: 2
Fore
SplineSet
35 -275 m 1,0,-1
 -36 -275 l 1,1,-1
 -36 1163 l 1,2,-1
 -302 1163 l 1,3,-1
 -165 1033 l 1,4,-1
 -214 984 l 1,5,-1
 -431 1198 l 1,6,-1
 -214 1413 l 1,7,-1
 -165 1364 l 1,8,-1
 -302 1234 l 1,9,-1
 35 1234 l 1,10,-1
 35 -275 l 1,0,-1
EndSplineSet
EndChar

StartChar: afii57388.001
Encoding: 1644 1644 92
Width: 353
GlyphClass: 2
Flags: W
LayerCount: 2
Fore
SplineSet
210 654 m 0,0,1
 200 627 200 627 185 603 c 0,2,3
 180 597 180 597 173.5 593.5 c 128,-1,4
 167 590 167 590 162 590 c 128,-1,5
 157 590 157 590 154.5 593 c 128,-1,6
 152 596 152 596 155 603 c 0,7,8
 187 660 187 660 202.5 713.5 c 128,-1,9
 218 767 218 767 218 800 c 1,10,11
 194 806 194 806 179 816 c 128,-1,12
 164 826 164 826 155 837.5 c 128,-1,13
 146 849 146 849 143 859 c 128,-1,14
 140 869 140 869 140 874 c 0,15,16
 140 890 140 890 145.5 907 c 128,-1,17
 151 924 151 924 160.5 937.5 c 128,-1,18
 170 951 170 951 183.5 959.5 c 128,-1,19
 197 968 197 968 213 968 c 0,20,21
 272 968 272 968 272 874 c 0,22,23
 272 859 272 859 268 835 c 128,-1,24
 264 811 264 811 256 781.5 c 128,-1,25
 248 752 248 752 236.5 719.5 c 128,-1,26
 225 687 225 687 210 654 c 0,0,1
EndSplineSet
EndChar

StartChar: afii57409
Encoding: 1569 1569 93
Width: 685
GlyphClass: 2
Flags: W
AnchorPoint: "Anchor-3" 390 -300 basechar 0
AnchorPoint: "Anchor-2" 390 510 basechar 0
LayerCount: 2
Fore
SplineSet
622 1 m 1,0,-1
 162 1 l 1,1,-1
 162 146 l 1,2,-1
 279 146 l 1,3,4
 246 206 246 206 246 274 c 2,5,-1
 246 361 l 1,6,-1
 537 361 l 1,7,-1
 537 217 l 1,8,-1
 404 217 l 1,9,10
 439 146 439 146 519 146 c 2,11,-1
 622 146 l 1,12,-1
 622 1 l 1,0,-1
EndSplineSet
EndChar

StartChar: afii57440
Encoding: 1600 1600 94
Width: 633
GlyphClass: 2
Flags: W
LayerCount: 2
Fore
SplineSet
690 0 m 1,0,-1
 -59 0 l 1,1,-1
 -59 230 l 1,2,-1
 690 230 l 1,3,-1
 690 0 l 1,0,-1
EndSplineSet
EndChar

StartChar: afii57453
Encoding: 1613 1613 95
Width: 0
GlyphClass: 4
Flags: W
AnchorPoint: "Anchor-3" 0 0 mark 0
AnchorPoint: "Anchor-1" 0 0 mark 0
LayerCount: 2
Fore
SplineSet
217 84 m 1,0,-1
 -235 1 l 1,1,-1
 -251 93 l 1,2,-1
 200 175 l 1,3,-1
 217 84 l 1,0,-1
244 -66 m 1,4,-1
 -207 -148 l 1,5,-1
 -224 -56 l 1,6,-1
 227 27 l 1,7,-1
 244 -66 l 1,4,-1
EndSplineSet
EndChar

StartChar: afii57381
Encoding: 1642 1642 96
Width: 780
GlyphClass: 2
Flags: W
LayerCount: 2
Fore
SplineSet
270 690 m 1,0,-1
 155 690 l 2,1,2
 107 690 107 690 73.5 724 c 128,-1,3
 40 758 40 758 40 805 c 0,4,5
 40 853 40 853 73.5 886.5 c 128,-1,6
 107 920 107 920 155 920 c 0,7,8
 202 920 202 920 236 886.5 c 128,-1,9
 270 853 270 853 270 805 c 2,10,-1
 270 690 l 1,0,-1
653 844 m 1,11,-1
 194 -17 l 1,12,-1
 67 49 l 1,13,-1
 526 910 l 1,14,-1
 653 844 l 1,11,-1
701 -39 m 1,15,-1
 587 -39 l 2,16,17
 540 -39 540 -39 506 -5.5 c 128,-1,18
 472 28 472 28 472 75 c 256,19,20
 472 122 472 122 506 155.5 c 128,-1,21
 540 189 540 189 587 189 c 256,22,23
 634 189 634 189 667.5 155.5 c 128,-1,24
 701 122 701 122 701 75 c 2,25,-1
 701 -39 l 1,15,-1
EndSplineSet
EndChar

StartChar: afii57461
Encoding: 1643 1643 97
Width: 536
GlyphClass: 2
Flags: W
LayerCount: 2
Fore
SplineSet
518 521 m 1,0,-1
 115 -382 l 1,1,-1
 19 -352 l 1,2,-1
 425 551 l 1,3,-1
 518 521 l 1,0,-1
EndSplineSet
EndChar

StartChar: afii63167
Encoding: 1645 1645 98
Width: 1118
GlyphClass: 2
Flags: W
LayerCount: 2
Fore
SplineSet
694 729 m 1,0,-1
 1057 733 l 1,1,-1
 1057 610 l 1,2,-1
 702 612 l 1,3,-1
 971 352 l 1,4,-1
 883 264 l 1,5,-1
 616 539 l 1,6,-1
 623 168 l 1,7,-1
 498 168 l 1,8,-1
 502 539 l 1,9,-1
 236 264 l 1,10,-1
 147 352 l 1,11,-1
 422 614 l 1,12,-1
 63 610 l 1,13,-1
 63 733 l 1,14,-1
 420 729 l 1,15,-1
 170 975 l 1,16,-1
 258 1065 l 1,17,-1
 502 817 l 1,18,-1
 498 1176 l 1,19,-1
 623 1176 l 1,20,-1
 616 813 l 1,21,-1
 860 1065 l 1,22,-1
 948 975 l 1,23,-1
 694 729 l 1,0,-1
EndSplineSet
EndChar

StartChar: afii57459
Encoding: 65543 -1 99
Width: 805
GlyphClass: 2
Flags: W
LayerCount: 2
Fore
SplineSet
805 0 m 1,0,-1
 -59 0 l 1,1,-1
 -59 230 l 1,2,-1
 157 230 l 1,3,4
 141 279 141 279 141 331 c 0,5,6
 141 469 141 469 238 566.5 c 128,-1,7
 335 664 335 664 472 664 c 0,8,9
 615 664 615 664 712 561 c 0,10,11
 805 460 805 460 805 319 c 2,12,-1
 805 0 l 1,0,-1
576 230 m 1,13,-1
 576 331 l 2,14,15
 576 375 576 375 545.5 405.5 c 128,-1,16
 515 436 515 436 472 436 c 256,17,18
 429 436 429 436 399.5 406 c 128,-1,19
 370 376 370 376 370 331 c 0,20,21
 370 289 370 289 399.5 259.5 c 128,-1,22
 429 230 429 230 472 230 c 2,23,-1
 576 230 l 1,13,-1
EndSplineSet
EndChar

StartChar: afii57543
Encoding: 65544 -1 100
Width: 822
Flags: W
LayerCount: 2
Fore
SplineSet
859 0 m 1,0,-1
 770 0 l 2,1,2
 631 0 631 0 514 85 c 1,3,-1
 514 0 l 1,4,-1
 -59 0 l 1,5,-1
 -59 230 l 1,6,-1
 285 230 l 1,7,-1
 285 658 l 1,8,-1
 514 658 l 1,9,-1
 514 515 l 2,10,11
 514 392 514 392 585 311 c 128,-1,12
 656 230 656 230 770 230 c 2,13,-1
 859 230 l 1,14,-1
 859 0 l 1,0,-1
EndSplineSet
EndChar

StartChar: afii57534
Encoding: 1749 1749 101
Width: 803
GlyphClass: 2
Flags: W
LayerCount: 2
Fore
SplineSet
803 301 m 0,0,1
 803 164 803 164 706 67 c 128,-1,2
 609 -30 609 -30 472 -30 c 0,3,4
 339 -30 339 -30 241 64 c 0,5,6
 141 160 141 160 141 299 c 2,7,-1
 141 635 l 1,8,-1
 460 635 l 2,9,10
 602 635 602 635 702.5 540.5 c 128,-1,11
 803 446 803 446 803 301 c 0,0,1
576 301 m 0,12,13
 576 345 576 345 545.5 375.5 c 128,-1,14
 515 406 515 406 472 406 c 2,15,-1
 370 406 l 1,16,-1
 370 301 l 2,17,18
 370 259 370 259 399.5 229.5 c 128,-1,19
 429 200 429 200 472 200 c 256,20,21
 515 200 515 200 545.5 229.5 c 128,-1,22
 576 259 576 259 576 301 c 0,12,13
EndSplineSet
EndChar

StartChar: afii64240
Encoding: 65546 -1 103
Width: 274
Flags: W
LayerCount: 2
Fore
SplineSet
255 -230 m 1,0,-1
 141 -230 l 2,1,2
 94 -230 94 -230 60 -196.5 c 128,-1,3
 26 -163 26 -163 26 -116 c 256,4,5
 26 -69 26 -69 60 -35 c 128,-1,6
 94 -1 94 -1 141 -1 c 256,7,8
 188 -1 188 -1 221.5 -35 c 128,-1,9
 255 -69 255 -69 255 -116 c 2,10,-1
 255 -230 l 1,0,-1
EndSplineSet
EndChar

StartChar: afii64241
Encoding: 65547 -1 104
Width: 564
Flags: W
LayerCount: 2
Fore
SplineSet
543 1 m 1,0,-1
 427 1 l 2,1,2
 380 1 380 1 346.5 35 c 128,-1,3
 313 69 313 69 313 116 c 0,4,5
 313 164 313 164 346.5 197 c 128,-1,6
 380 230 380 230 427 230 c 0,7,8
 475 230 475 230 509 197 c 128,-1,9
 543 164 543 164 543 116 c 2,10,-1
 543 1 l 1,0,-1
283 1 m 1,11,-1
 168 1 l 2,12,13
 120 1 120 1 86.5 35 c 128,-1,14
 53 69 53 69 53 116 c 0,15,16
 53 164 53 164 86.5 197 c 128,-1,17
 120 230 120 230 168 230 c 0,18,19
 215 230 215 230 249 197 c 128,-1,20
 283 164 283 164 283 116 c 2,21,-1
 283 1 l 1,11,-1
EndSplineSet
EndChar

StartChar: afii63954
Encoding: 65548 -1 105
Width: 534
Flags: W
LayerCount: 2
Fore
SplineSet
363 235 m 1,0,-1
 247 235 l 2,1,2
 200 235 200 235 166.5 269 c 128,-1,3
 133 303 133 303 133 351 c 0,4,5
 133 398 133 398 166.5 431.5 c 128,-1,6
 200 465 200 465 247 465 c 0,7,8
 295 465 295 465 329 431.5 c 128,-1,9
 363 398 363 398 363 351 c 2,10,-1
 363 235 l 1,0,-1
507 0 m 1,11,-1
 392 0 l 2,12,13
 345 0 345 0 311.5 34 c 128,-1,14
 278 68 278 68 278 115 c 0,15,16
 278 163 278 163 311.5 196 c 128,-1,17
 345 229 345 229 392 229 c 256,18,19
 439 229 439 229 473 196 c 128,-1,20
 507 163 507 163 507 115 c 2,21,-1
 507 0 l 1,11,-1
247 0 m 1,22,-1
 132 0 l 2,23,24
 85 0 85 0 51.5 34 c 128,-1,25
 18 68 18 68 18 115 c 0,26,27
 18 163 18 163 51.5 196 c 128,-1,28
 85 229 85 229 132 229 c 256,29,30
 179 229 179 229 213 196 c 128,-1,31
 247 163 247 163 247 115 c 2,32,-1
 247 0 l 1,22,-1
EndSplineSet
EndChar

StartChar: afii57382
Encoding: 65549 -1 106
Width: 533
Flags: W
LayerCount: 2
Fore
SplineSet
506 -229 m 1,0,-1
 391 -229 l 2,1,2
 343 -229 343 -229 309.5 -195.5 c 128,-1,3
 276 -162 276 -162 276 -115 c 256,4,5
 276 -68 276 -68 309.5 -34 c 128,-1,6
 343 0 343 0 391 0 c 0,7,8
 438 0 438 0 472 -34 c 128,-1,9
 506 -68 506 -68 506 -115 c 2,10,-1
 506 -229 l 1,0,-1
246 -229 m 1,11,-1
 131 -229 l 2,12,13
 83 -229 83 -229 49.5 -195.5 c 128,-1,14
 16 -162 16 -162 16 -115 c 256,15,16
 16 -68 16 -68 49.5 -34 c 128,-1,17
 83 0 83 0 131 0 c 0,18,19
 178 0 178 0 212 -34 c 128,-1,20
 246 -68 246 -68 246 -115 c 2,21,-1
 246 -229 l 1,11,-1
376 -465 m 1,22,-1
 262 -465 l 2,23,24
 214 -465 214 -465 180.5 -431.5 c 128,-1,25
 147 -398 147 -398 147 -350 c 0,26,27
 147 -303 147 -303 180.5 -269 c 128,-1,28
 214 -235 214 -235 262 -235 c 0,29,30
 309 -235 309 -235 342.5 -269 c 128,-1,31
 376 -303 376 -303 376 -350 c 2,32,-1
 376 -465 l 1,22,-1
EndSplineSet
EndChar

StartChar: afii64242
Encoding: 65550 -1 107
Width: 519
Flags: W
LayerCount: 2
Fore
SplineSet
514 0 m 1,0,-1
 -59 0 l 1,1,-1
 -59 230 l 1,2,-1
 285 230 l 1,3,-1
 285 658 l 1,4,-1
 514 658 l 1,5,-1
 514 0 l 1,0,-1
EndSplineSet
EndChar

StartChar: afii57373
Encoding: 65551 -1 112
Width: 454
Flags: W
LayerCount: 2
Fore
SplineSet
454 1012 m 1,0,-1
 24 1012 l 1,1,-1
 24 1107 l 1,2,-1
 141 1107 l 1,3,4
 108 1167 108 1167 108 1235 c 2,5,-1
 108 1262 l 1,6,-1
 399 1262 l 1,7,-1
 399 1168 l 1,8,-1
 236 1168 l 1,9,10
 271 1107 271 1107 351 1107 c 2,11,-1
 454 1107 l 1,12,-1
 454 1012 l 1,0,-1
EndSplineSet
EndChar

StartChar: afii57374
Encoding: 65552 -1 113
Width: 976
GlyphClass: 2
Flags: W
LayerCount: 2
Fore
SplineSet
1005 0 m 1,0,-1
 -59 0 l 1,1,-1
 -59 230 l 1,2,-1
 157 230 l 1,3,4
 141 279 141 279 141 331 c 0,5,6
 141 469 141 469 238 566.5 c 128,-1,7
 335 664 335 664 472 664 c 0,8,9
 615 664 615 664 712 561 c 0,10,11
 805 460 805 460 805 319 c 2,12,-1
 805 230 l 1,13,-1
 1005 230 l 1,14,-1
 1005 0 l 1,0,-1
576 230 m 1,15,-1
 576 331 l 2,16,17
 576 375 576 375 545.5 405.5 c 128,-1,18
 515 436 515 436 472 436 c 256,19,20
 429 436 429 436 399.5 406 c 128,-1,21
 370 376 370 376 370 331 c 0,22,23
 370 289 370 289 399.5 259.5 c 128,-1,24
 429 230 429 230 472 230 c 2,25,-1
 576 230 l 1,15,-1
EndSplineSet
EndChar

StartChar: afii57375
Encoding: 1619 1619 114
Width: 781
GlyphClass: 2
Flags: W
LayerCount: 2
Fore
SplineSet
782 996 m 1,0,-1
 617 996 l 1,1,2
 602 1229 602 1229 449 1229 c 256,3,4
 296 1229 296 1229 282 996 c 1,5,-1
 115 996 l 1,6,7
 127 1184 127 1184 222 1291 c 0,8,9
 311 1394 311 1394 449 1394 c 0,10,11
 544 1394 544 1394 616 1356 c 1,12,-1
 616 1394 l 1,13,-1
 782 1394 l 1,14,-1
 782 996 l 1,0,-1
EndSplineSet
EndChar

StartChar: afii57391
Encoding: 59450 59450 115
Width: 1024
GlyphClass: 2
Flags: W
LayerCount: 2
Fore
SplineSet
1024 0 m 1,0,-1
 -70 0 l 1,1,-1
 -70 188 l 1,2,-1
 1024 188 l 1,3,-1
 1024 0 l 1,0,-1
EndSplineSet
EndChar

StartChar: afii57471
Encoding: 65553 -1 116
Width: 2049
Flags: W
LayerCount: 2
Fore
SplineSet
2085 0 m 1,0,-1
 1997 0 l 2,1,2
 1859 0 1859 0 1741 85 c 1,3,-1
 1741 0 l 1,4,-1
 656 0 l 2,5,6
 443 0 443 0 292 151.5 c 128,-1,7
 141 303 141 303 141 515 c 0,8,9
 141 723 141 723 304 893 c 1,10,-1
 469 735 l 1,11,12
 370 631 370 631 370 515 c 0,13,14
 370 397 370 397 454 313.5 c 128,-1,15
 538 230 538 230 656 230 c 2,16,-1
 1512 230 l 1,17,-1
 1512 658 l 1,18,-1
 1741 658 l 1,19,-1
 1741 515 l 2,20,21
 1741 392 1741 392 1812.5 311 c 128,-1,22
 1884 230 1884 230 1997 230 c 2,23,-1
 2085 230 l 1,24,-1
 2085 0 l 1,0,-1
EndSplineSet
EndChar

StartChar: afii52258
Encoding: 65554 -1 117
Width: 1941
GlyphClass: 2
Flags: W
LayerCount: 2
Fore
SplineSet
1970 0 m 1,0,-1
 656 0 l 2,1,2
 443 0 443 0 292 151.5 c 128,-1,3
 141 303 141 303 141 515 c 0,4,5
 141 723 141 723 304 893 c 1,6,-1
 469 735 l 1,7,8
 370 631 370 631 370 515 c 0,9,10
 370 397 370 397 454 313.5 c 128,-1,11
 538 230 538 230 656 230 c 2,12,-1
 1121 230 l 1,13,14
 1106 279 1106 279 1106 331 c 0,15,16
 1106 469 1106 469 1203 566.5 c 128,-1,17
 1300 664 1300 664 1437 664 c 0,18,19
 1580 664 1580 664 1677 561 c 0,20,21
 1770 460 1770 460 1770 319 c 2,22,-1
 1770 230 l 1,23,-1
 1970 230 l 1,24,-1
 1970 0 l 1,0,-1
1541 331 m 2,25,26
 1541 375 1541 375 1510.5 405.5 c 128,-1,27
 1480 436 1480 436 1437 436 c 256,28,29
 1394 436 1394 436 1364.5 406 c 128,-1,30
 1335 376 1335 376 1335 331 c 0,31,32
 1335 289 1335 289 1364.5 259.5 c 128,-1,33
 1394 230 1394 230 1437 230 c 2,34,-1
 1541 230 l 1,35,-1
 1541 331 l 2,25,26
EndSplineSet
EndChar

StartChar: afii62889
Encoding: 65555 -1 123
Width: 1341
Flags: W
LayerCount: 2
Fore
SplineSet
1371 0 m 1,0,-1
 1170 0 l 1,1,2
 1158 -203 1158 -203 1009.5 -344 c 128,-1,3
 861 -485 861 -485 656 -485 c 0,4,5
 443 -485 443 -485 292 -334 c 128,-1,6
 141 -183 141 -183 141 30 c 0,7,8
 141 225 141 225 289 393 c 1,9,-1
 458 240 l 1,10,11
 370 137 370 137 370 30 c 0,12,13
 370 -88 370 -88 454 -172 c 128,-1,14
 538 -256 538 -256 656 -256 c 0,15,16
 766 -256 766 -256 847 -182 c 128,-1,17
 928 -108 928 -108 939 0 c 1,18,-1
 837 0 l 2,19,20
 700 0 700 0 603 99 c 128,-1,21
 506 198 506 198 506 335 c 0,22,23
 506 473 506 473 603 570.5 c 128,-1,24
 700 668 700 668 837 668 c 0,25,26
 981 668 981 668 1077 565 c 0,27,28
 1171 464 1171 464 1171 323 c 2,29,-1
 1171 230 l 1,30,-1
 1371 230 l 1,31,-1
 1371 0 l 1,0,-1
941 335 m 2,32,33
 941 380 941 380 911 410 c 128,-1,34
 881 440 881 440 837 440 c 0,35,36
 795 440 795 440 765.5 410 c 128,-1,37
 736 380 736 380 736 335 c 0,38,39
 736 293 736 293 765.5 263.5 c 128,-1,40
 795 234 795 234 837 234 c 2,41,-1
 941 234 l 1,42,-1
 941 335 l 2,32,33
EndSplineSet
EndChar

StartChar: afii62887
Encoding: 65556 -1 124
Width: 1739
Flags: W
LayerCount: 2
Fore
SplineSet
1741 0 m 1,0,-1
 656 0 l 2,1,2
 443 0 443 0 292 151.5 c 128,-1,3
 141 303 141 303 141 515 c 0,4,5
 141 723 141 723 304 893 c 1,6,-1
 469 735 l 1,7,8
 370 631 370 631 370 515 c 0,9,10
 370 397 370 397 454 313.5 c 128,-1,11
 538 230 538 230 656 230 c 2,12,-1
 1512 230 l 1,13,-1
 1512 658 l 1,14,-1
 1741 658 l 1,15,-1
 1741 0 l 1,0,-1
EndSplineSet
EndChar

StartChar: afii62888
Encoding: 1697 1697 125
Width: 1770
GlyphClass: 2
Flags: W
LayerCount: 2
Fore
SplineSet
1770 0 m 1,0,-1
 656 0 l 2,1,2
 443 0 443 0 292 151.5 c 128,-1,3
 141 303 141 303 141 515 c 0,4,5
 141 723 141 723 304 893 c 1,6,-1
 469 735 l 1,7,8
 370 631 370 631 370 515 c 0,9,10
 370 397 370 397 454 313.5 c 128,-1,11
 538 230 538 230 656 230 c 2,12,-1
 1121 230 l 1,13,14
 1106 279 1106 279 1106 331 c 0,15,16
 1106 469 1106 469 1203 566.5 c 128,-1,17
 1300 664 1300 664 1437 664 c 0,18,19
 1580 664 1580 664 1677 561 c 0,20,21
 1770 460 1770 460 1770 319 c 2,22,-1
 1770 0 l 1,0,-1
1541 331 m 2,23,24
 1541 375 1541 375 1510.5 405.5 c 128,-1,25
 1480 436 1480 436 1437 436 c 256,26,27
 1394 436 1394 436 1364.5 406 c 128,-1,28
 1335 376 1335 376 1335 331 c 0,29,30
 1335 289 1335 289 1364.5 259.5 c 128,-1,31
 1394 230 1394 230 1437 230 c 2,32,-1
 1541 230 l 1,33,-1
 1541 331 l 2,23,24
EndSplineSet
Substitution2: "'medi' Medial Forms in Arabic lookup 3 subtable" afii57374
Substitution2: "'fina' Terminal Forms in Arabic lookup 2 subtable" afii52258
Substitution2: "'init' Initial Forms in Arabic lookup 1 subtable" afii57459
EndChar

StartChar: afii57567
Encoding: 1705 1705 132
Width: 1741
GlyphClass: 2
Flags: W
AnchorPoint: "Anchor-3" 945 -435 basechar 0
AnchorPoint: "Anchor-2" 810 1230 basechar 0
LayerCount: 2
Fore
SplineSet
1779 951 m 1,0,-1
 1437 671 l 1,1,2
 1573 609 1573 609 1657 482 c 128,-1,3
 1741 355 1741 355 1741 200 c 2,4,-1
 1741 0 l 1,5,-1
 656 0 l 2,6,7
 443 0 443 0 292 151.5 c 128,-1,8
 141 303 141 303 141 515 c 0,9,10
 141 723 141 723 304 893 c 1,11,-1
 469 735 l 1,12,13
 370 631 370 631 370 515 c 0,14,15
 370 397 370 397 454 313.5 c 128,-1,16
 538 230 538 230 656 230 c 2,17,-1
 1510 230 l 1,18,19
 1501 333 1501 333 1424.5 406.5 c 128,-1,20
 1348 480 1348 480 1245 487 c 1,21,-1
 988 287 l 1,22,-1
 840 459 l 1,23,-1
 1632 1126 l 1,24,-1
 1779 951 l 1,0,-1
EndSplineSet
Substitution2: "'medi' Medial Forms in Arabic lookup 3 subtable" afii52306
Substitution2: "'fina' Terminal Forms in Arabic lookup 2 subtable" afii62964
Substitution2: "'init' Initial Forms in Arabic lookup 1 subtable" afii52305
EndChar

StartChar: afii62964
Encoding: 64399 64399 133
Width: 1911
GlyphClass: 2
Flags: W
AnchorPoint: "Anchor-3" 975 -435 basechar 0
AnchorPoint: "Anchor-2" 885 1215 basechar 0
LayerCount: 2
Fore
SplineSet
1941 0 m 1,0,-1
 656 0 l 2,1,2
 443 0 443 0 292 151.5 c 128,-1,3
 141 303 141 303 141 515 c 0,4,5
 141 723 141 723 304 893 c 1,6,-1
 469 735 l 1,7,8
 370 631 370 631 370 515 c 0,9,10
 370 397 370 397 454 313.5 c 128,-1,11
 538 230 538 230 656 230 c 2,12,-1
 1510 230 l 1,13,14
 1501 333 1501 333 1424.5 406.5 c 128,-1,15
 1348 480 1348 480 1245 487 c 1,16,-1
 988 287 l 1,17,-1
 840 459 l 1,18,-1
 1632 1126 l 1,19,-1
 1779 951 l 1,20,-1
 1437 671 l 1,21,22
 1568 612 1568 612 1650 494 c 128,-1,23
 1732 376 1732 376 1740 230 c 1,24,-1
 1941 230 l 1,25,-1
 1941 0 l 1,0,-1
EndSplineSet
EndChar

StartChar: afii52305
Encoding: 64400 64400 134
Width: 920
GlyphClass: 2
Flags: W
AnchorPoint: "Anchor-3" 360 -465 basechar 0
AnchorPoint: "Anchor-2" 210 1050 basechar 0
LayerCount: 2
Fore
SplineSet
958 952 m 1,0,-1
 614 671 l 1,1,2
 752 609 752 609 836 482 c 128,-1,3
 920 355 920 355 920 200 c 2,4,-1
 920 0 l 1,5,-1
 -53 0 l 1,6,-1
 -53 230 l 1,7,-1
 688 230 l 1,8,9
 678 333 678 333 602 406.5 c 128,-1,10
 526 480 526 480 422 487 c 1,11,-1
 166 287 l 1,12,-1
 19 461 l 1,13,-1
 809 1127 l 1,14,-1
 958 952 l 1,0,-1
EndSplineSet
EndChar

StartChar: afii52306
Encoding: 64401 64401 135
Width: 1200
GlyphClass: 2
Flags: W
AnchorPoint: "Anchor-3" 570 -480 basechar 0
AnchorPoint: "Anchor-2" 405 1140 basechar 0
LayerCount: 2
Fore
SplineSet
1230 0 m 1,0,-1
 -59 0 l 1,1,-1
 -59 230 l 1,2,-1
 799 230 l 1,3,4
 789 333 789 333 712.5 406.5 c 128,-1,5
 636 480 636 480 533 487 c 1,6,-1
 277 287 l 1,7,-1
 129 459 l 1,8,-1
 920 1126 l 1,9,-1
 1068 951 l 1,10,-1
 726 671 l 1,11,12
 856 612 856 612 938.5 494 c 128,-1,13
 1021 376 1021 376 1029 230 c 1,14,-1
 1230 230 l 1,15,-1
 1230 0 l 1,0,-1
EndSplineSet
EndChar

StartChar: afii57509
Encoding: 1711 1711 136
Width: 1739
GlyphClass: 2
Flags: W
AnchorPoint: "Anchor-3" 975 -435 basechar 0
AnchorPoint: "Anchor-2" 705 1320 basechar 0
LayerCount: 2
Fore
SplineSet
1424 1018 m 1,0,-1
 1122 764 l 1,1,-1
 1028 872 l 1,2,-1
 1329 1126 l 1,3,-1
 1424 1018 l 1,0,-1
1779 951 m 1,4,-1
 1437 671 l 1,5,6
 1573 609 1573 609 1657 482 c 128,-1,7
 1741 355 1741 355 1741 200 c 2,8,-1
 1741 0 l 1,9,-1
 656 0 l 2,10,11
 443 0 443 0 292 151.5 c 128,-1,12
 141 303 141 303 141 515 c 0,13,14
 141 723 141 723 304 893 c 1,15,-1
 469 735 l 1,16,17
 370 631 370 631 370 515 c 0,18,19
 370 397 370 397 454 313.5 c 128,-1,20
 538 230 538 230 656 230 c 2,21,-1
 1510 230 l 1,22,23
 1501 333 1501 333 1424.5 406.5 c 128,-1,24
 1348 480 1348 480 1245 487 c 1,25,-1
 988 287 l 1,26,-1
 840 459 l 1,27,-1
 1632 1126 l 1,28,-1
 1779 951 l 1,4,-1
EndSplineSet
Substitution2: "'medi' Medial Forms in Arabic lookup 3 subtable" afii62966
Substitution2: "'fina' Terminal Forms in Arabic lookup 2 subtable" afii62967
Substitution2: "'init' Initial Forms in Arabic lookup 1 subtable" afii62965
EndChar

StartChar: afii62967
Encoding: 64403 64403 137
Width: 1904
GlyphClass: 2
Flags: W
AnchorPoint: "Anchor-3" 900 -450 basechar 0
AnchorPoint: "Anchor-2" 765 1365 basechar 0
LayerCount: 2
Fore
SplineSet
1424 1018 m 1,0,-1
 1122 764 l 1,1,-1
 1028 872 l 1,2,-1
 1329 1126 l 1,3,-1
 1424 1018 l 1,0,-1
1941 0 m 1,4,-1
 656 0 l 2,5,6
 443 0 443 0 292 151.5 c 128,-1,7
 141 303 141 303 141 515 c 0,8,9
 141 723 141 723 304 893 c 1,10,-1
 469 735 l 1,11,12
 370 631 370 631 370 515 c 0,13,14
 370 397 370 397 454 313.5 c 128,-1,15
 538 230 538 230 656 230 c 2,16,-1
 1510 230 l 1,17,18
 1501 333 1501 333 1424.5 406.5 c 128,-1,19
 1348 480 1348 480 1245 487 c 1,20,-1
 988 287 l 1,21,-1
 840 459 l 1,22,-1
 1632 1126 l 1,23,-1
 1779 951 l 1,24,-1
 1437 671 l 1,25,26
 1568 612 1568 612 1650 494 c 128,-1,27
 1732 376 1732 376 1740 230 c 1,28,-1
 1941 230 l 1,29,-1
 1941 0 l 1,4,-1
EndSplineSet
EndChar

StartChar: afii62965
Encoding: 64404 64404 138
Width: 918
GlyphClass: 2
Flags: W
AnchorPoint: "Anchor-3" 345 -495 basechar 0
AnchorPoint: "Anchor-2" 240 1245 basechar 0
LayerCount: 2
Fore
SplineSet
601 1018 m 1,0,-1
 299 764 l 1,1,-1
 205 872 l 1,2,-1
 506 1126 l 1,3,-1
 601 1018 l 1,0,-1
958 952 m 1,4,-1
 614 671 l 1,5,6
 752 609 752 609 836 482 c 128,-1,7
 920 355 920 355 920 200 c 2,8,-1
 920 0 l 1,9,-1
 -53 0 l 1,10,-1
 -53 230 l 1,11,-1
 688 230 l 1,12,13
 678 333 678 333 602 406.5 c 128,-1,14
 526 480 526 480 422 487 c 1,15,-1
 166 287 l 1,16,-1
 19 461 l 1,17,-1
 809 1127 l 1,18,-1
 958 952 l 1,4,-1
EndSplineSet
EndChar

StartChar: afii62966
Encoding: 64405 64405 139
Width: 1199
GlyphClass: 2
Flags: W
AnchorPoint: "Anchor-3" 495 -495 basechar 0
AnchorPoint: "Anchor-2" 270 1230 basechar 0
LayerCount: 2
Fore
SplineSet
712 1018 m 1,0,-1
 411 764 l 1,1,-1
 316 872 l 1,2,-1
 617 1126 l 1,3,-1
 712 1018 l 1,0,-1
1230 0 m 1,4,-1
 -59 0 l 1,5,-1
 -59 230 l 1,6,-1
 799 230 l 1,7,8
 789 333 789 333 712.5 406.5 c 128,-1,9
 636 480 636 480 533 487 c 1,10,-1
 277 287 l 1,11,-1
 129 459 l 1,12,-1
 920 1126 l 1,13,-1
 1068 951 l 1,14,-1
 726 671 l 1,15,16
 856 612 856 612 938.5 494 c 128,-1,17
 1021 376 1021 376 1029 230 c 1,18,-1
 1230 230 l 1,19,-1
 1230 0 l 1,4,-1
EndSplineSet
EndChar

StartChar: afii57555
Encoding: 1740 1740 140
Width: 1197
GlyphClass: 2
Flags: W
AnchorPoint: "Anchor-3" 630 -885 basechar 0
AnchorPoint: "Anchor-2" 525 870 basechar 0
LayerCount: 2
Fore
SplineSet
1197 429 m 1,0,1
 903 429 903 429 839 230 c 1,2,-1
 1171 230 l 1,3,-1
 1171 30 l 2,4,5
 1171 -183 1171 -183 1019.5 -334 c 128,-1,6
 868 -485 868 -485 656 -485 c 0,7,8
 443 -485 443 -485 292 -334 c 128,-1,9
 141 -183 141 -183 141 30 c 0,10,11
 141 225 141 225 289 393 c 1,12,-1
 458 240 l 1,13,14
 370 137 370 137 370 30 c 0,15,16
 370 -88 370 -88 454 -172 c 128,-1,17
 538 -256 538 -256 656 -256 c 0,18,19
 766 -256 766 -256 847 -182 c 128,-1,20
 928 -108 928 -108 939 0 c 1,21,-1
 596 0 l 1,22,-1
 596 143 l 2,23,24
 596 363 596 363 759 509 c 0,25,26
 928 658 928 658 1197 658 c 1,27,-1
 1197 429 l 1,0,1
EndSplineSet
Substitution2: "'medi' Medial Forms in Arabic lookup 3 subtable" afii62832
Substitution2: "'fina' Terminal Forms in Arabic lookup 2 subtable" afii52364
Substitution2: "'init' Initial Forms in Arabic lookup 1 subtable" uniFBFE
EndChar

StartChar: afii52364
Encoding: 64509 64509 141
Width: 1341
GlyphClass: 2
Flags: W
AnchorPoint: "Anchor-3" 630 -840 basechar 0
AnchorPoint: "Anchor-2" 630 690 basechar 0
LayerCount: 2
Fore
SplineSet
1371 0 m 1,0,-1
 1170 0 l 1,1,2
 1158 -203 1158 -203 1009.5 -344 c 128,-1,3
 861 -485 861 -485 656 -485 c 0,4,5
 443 -485 443 -485 292 -334 c 128,-1,6
 141 -183 141 -183 141 30 c 0,7,8
 141 225 141 225 289 393 c 1,9,-1
 458 240 l 1,10,11
 370 137 370 137 370 30 c 0,12,13
 370 -88 370 -88 454 -172 c 128,-1,14
 538 -256 538 -256 656 -256 c 0,15,16
 766 -256 766 -256 847 -182 c 128,-1,17
 928 -108 928 -108 939 0 c 1,18,-1
 626 0 l 1,19,-1
 626 230 l 1,20,-1
 1371 230 l 1,21,-1
 1371 0 l 1,0,-1
EndSplineSet
EndChar

StartChar: afii62945
Encoding: 65557 -1 147
Width: 2066
GlyphClass: 3
Flags: W
LayerCount: 2
Fore
SplineSet
2066 0 m 1,0,-1
 1673 0 l 2,1,2
 1532 0 1532 0 1419 64 c 1,3,-1
 1419 0 l 1,4,-1
 1062 0 l 2,5,6
 891 0 891 0 755 102 c 128,-1,7
 619 204 619 204 570 364 c 0,8,9
 548 436 548 436 473 436 c 0,10,11
 429 436 429 436 398.5 406.5 c 128,-1,12
 368 377 368 377 368 334 c 256,13,14
 368 291 368 291 398.5 260.5 c 128,-1,15
 429 230 429 230 473 230 c 2,16,-1
 634 230 l 1,17,-1
 634 0 l 1,18,-1
 484 0 l 2,19,20
 344 0 344 0 242.5 95 c 128,-1,21
 141 190 141 190 141 334 c 0,22,23
 141 471 141 471 238 568 c 128,-1,24
 335 665 335 665 473 665 c 0,25,26
 627 665 627 665 715 552 c 1,27,28
 779 447 779 447 843 343 c 1,29,30
 924 230 924 230 1062 230 c 2,31,-1
 1189 230 l 1,32,-1
 1189 766 l 1,33,-1
 1419 766 l 1,34,-1
 1419 484 l 2,35,36
 1419 366 1419 366 1487 298 c 128,-1,37
 1555 230 1555 230 1673 230 c 2,38,-1
 1836 230 l 1,39,-1
 1836 962 l 1,40,-1
 2066 962 l 1,41,-1
 2066 0 l 1,0,-1
EndSplineSet
EndChar

StartChar: afii64184
Encoding: 65010 65010 148
Width: 2066
GlyphClass: 3
Flags: W
AnchorPoint: "Anchor-1" 1905 -360 baselig 0
AnchorPoint: "Anchor-0" 1935 1110 baselig 0
AnchorPoint: "Anchor-1" 1245 -360 baselig 1
AnchorPoint: "Anchor-0" 1275 885 baselig 1
AnchorPoint: "Anchor-1" 480 -345 baselig 2
AnchorPoint: "Anchor-0" 420 795 baselig 2
LayerCount: 2
Fore
SplineSet
1355 1177 m 1,0,-1
 1235 1177 l 1,1,-1
 1235 1504 l 1,2,-1
 1355 1504 l 1,3,-1
 1355 1177 l 1,0,-1
1503 842 m 1,4,-1
 1420 842 l 2,5,6
 1370 842 1370 842 1327 865 c 1,7,8
 1306 843 1306 843 1243 842 c 0,9,10
 1159 842 1159 842 1104 892 c 0,11,12
 1046 947 1046 947 1046 1039 c 2,13,-1
 1046 1102 l 1,14,-1
 1150 1102 l 1,15,-1
 1150 1039 l 2,16,17
 1150 1008 1150 1008 1170.5 982 c 128,-1,18
 1191 956 1191 956 1222 949 c 1,19,-1
 1222 1102 l 1,20,-1
 1327 1102 l 1,21,-1
 1327 1039 l 2,22,23
 1327 1008 1327 1008 1347 982 c 128,-1,24
 1367 956 1367 956 1398 949 c 1,25,-1
 1398 1102 l 1,26,-1
 1503 1102 l 1,27,-1
 1503 842 l 1,4,-1
2066 0 m 1,28,-1
 1673 0 l 2,29,30
 1532 0 1532 0 1419 64 c 1,31,-1
 1419 0 l 1,32,-1
 1062 0 l 2,33,34
 891 0 891 0 755 102 c 128,-1,35
 619 204 619 204 570 364 c 0,36,37
 548 436 548 436 473 436 c 0,38,39
 429 436 429 436 398.5 406.5 c 128,-1,40
 368 377 368 377 368 334 c 256,41,42
 368 291 368 291 398.5 260.5 c 128,-1,43
 429 230 429 230 473 230 c 2,44,-1
 634 230 l 1,45,-1
 634 0 l 1,46,-1
 484 0 l 2,47,48
 344 0 344 0 242.5 95 c 128,-1,49
 141 190 141 190 141 334 c 0,50,51
 141 471 141 471 238 568 c 128,-1,52
 335 665 335 665 473 665 c 0,53,54
 627 665 627 665 715 552 c 1,55,56
 779 447 779 447 843 343 c 1,57,58
 924 230 924 230 1062 230 c 2,59,-1
 1189 230 l 1,60,-1
 1189 766 l 1,61,-1
 1419 766 l 1,62,-1
 1419 484 l 2,63,64
 1419 366 1419 366 1487 298 c 128,-1,65
 1555 230 1555 230 1673 230 c 2,66,-1
 1836 230 l 1,67,-1
 1836 962 l 1,68,-1
 2066 962 l 1,69,-1
 2066 0 l 1,28,-1
EndSplineSet
Ligature2: "'rlig' Required Ligatures in Arabic lookup 5 subtable" afii62817 afii62818 uniFC63 afii62828
Ligature2: "'rlig' Required Ligatures in Arabic lookup 5 subtable" afii62817 afii62818 afii57457 uni0670 afii62828
EndChar

StartChar: afii57415.001
Encoding: 1575 1575 162
Width: 455
GlyphClass: 2
Flags: W
AnchorPoint: "Anchor-3" 345 -330 basechar 0
AnchorPoint: "Anchor-2" 315 1245 basechar 0
LayerCount: 2
Fore
SplineSet
455 0 m 1,0,-1
 225 0 l 1,1,-1
 225 1087 l 1,2,-1
 455 1087 l 1,3,-1
 455 0 l 1,0,-1
EndSplineSet
Substitution2: "'fina' Terminal Forms in Arabic lookup 2 subtable" afii62760
EndChar

StartChar: afii62760.001
Encoding: 65558 -1 163
Width: 738
GlyphClass: 2
Flags: W
LayerCount: 2
Fore
SplineSet
768 0 m 1,0,-1
 679 0 l 2,1,2
 469 0 469 0 345 136 c 0,3,4
 225 268 225 268 225 484 c 2,5,-1
 225 1087 l 1,6,-1
 455 1087 l 1,7,-1
 455 484 l 2,8,9
 455 230 455 230 679 230 c 2,10,-1
 768 230 l 1,11,-1
 768 0 l 1,0,-1
EndSplineSet
EndChar

StartChar: afii57421
Encoding: 1581 1581 182
Width: 1171
GlyphClass: 2
Flags: W
AnchorPoint: "Anchor-3" 570 -1260 basechar 0
AnchorPoint: "Anchor-2" 645 990 basechar 0
LayerCount: 2
Fore
SplineSet
1171 -257 m 1,0,1
 1171 -490 1171 -490 1021 -645.5 c 128,-1,2
 871 -801 871 -801 656 -801 c 0,3,4
 443 -801 443 -801 292 -650 c 128,-1,5
 141 -499 141 -499 141 -286 c 256,6,7
 141 -73 141 -73 292 78.5 c 128,-1,8
 443 230 443 230 656 230 c 2,9,-1
 928 230 l 1,10,11
 900 318 900 318 825 374.5 c 128,-1,12
 750 431 750 431 656 431 c 2,13,-1
 313 430 l 1,14,-1
 313 659 l 1,15,-1
 656 659 l 2,16,17
 867 659 867 659 1019 508 c 128,-1,18
 1171 357 1171 357 1171 144 c 2,19,-1
 1171 0 l 1,20,-1
 656 0 l 2,21,22
 538 0 538 0 454 -84 c 128,-1,23
 370 -168 370 -168 370 -286 c 256,24,25
 370 -404 370 -404 454 -488 c 128,-1,26
 538 -572 538 -572 656 -572 c 0,27,28
 776 -572 776 -572 858.5 -483 c 128,-1,29
 941 -394 941 -394 941 -257 c 1,30,-1
 1171 -257 l 1,0,1
EndSplineSet
Substitution2: "'medi' Medial Forms in Arabic lookup 3 subtable" afii62775
Substitution2: "'fina' Terminal Forms in Arabic lookup 2 subtable" afii62776
Substitution2: "'init' Initial Forms in Arabic lookup 1 subtable" afii62774
EndChar

StartChar: afii62776
Encoding: 65186 65186 183
Width: 1394
GlyphClass: 2
Flags: W
AnchorPoint: "Anchor-3" 630 -1230 basechar 0
AnchorPoint: "Anchor-2" 630 1005 basechar 0
LayerCount: 2
Fore
SplineSet
1424 0 m 1,0,-1
 1335 0 l 2,1,2
 1249 0 1249 0 1171 37 c 1,3,-1
 1171 0 l 1,4,-1
 656 0 l 2,5,6
 538 0 538 0 454 -84 c 128,-1,7
 370 -168 370 -168 370 -286 c 256,8,9
 370 -404 370 -404 454 -488 c 128,-1,10
 538 -572 538 -572 656 -572 c 0,11,12
 776 -572 776 -572 858.5 -483 c 128,-1,13
 941 -394 941 -394 941 -257 c 1,14,-1
 1171 -257 l 1,15,16
 1171 -490 1171 -490 1021 -645.5 c 128,-1,17
 871 -801 871 -801 656 -801 c 0,18,19
 443 -801 443 -801 292 -650 c 128,-1,20
 141 -499 141 -499 141 -286 c 256,21,22
 141 -73 141 -73 292 78.5 c 128,-1,23
 443 230 443 230 656 230 c 2,24,-1
 928 230 l 1,25,26
 900 318 900 318 825 374.5 c 128,-1,27
 750 431 750 431 656 431 c 2,28,-1
 313 430 l 1,29,-1
 313 659 l 1,30,-1
 656 659 l 2,31,32
 939 659 939 659 1088 418 c 0,33,34
 1162 297 1162 297 1178 282 c 0,35,36
 1230 230 1230 230 1335 230 c 2,37,-1
 1424 230 l 1,38,-1
 1424 0 l 1,0,-1
EndSplineSet
EndChar

StartChar: afii62774
Encoding: 65187 65187 184
Width: 1077
GlyphClass: 2
Flags: W
AnchorPoint: "Anchor-3" 495 -435 basechar 0
AnchorPoint: "Anchor-2" 540 1110 basechar 0
LayerCount: 2
Fore
SplineSet
1077 0 m 1,0,-1
 -59 0 l 1,1,-1
 -59 230 l 1,2,-1
 835 230 l 1,3,4
 806 318 806 318 731.5 374 c 128,-1,5
 657 430 657 430 561 430 c 2,6,-1
 220 429 l 1,7,-1
 220 658 l 1,8,-1
 561 658 l 2,9,10
 774 658 774 658 925.5 507.5 c 128,-1,11
 1077 357 1077 357 1077 143 c 2,12,-1
 1077 0 l 1,0,-1
EndSplineSet
EndChar

StartChar: afii62775
Encoding: 65188 65188 185
Width: 1300
GlyphClass: 2
Flags: W
AnchorPoint: "Anchor-3" 525 -465 basechar 0
AnchorPoint: "Anchor-2" 540 930 basechar 0
LayerCount: 2
Fore
SplineSet
1329 0 m 1,0,-1
 1241 0 l 2,1,2
 1156 0 1156 0 1077 37 c 1,3,-1
 1077 0 l 1,4,-1
 -59 0 l 1,5,-1
 -59 230 l 1,6,-1
 835 230 l 1,7,8
 806 318 806 318 731.5 374.5 c 128,-1,9
 657 431 657 431 561 431 c 2,10,-1
 220 430 l 1,11,-1
 220 659 l 1,12,-1
 561 659 l 2,13,14
 846 659 846 659 994 418 c 0,15,16
 1068 297 1068 297 1083 282 c 0,17,18
 1135 230 1135 230 1241 230 c 2,19,-1
 1329 230 l 1,20,-1
 1329 0 l 1,0,-1
EndSplineSet
EndChar

StartChar: afii57423
Encoding: 1583 1583 190
Width: 1171
GlyphClass: 2
Flags: W
AnchorPoint: "Anchor-3" 600 -480 basechar 0
AnchorPoint: "Anchor-2" 495 1020 basechar 0
LayerCount: 2
Fore
SplineSet
1171 0 m 1,0,-1
 141 0 l 1,1,-1
 141 230 l 1,2,-1
 928 230 l 1,3,4
 900 318 900 318 825 374.5 c 128,-1,5
 750 431 750 431 656 431 c 2,6,-1
 313 430 l 1,7,-1
 313 659 l 1,8,-1
 656 659 l 2,9,10
 867 659 867 659 1019 508 c 128,-1,11
 1171 357 1171 357 1171 144 c 2,12,-1
 1171 0 l 1,0,-1
EndSplineSet
Substitution2: "'fina' Terminal Forms in Arabic lookup 2 subtable" afii62780
PairPos2: "'kern' Horizontal Kerning in Arabic lookup 0 subtable" afii57434 dx=0 dy=0 dh=0 dv=0 dx=0 dy=0 dh=-100 dv=0
PairPos2: "'kern' Horizontal Kerning in Arabic lookup 0 subtable" afii57433 dx=0 dy=0 dh=0 dv=0 dx=0 dy=0 dh=-100 dv=0
EndChar

StartChar: afii62780
Encoding: 65194 65194 191
Width: 1394
GlyphClass: 2
Flags: W
AnchorPoint: "Anchor-3" 585 -465 basechar 0
AnchorPoint: "Anchor-2" 555 990 basechar 0
LayerCount: 2
Fore
SplineSet
1424 0 m 1,0,-1
 1335 0 l 2,1,2
 1250 0 1250 0 1172 37 c 1,3,-1
 1172 0 l 1,4,-1
 141 0 l 1,5,-1
 141 230 l 1,6,-1
 929 230 l 1,7,8
 901 318 901 318 826 374.5 c 128,-1,9
 751 431 751 431 656 431 c 2,10,-1
 314 430 l 1,11,-1
 314 659 l 1,12,-1
 656 659 l 2,13,14
 940 659 940 659 1089 418 c 0,15,16
 1163 297 1163 297 1178 282 c 0,17,18
 1230 230 1230 230 1335 230 c 2,19,-1
 1424 230 l 1,20,-1
 1424 0 l 1,0,-1
EndSplineSet
PairPos2: "'kern' Horizontal Kerning in Arabic lookup 0 subtable" afii57434 dx=0 dy=0 dh=0 dv=0 dx=0 dy=0 dh=-100 dv=0
PairPos2: "'kern' Horizontal Kerning in Arabic lookup 0 subtable" afii57433 dx=0 dy=0 dh=0 dv=0 dx=0 dy=0 dh=-100 dv=0
EndChar

StartChar: afii57425
Encoding: 1585 1585 194
Width: 685
GlyphClass: 2
Flags: W
AnchorPoint: "Anchor-3" 360 -975 basechar 0
AnchorPoint: "Anchor-2" 495 1035 basechar 0
LayerCount: 2
Fore
SplineSet
685 30 m 2,0,1
 685 -186 685 -186 529.5 -335.5 c 128,-1,2
 374 -485 374 -485 141 -485 c 1,3,-1
 141 -256 l 1,4,5
 280 -256 280 -256 368.5 -173 c 128,-1,6
 457 -90 457 -90 457 30 c 2,7,-1
 457 658 l 1,8,-1
 685 658 l 1,9,-1
 685 30 l 2,0,1
EndSplineSet
Substitution2: "'fina' Terminal Forms in Arabic lookup 2 subtable" afii62782
PairPos2: "'kern' Horizontal Kerning in Arabic lookup 0 subtable" afii57415 dx=0 dy=0 dh=0 dv=0 dx=0 dy=0 dh=-50 dv=0
PairPos2: "'kern' Horizontal Kerning in Arabic lookup 0 subtable" uni0675 dx=0 dy=0 dh=0 dv=0 dx=0 dy=0 dh=-50 dv=0
PairPos2: "'kern' Horizontal Kerning in Arabic lookup 0 subtable" uni0672 dx=0 dy=0 dh=0 dv=0 dx=0 dy=0 dh=-50 dv=0
PairPos2: "'kern' Horizontal Kerning in Arabic lookup 0 subtable" afii57411 dx=0 dy=0 dh=0 dv=0 dx=0 dy=0 dh=-50 dv=0
EndChar

StartChar: afii62782
Encoding: 65198 65198 195
Width: 1000
GlyphClass: 2
Flags: W
AnchorPoint: "Anchor-3" 315 -930 basechar 0
AnchorPoint: "Anchor-2" 390 945 basechar 0
LayerCount: 2
Fore
SplineSet
1030 0 m 1,0,-1
 941 0 l 2,1,2
 803 0 803 0 685 85 c 1,3,-1
 685 30 l 2,4,5
 685 -186 685 -186 529.5 -335.5 c 128,-1,6
 374 -485 374 -485 141 -485 c 1,7,-1
 141 -256 l 1,8,9
 280 -256 280 -256 368.5 -173 c 128,-1,10
 457 -90 457 -90 457 30 c 2,11,-1
 457 658 l 1,12,-1
 685 658 l 1,13,-1
 685 515 l 2,14,15
 685 392 685 392 756.5 311 c 128,-1,16
 828 230 828 230 941 230 c 2,17,-1
 1030 230 l 1,18,-1
 1030 0 l 1,0,-1
EndSplineSet
PairPos2: "'kern' Horizontal Kerning in Arabic lookup 0 subtable" afii57415 dx=0 dy=0 dh=0 dv=0 dx=0 dy=0 dh=-100 dv=0
PairPos2: "'kern' Horizontal Kerning in Arabic lookup 0 subtable" afii62817 dx=0 dy=0 dh=0 dv=0 dx=0 dy=0 dh=-70 dv=0
PairPos2: "'kern' Horizontal Kerning in Arabic lookup 0 subtable" afii57443 dx=0 dy=0 dh=0 dv=0 dx=0 dy=0 dh=-70 dv=0
EndChar

StartChar: afii57427
Encoding: 1587 1587 198
Width: 2142
GlyphClass: 2
Flags: W
AnchorPoint: "Anchor-3" 1380 -705 basechar 0
AnchorPoint: "Anchor-2" 1470 1170 basechar 0
LayerCount: 2
Fore
SplineSet
2142 0 m 1,0,-1
 1942 0 l 2,1,2
 1786 0 1786 0 1656 87 c 1,3,-1
 1656 0 l 1,4,-1
 1456 0 l 2,5,6
 1300 0 1300 0 1171 87 c 1,7,-1
 1171 30 l 2,8,9
 1171 -183 1171 -183 1019.5 -334 c 128,-1,10
 868 -485 868 -485 656 -485 c 0,11,12
 443 -485 443 -485 292 -334 c 128,-1,13
 141 -183 141 -183 141 30 c 0,14,15
 141 246 141 246 296.5 396 c 128,-1,16
 452 546 452 546 685 546 c 1,17,-1
 685 317 l 1,18,19
 547 317 547 317 458.5 234 c 128,-1,20
 370 151 370 151 370 30 c 0,21,22
 370 -88 370 -88 454 -172 c 128,-1,23
 538 -256 538 -256 656 -256 c 256,24,25
 774 -256 774 -256 857.5 -172 c 128,-1,26
 941 -88 941 -88 941 30 c 2,27,-1
 941 658 l 1,28,-1
 1171 658 l 1,29,-1
 1171 515 l 2,30,31
 1171 406 1171 406 1245 324.5 c 128,-1,32
 1319 243 1319 243 1427 232 c 1,33,-1
 1427 658 l 1,34,-1
 1656 658 l 1,35,-1
 1656 515 l 2,36,37
 1656 405 1656 405 1730.5 324 c 128,-1,38
 1805 243 1805 243 1912 232 c 1,39,-1
 1912 658 l 1,40,-1
 2142 658 l 1,41,-1
 2142 0 l 1,0,-1
EndSplineSet
Substitution2: "'medi' Medial Forms in Arabic lookup 3 subtable" afii62785
Substitution2: "'fina' Terminal Forms in Arabic lookup 2 subtable" afii62786
Substitution2: "'init' Initial Forms in Arabic lookup 1 subtable" afii62784
EndChar

StartChar: afii62786
Encoding: 65202 65202 199
Width: 2457
GlyphClass: 2
Flags: W
AnchorPoint: "Anchor-3" 1200 -870 basechar 0
AnchorPoint: "Anchor-2" 1365 1110 basechar 0
LayerCount: 2
Fore
SplineSet
2486 0 m 1,0,-1
 2398 0 l 2,1,2
 2259 0 2259 0 2142 85 c 1,3,-1
 2142 0 l 1,4,-1
 1942 0 l 2,5,6
 1786 0 1786 0 1656 87 c 1,7,-1
 1656 0 l 1,8,-1
 1456 0 l 2,9,10
 1300 0 1300 0 1171 87 c 1,11,-1
 1171 30 l 2,12,13
 1171 -183 1171 -183 1019.5 -334 c 128,-1,14
 868 -485 868 -485 656 -485 c 0,15,16
 443 -485 443 -485 292 -334 c 128,-1,17
 141 -183 141 -183 141 30 c 0,18,19
 141 246 141 246 296.5 396 c 128,-1,20
 452 546 452 546 685 546 c 1,21,-1
 685 317 l 1,22,23
 547 317 547 317 458.5 234 c 128,-1,24
 370 151 370 151 370 30 c 0,25,26
 370 -88 370 -88 454 -172 c 128,-1,27
 538 -256 538 -256 656 -256 c 256,28,29
 774 -256 774 -256 857.5 -172 c 128,-1,30
 941 -88 941 -88 941 30 c 2,31,-1
 941 658 l 1,32,-1
 1171 658 l 1,33,-1
 1171 515 l 2,34,35
 1171 406 1171 406 1245 324.5 c 128,-1,36
 1319 243 1319 243 1427 232 c 1,37,-1
 1427 658 l 1,38,-1
 1656 658 l 1,39,-1
 1656 515 l 2,40,41
 1656 405 1656 405 1730.5 324 c 128,-1,42
 1805 243 1805 243 1912 232 c 1,43,-1
 1912 658 l 1,44,-1
 2142 658 l 1,45,-1
 2142 515 l 2,46,47
 2142 393 2142 393 2213.5 311.5 c 128,-1,48
 2285 230 2285 230 2398 230 c 2,49,-1
 2486 230 l 1,50,-1
 2486 0 l 1,0,-1
EndSplineSet
EndChar

StartChar: afii62784
Encoding: 65203 65203 200
Width: 1485
GlyphClass: 2
Flags: W
AnchorPoint: "Anchor-3" 630 -480 basechar 0
AnchorPoint: "Anchor-2" 870 990 basechar 0
LayerCount: 2
Fore
SplineSet
1485 0 m 1,0,-1
 1285 0 l 2,1,2
 1129 0 1129 0 999 87 c 1,3,-1
 999 0 l 1,4,-1
 800 0 l 2,5,6
 643 0 643 0 514 87 c 1,7,-1
 514 0 l 1,8,-1
 -59 0 l 1,9,-1
 -59 230 l 1,10,-1
 285 230 l 1,11,-1
 285 658 l 1,12,-1
 514 658 l 1,13,-1
 514 515 l 2,14,15
 514 405 514 405 588.5 324 c 128,-1,16
 663 243 663 243 770 232 c 1,17,-1
 770 658 l 1,18,-1
 999 658 l 1,19,-1
 999 515 l 2,20,21
 999 405 999 405 1073.5 324 c 128,-1,22
 1148 243 1148 243 1255 232 c 1,23,-1
 1255 658 l 1,24,-1
 1485 658 l 1,25,-1
 1485 0 l 1,0,-1
EndSplineSet
EndChar

StartChar: afii62785
Encoding: 65204 65204 201
Width: 1800
GlyphClass: 2
Flags: W
AnchorPoint: "Anchor-3" 795 -540 basechar 0
AnchorPoint: "Anchor-2" 825 1035 basechar 0
LayerCount: 2
Fore
SplineSet
1829 0 m 1,0,-1
 1741 0 l 2,1,2
 1602 0 1602 0 1485 85 c 1,3,-1
 1485 0 l 1,4,-1
 1285 0 l 2,5,6
 1129 0 1129 0 999 87 c 1,7,-1
 999 0 l 1,8,-1
 800 0 l 2,9,10
 643 0 643 0 514 87 c 1,11,-1
 514 0 l 1,12,-1
 -59 0 l 1,13,-1
 -59 230 l 1,14,-1
 285 230 l 1,15,-1
 285 658 l 1,16,-1
 514 658 l 1,17,-1
 514 515 l 2,18,19
 514 405 514 405 588.5 324 c 128,-1,20
 663 243 663 243 770 232 c 1,21,-1
 770 658 l 1,22,-1
 999 658 l 1,23,-1
 999 515 l 2,24,25
 999 405 999 405 1073.5 324 c 128,-1,26
 1148 243 1148 243 1255 232 c 1,27,-1
 1255 658 l 1,28,-1
 1485 658 l 1,29,-1
 1485 515 l 2,30,31
 1485 392 1485 392 1557 311 c 128,-1,32
 1629 230 1629 230 1741 230 c 2,33,-1
 1829 230 l 1,34,-1
 1829 0 l 1,0,-1
EndSplineSet
EndChar

StartChar: afii57429
Encoding: 1589 1589 206
Width: 2311
GlyphClass: 2
Flags: W
AnchorPoint: "Anchor-3" 1005 -810 basechar 0
AnchorPoint: "Anchor-2" 1305 1110 basechar 0
LayerCount: 2
Fore
SplineSet
2311 0 m 1,0,-1
 1426 0 l 2,1,2
 1278 0 1278 0 1171 80 c 1,3,-1
 1171 30 l 2,4,5
 1171 -183 1171 -183 1019.5 -334 c 128,-1,6
 868 -485 868 -485 656 -485 c 0,7,8
 443 -485 443 -485 292 -334 c 128,-1,9
 141 -183 141 -183 141 30 c 0,10,11
 141 246 141 246 296.5 396 c 128,-1,12
 452 546 452 546 685 546 c 1,13,-1
 685 317 l 1,14,15
 547 317 547 317 458.5 234 c 128,-1,16
 370 151 370 151 370 30 c 0,17,18
 370 -88 370 -88 454 -172 c 128,-1,19
 538 -256 538 -256 656 -256 c 256,20,21
 774 -256 774 -256 857.5 -172 c 128,-1,22
 941 -88 941 -88 941 30 c 2,23,-1
 941 658 l 1,24,-1
 1171 658 l 1,25,-1
 1171 515 l 2,26,27
 1171 344 1171 344 1294 260 c 1,28,29
 1335 433 1335 433 1475.5 545.5 c 128,-1,30
 1616 658 1616 658 1795 658 c 0,31,32
 2008 658 2008 658 2159.5 506.5 c 128,-1,33
 2311 355 2311 355 2311 142 c 2,34,-1
 2311 0 l 1,0,-1
2068 230 m 1,35,36
 2040 318 2040 318 1964.5 373.5 c 128,-1,37
 1889 429 1889 429 1795 429 c 0,38,39
 1700 429 1700 429 1625.5 373.5 c 128,-1,40
 1551 318 1551 318 1523 230 c 1,41,-1
 2068 230 l 1,35,36
EndSplineSet
Substitution2: "'medi' Medial Forms in Arabic lookup 3 subtable" afii62791
Substitution2: "'fina' Terminal Forms in Arabic lookup 2 subtable" afii62792
Substitution2: "'init' Initial Forms in Arabic lookup 1 subtable" afii62790
EndChar

StartChar: afii62792
Encoding: 65210 65210 207
Width: 2533
GlyphClass: 2
Flags: W
AnchorPoint: "Anchor-3" 1125 -825 basechar 0
AnchorPoint: "Anchor-2" 1365 1020 basechar 0
LayerCount: 2
Fore
SplineSet
2563 0 m 1,0,-1
 2474 0 l 2,1,2
 2389 0 2389 0 2310 37 c 1,3,-1
 2310 0 l 1,4,-1
 1426 0 l 2,5,6
 1278 0 1278 0 1171 80 c 1,7,-1
 1171 30 l 2,8,9
 1171 -183 1171 -183 1019.5 -334 c 128,-1,10
 868 -485 868 -485 656 -485 c 0,11,12
 443 -485 443 -485 292 -334 c 128,-1,13
 141 -183 141 -183 141 30 c 0,14,15
 141 246 141 246 296.5 396 c 128,-1,16
 452 546 452 546 685 546 c 1,17,-1
 685 317 l 1,18,19
 547 317 547 317 458.5 234 c 128,-1,20
 370 151 370 151 370 30 c 0,21,22
 370 -88 370 -88 454 -172 c 128,-1,23
 538 -256 538 -256 656 -256 c 256,24,25
 774 -256 774 -256 857.5 -172 c 128,-1,26
 941 -88 941 -88 941 30 c 2,27,-1
 941 658 l 1,28,-1
 1171 658 l 1,29,-1
 1171 515 l 2,30,31
 1171 344 1171 344 1294 260 c 1,32,33
 1335 433 1335 433 1475.5 546 c 128,-1,34
 1616 659 1616 659 1795 659 c 0,35,36
 2079 659 2079 659 2227 418 c 0,37,38
 2301 297 2301 297 2317 282 c 0,39,40
 2369 230 2369 230 2474 230 c 2,41,-1
 2563 230 l 1,42,-1
 2563 0 l 1,0,-1
2068 230 m 1,43,44
 2040 318 2040 318 1964.5 374 c 128,-1,45
 1889 430 1889 430 1795 430 c 0,46,47
 1700 430 1700 430 1625.5 374 c 128,-1,48
 1551 318 1551 318 1523 230 c 1,49,-1
 2068 230 l 1,43,44
EndSplineSet
EndChar

StartChar: afii62790
Encoding: 65211 65211 208
Width: 1654
GlyphClass: 2
Flags: W
AnchorPoint: "Anchor-3" 690 -585 basechar 0
AnchorPoint: "Anchor-2" 840 1110 basechar 0
LayerCount: 2
Fore
SplineSet
1654 0 m 1,0,-1
 769 0 l 2,1,2
 621 0 621 0 514 79 c 1,3,-1
 514 0 l 1,4,-1
 -59 0 l 1,5,-1
 -59 230 l 1,6,-1
 285 230 l 1,7,-1
 285 658 l 1,8,-1
 514 658 l 1,9,-1
 514 515 l 2,10,11
 514 344 514 344 637 260 c 1,12,13
 678 433 678 433 818 545.5 c 128,-1,14
 958 658 958 658 1138 658 c 0,15,16
 1351 658 1351 658 1502.5 506.5 c 128,-1,17
 1654 355 1654 355 1654 142 c 2,18,-1
 1654 0 l 1,0,-1
1411 230 m 1,19,20
 1383 318 1383 318 1308 373.5 c 128,-1,21
 1233 429 1233 429 1138 429 c 0,22,23
 1044 429 1044 429 969 373.5 c 128,-1,24
 894 318 894 318 866 230 c 1,25,-1
 1411 230 l 1,19,20
EndSplineSet
EndChar

StartChar: afii62791
Encoding: 65212 65212 209
Width: 1877
GlyphClass: 2
Flags: W
AnchorPoint: "Anchor-3" 765 -600 basechar 0
AnchorPoint: "Anchor-2" 795 1080 basechar 0
LayerCount: 2
Fore
SplineSet
1906 0 m 1,0,-1
 1818 0 l 2,1,2
 1732 0 1732 0 1653 37 c 1,3,-1
 1653 0 l 1,4,-1
 769 0 l 2,5,6
 621 0 621 0 514 79 c 1,7,-1
 514 0 l 1,8,-1
 -59 0 l 1,9,-1
 -59 230 l 1,10,-1
 285 230 l 1,11,-1
 285 658 l 1,12,-1
 514 658 l 1,13,-1
 514 515 l 2,14,15
 514 344 514 344 637 260 c 1,16,17
 678 433 678 433 818 546 c 128,-1,18
 958 659 958 659 1138 659 c 0,19,20
 1422 659 1422 659 1570 418 c 0,21,22
 1644 297 1644 297 1660 282 c 0,23,24
 1712 230 1712 230 1818 230 c 2,25,-1
 1906 230 l 1,26,-1
 1906 0 l 1,0,-1
1411 230 m 1,27,28
 1383 318 1383 318 1308 374 c 128,-1,29
 1233 430 1233 430 1138 430 c 0,30,31
 1044 430 1044 430 969 374 c 128,-1,32
 894 318 894 318 866 230 c 1,33,-1
 1411 230 l 1,27,28
EndSplineSet
EndChar

StartChar: afii57431
Encoding: 1591 1591 214
Width: 1339
GlyphClass: 2
Flags: W
AnchorPoint: "Anchor-3" 645 -480 basechar 0
AnchorPoint: "Anchor-2" 870 1110 basechar 0
LayerCount: 2
Fore
SplineSet
1339 0 m 1,0,-1
 455 0 l 2,1,2
 255 0 255 0 134 144 c 1,3,-1
 254 327 l 1,4,5
 289 285 289 285 314 266 c 1,6,-1
 314 1087 l 1,7,-1
 544 1087 l 1,8,-1
 544 575 l 1,9,10
 666 658 666 658 824 658 c 0,11,12
 1037 658 1037 658 1188 506.5 c 128,-1,13
 1339 355 1339 355 1339 142 c 2,14,-1
 1339 0 l 1,0,-1
1097 230 m 1,15,16
 1069 318 1069 318 994 373.5 c 128,-1,17
 919 429 919 429 824 429 c 0,18,19
 730 429 730 429 655 373.5 c 128,-1,20
 580 318 580 318 552 230 c 1,21,-1
 1097 230 l 1,15,16
EndSplineSet
Substitution2: "'medi' Medial Forms in Arabic lookup 3 subtable" afii62797
Substitution2: "'fina' Terminal Forms in Arabic lookup 2 subtable" afii62798
Substitution2: "'init' Initial Forms in Arabic lookup 1 subtable" afii62796
EndChar

StartChar: afii62798
Encoding: 65218 65218 215
Width: 1563
GlyphClass: 2
Flags: W
AnchorPoint: "Anchor-3" 675 -525 basechar 0
AnchorPoint: "Anchor-2" 990 975 basechar 0
LayerCount: 2
Fore
SplineSet
1592 0 m 1,0,-1
 1504 0 l 2,1,2
 1418 0 1418 0 1339 37 c 1,3,-1
 1339 0 l 1,4,-1
 455 0 l 2,5,6
 255 0 255 0 134 144 c 1,7,-1
 254 327 l 1,8,9
 289 285 289 285 314 266 c 1,10,-1
 314 1087 l 1,11,-1
 544 1087 l 1,12,-1
 544 575 l 1,13,14
 667 659 667 659 824 659 c 0,15,16
 1108 659 1108 659 1256 418 c 0,17,18
 1330 297 1330 297 1346 282 c 0,19,20
 1398 230 1398 230 1504 230 c 2,21,-1
 1592 230 l 1,22,-1
 1592 0 l 1,0,-1
1097 230 m 1,23,24
 1069 318 1069 318 994 374 c 128,-1,25
 919 430 919 430 824 430 c 0,26,27
 730 430 730 430 655 374 c 128,-1,28
 580 318 580 318 551 230 c 1,29,-1
 1097 230 l 1,23,24
EndSplineSet
EndChar

StartChar: afii62796
Encoding: 65219 65219 216
Width: 1166
GlyphClass: 2
Flags: W
AnchorPoint: "Anchor-3" 570 -465 basechar 0
AnchorPoint: "Anchor-2" 765 1095 basechar 0
LayerCount: 2
Fore
SplineSet
1166 0 m 1,0,-1
 -59 0 l 1,1,-1
 -59 230 l 1,2,-1
 141 230 l 1,3,-1
 141 1087 l 1,4,-1
 370 1087 l 1,5,-1
 370 575 l 1,6,7
 492 658 492 658 651 658 c 0,8,9
 864 658 864 658 1015 506.5 c 128,-1,10
 1166 355 1166 355 1166 142 c 2,11,-1
 1166 0 l 1,0,-1
924 230 m 1,12,13
 896 318 896 318 820.5 373.5 c 128,-1,14
 745 429 745 429 651 429 c 0,15,16
 556 429 556 429 481.5 373.5 c 128,-1,17
 407 318 407 318 379 230 c 1,18,-1
 924 230 l 1,12,13
EndSplineSet
EndChar

StartChar: afii62797
Encoding: 65220 65220 217
Width: 1389
GlyphClass: 2
Flags: W
AnchorPoint: "Anchor-3" 465 -510 basechar 0
AnchorPoint: "Anchor-2" 780 1095 basechar 0
LayerCount: 2
Fore
SplineSet
1419 0 m 1,0,-1
 1330 0 l 2,1,2
 1245 0 1245 0 1166 37 c 1,3,-1
 1166 0 l 1,4,-1
 -59 0 l 1,5,-1
 -59 230 l 1,6,-1
 141 230 l 1,7,-1
 141 1087 l 1,8,-1
 370 1087 l 1,9,-1
 370 575 l 1,10,11
 493 659 493 659 651 659 c 0,12,13
 934 659 934 659 1083 418 c 0,14,15
 1157 297 1157 297 1173 282 c 0,16,17
 1225 230 1225 230 1330 230 c 2,18,-1
 1419 230 l 1,19,-1
 1419 0 l 1,0,-1
924 230 m 1,20,21
 896 318 896 318 820.5 374 c 128,-1,22
 745 430 745 430 651 430 c 0,23,24
 556 430 556 430 481.5 374 c 128,-1,25
 407 318 407 318 378 230 c 1,26,-1
 924 230 l 1,20,21
EndSplineSet
EndChar

StartChar: afii57433
Encoding: 1593 1593 222
Width: 1171
GlyphClass: 2
Flags: W
AnchorPoint: "Anchor-3" 555 -1155 basechar 0
AnchorPoint: "Anchor-2" 450 900 basechar 0
LayerCount: 2
Fore
SplineSet
1171 -257 m 1,0,1
 1171 -490 1171 -490 1021 -645.5 c 128,-1,2
 871 -801 871 -801 656 -801 c 0,3,4
 443 -801 443 -801 292 -649.5 c 128,-1,5
 141 -498 141 -498 141 -285 c 0,6,7
 141 -39 141 -39 333 115 c 1,8,9
 141 270 141 270 141 516 c 2,10,-1
 141 659 l 1,11,-1
 788 659 l 1,12,-1
 788 430 l 1,13,-1
 382 430 l 1,14,15
 411 341 411 341 485.5 285.5 c 128,-1,16
 560 230 560 230 656 230 c 2,17,-1
 788 230 l 1,18,-1
 788 0 l 1,19,-1
 656 0 l 2,20,21
 538 0 538 0 454 -84 c 128,-1,22
 370 -168 370 -168 370 -286 c 256,23,24
 370 -404 370 -404 454 -488 c 128,-1,25
 538 -572 538 -572 656 -572 c 0,26,27
 776 -572 776 -572 858.5 -483 c 128,-1,28
 941 -394 941 -394 941 -257 c 1,29,-1
 1171 -257 l 1,0,1
EndSplineSet
Substitution2: "'medi' Medial Forms in Arabic lookup 3 subtable" afii62803
Substitution2: "'fina' Terminal Forms in Arabic lookup 2 subtable" afii62804
Substitution2: "'init' Initial Forms in Arabic lookup 1 subtable" afii62802
EndChar

StartChar: afii62804
Encoding: 65226 65226 223
Width: 1168
GlyphClass: 2
Flags: W
AnchorPoint: "Anchor-3" 510 -1140 basechar 0
AnchorPoint: "Anchor-2" 600 855 basechar 0
LayerCount: 2
Fore
SplineSet
1197 0 m 1,0,-1
 656 0 l 2,1,2
 538 0 538 0 454 -84 c 128,-1,3
 370 -168 370 -168 370 -286 c 256,4,5
 370 -404 370 -404 454 -488 c 128,-1,6
 538 -572 538 -572 656 -572 c 0,7,8
 776 -572 776 -572 858.5 -483 c 128,-1,9
 941 -394 941 -394 941 -257 c 1,10,-1
 1171 -257 l 1,11,12
 1171 -490 1171 -490 1021 -645.5 c 128,-1,13
 871 -801 871 -801 656 -801 c 0,14,15
 443 -801 443 -801 292 -650 c 128,-1,16
 141 -499 141 -499 141 -286 c 0,17,18
 141 -134 141 -134 224 -6 c 0,19,20
 303 118 303 118 435 181 c 1,21,22
 314 318 314 318 314 482 c 2,23,-1
 314 658 l 1,24,-1
 997 658 l 1,25,-1
 997 482 l 2,26,27
 997 357 997 357 914 230 c 1,28,-1
 1197 230 l 1,29,-1
 1197 0 l 1,0,-1
763 429 m 1,30,-1
 547 429 l 1,31,32
 566 350 566 350 656 286 c 1,33,34
 746 351 746 351 763 429 c 1,30,-1
EndSplineSet
EndChar

StartChar: afii62802
Encoding: 65227 65227 224
Width: 785
GlyphClass: 2
Flags: W
AnchorPoint: "Anchor-3" 375 -540 basechar 0
AnchorPoint: "Anchor-2" 420 1005 basechar 0
LayerCount: 2
Fore
SplineSet
785 0 m 1,0,-1
 -59 0 l 1,1,-1
 -59 230 l 1,2,-1
 224 230 l 1,3,4
 138 358 138 358 138 516 c 2,5,-1
 138 659 l 1,6,-1
 785 659 l 1,7,-1
 785 430 l 1,8,-1
 379 430 l 1,9,10
 407 342 407 342 482 286 c 128,-1,11
 557 230 557 230 652 230 c 2,12,-1
 785 230 l 1,13,-1
 785 0 l 1,0,-1
EndSplineSet
EndChar

StartChar: afii62803
Encoding: 65228 65228 225
Width: 994
GlyphClass: 2
Flags: W
AnchorPoint: "Anchor-3" 465 -480 basechar 0
AnchorPoint: "Anchor-2" 450 915 basechar 0
LayerCount: 2
Fore
SplineSet
1024 0 m 1,0,-1
 652 0 l 2,1,2
 564 0 564 0 482 29 c 1,3,4
 400 0 400 0 312 0 c 2,5,-1
 -59 0 l 1,6,-1
 -59 230 l 1,7,-1
 224 230 l 1,8,9
 141 355 141 355 141 482 c 2,10,-1
 141 658 l 1,11,-1
 824 658 l 1,12,-1
 824 482 l 2,13,14
 824 357 824 357 740 230 c 1,15,-1
 1024 230 l 1,16,-1
 1024 0 l 1,0,-1
590 429 m 1,17,-1
 374 429 l 1,18,19
 393 350 393 350 482 286 c 1,20,21
 573 351 573 351 590 429 c 1,17,-1
EndSplineSet
EndChar

StartChar: afii57443
Encoding: 1603 1603 238
Width: 1741
GlyphClass: 2
Flags: W
AnchorPoint: "Anchor-3" 900 -435 basechar 0
AnchorPoint: "Anchor-2" 840 1095 basechar 0
LayerCount: 2
Fore
SplineSet
1714 0 m 1,0,-1
 656 0 l 2,1,2
 443 0 443 0 292 151 c 0,3,4
 141 303 141 303 141 515 c 0,5,6
 141 723 141 723 304 893 c 1,7,-1
 469 735 l 1,8,9
 370 631 370 631 370 515 c 0,10,11
 370 397 370 397 454 313 c 0,12,13
 538 230 538 230 656 230 c 2,14,-1
 1485 230 l 1,15,-1
 1485 1087 l 1,16,-1
 1714 1087 l 1,17,-1
 1714 0 l 1,0,-1
1185 688 m 1,18,-1
 755 688 l 1,19,-1
 755 783 l 1,20,-1
 872 783 l 1,21,22
 839 843 839 843 839 911 c 2,23,-1
 839 938 l 1,24,-1
 1130 938 l 1,25,-1
 1130 844 l 1,26,-1
 967 844 l 1,27,28
 1002 783 1002 783 1082 783 c 2,29,-1
 1185 783 l 1,30,-1
 1185 688 l 1,18,-1
EndSplineSet
Substitution2: "'medi' Medial Forms in Arabic lookup 3 subtable" afii52306
Substitution2: "'fina' Terminal Forms in Arabic lookup 2 subtable" afii62816
Substitution2: "'init' Initial Forms in Arabic lookup 1 subtable" afii52305
EndChar

StartChar: afii62816
Encoding: 65242 65242 239
Width: 1911
GlyphClass: 2
Flags: W
AnchorPoint: "Anchor-3" 870 -540 basechar 0
AnchorPoint: "Anchor-2" 840 1125 basechar 0
LayerCount: 2
Fore
SplineSet
454 313 m 0,0,1
 538 230 538 230 656 230 c 2,2,-1
 1402 230 l 1,3,-1
 1402 1087 l 1,4,-1
 1631 1087 l 1,5,-1
 1631 484 l 2,6,7
 1631 230 1631 230 1855 230 c 2,8,-1
 1944 230 l 1,9,-1
 1944 0 l 1,10,-1
 1855 0 l 2,11,12
 1731 0 1731 0 1631 62 c 1,13,-1
 1631 0 l 1,14,-1
 656 0 l 2,15,16
 443 0 443 0 292 151 c 0,17,18
 141 303 141 303 141 515 c 0,19,20
 141 723 141 723 304 893 c 1,21,-1
 469 735 l 1,22,23
 370 631 370 631 370 515 c 0,24,25
 370 397 370 397 454 313 c 0,0,1
1141 711 m 1,26,-1
 711 711 l 1,27,-1
 711 806 l 1,28,-1
 828 806 l 1,29,30
 795 866 795 866 795 934 c 2,31,-1
 795 961 l 1,32,-1
 1086 961 l 1,33,-1
 1086 867 l 1,34,-1
 923 867 l 1,35,36
 958 806 958 806 1038 806 c 2,37,-1
 1141 806 l 1,38,-1
 1141 711 l 1,26,-1
EndSplineSet
EndChar

StartChar: afii57444
Encoding: 1604 1604 242
Width: 1171
GlyphClass: 2
Flags: W
AnchorPoint: "Anchor-3" 645 -900 basechar 0
AnchorPoint: "Anchor-2" 825 1260 basechar 0
LayerCount: 2
Fore
SplineSet
1171 30 m 2,0,1
 1171 -183 1171 -183 1019.5 -334 c 128,-1,2
 868 -485 868 -485 656 -485 c 0,3,4
 443 -485 443 -485 292 -334 c 128,-1,5
 141 -183 141 -183 141 30 c 0,6,7
 141 246 141 246 296.5 396 c 128,-1,8
 452 546 452 546 685 546 c 1,9,-1
 685 317 l 1,10,11
 547 317 547 317 458.5 234 c 128,-1,12
 370 151 370 151 370 30 c 0,13,14
 370 -88 370 -88 454 -172 c 128,-1,15
 538 -256 538 -256 656 -256 c 256,16,17
 774 -256 774 -256 857.5 -172 c 128,-1,18
 941 -88 941 -88 941 30 c 2,19,-1
 941 1087 l 1,20,-1
 1171 1087 l 1,21,-1
 1171 30 l 2,0,1
EndSplineSet
Substitution2: "'medi' Medial Forms in Arabic lookup 3 subtable" afii62818
Substitution2: "'fina' Terminal Forms in Arabic lookup 2 subtable" afii62819
Substitution2: "'init' Initial Forms in Arabic lookup 1 subtable" afii62817
EndChar

StartChar: afii62817
Encoding: 65247 65247 243
Width: 514
GlyphClass: 2
Flags: W
AnchorPoint: "Anchor-3" 285 -540 basechar 0
AnchorPoint: "Anchor-2" 300 1320 basechar 0
LayerCount: 2
Fore
SplineSet
514 0 m 1,0,-1
 -59 0 l 1,1,-1
 -59 230 l 1,2,-1
 285 230 l 1,3,-1
 285 1087 l 1,4,-1
 514 1087 l 1,5,-1
 514 0 l 1,0,-1
EndSplineSet
EndChar

StartChar: afii62818
Encoding: 65248 65248 244
Width: 798
GlyphClass: 2
Flags: W
AnchorPoint: "Anchor-3" 330 -405 basechar 0
AnchorPoint: "Anchor-2" 375 1260 basechar 0
LayerCount: 2
Fore
SplineSet
827 0 m 1,0,-1
 738 0 l 2,1,2
 614 0 614 0 514 62 c 1,3,-1
 514 0 l 1,4,-1
 -59 0 l 1,5,-1
 -59 230 l 1,6,-1
 285 230 l 1,7,-1
 285 1087 l 1,8,-1
 514 1087 l 1,9,-1
 514 484 l 2,10,11
 514 230 514 230 738 230 c 2,12,-1
 827 230 l 1,13,-1
 827 0 l 1,0,-1
EndSplineSet
EndChar

StartChar: afii57445
Encoding: 1605 1605 245
Width: 975
GlyphClass: 2
Flags: W
AnchorPoint: "Anchor-3" 510 -1080 basechar 0
AnchorPoint: "Anchor-2" 555 870 basechar 0
LayerCount: 2
Fore
SplineSet
975 0 m 1,0,-1
 656 0 l 2,1,2
 538 0 538 0 454 -84 c 128,-1,3
 370 -168 370 -168 370 -286 c 2,4,-1
 370 -801 l 1,5,-1
 141 -801 l 1,6,-1
 141 -286 l 2,7,8
 141 -154 141 -154 204 -39 c 0,9,10
 265 73 265 73 371 144 c 1,11,12
 311 229 311 229 311 334 c 0,13,14
 311 471 311 471 408.5 568 c 128,-1,15
 506 665 506 665 644 665 c 0,16,17
 777 665 777 665 874 572 c 0,18,19
 975 475 975 475 975 336 c 2,20,-1
 975 0 l 1,0,-1
745 230 m 1,21,-1
 745 334 l 2,22,23
 745 377 745 377 715.5 406.5 c 128,-1,24
 686 436 686 436 644 436 c 0,25,26
 600 436 600 436 570 406.5 c 128,-1,27
 540 377 540 377 540 334 c 256,28,29
 540 291 540 291 570.5 260.5 c 128,-1,30
 601 230 601 230 644 230 c 2,31,-1
 745 230 l 1,21,-1
EndSplineSet
Substitution2: "'medi' Medial Forms in Arabic lookup 3 subtable" afii62821
Substitution2: "'fina' Terminal Forms in Arabic lookup 2 subtable" afii62822
Substitution2: "'init' Initial Forms in Arabic lookup 1 subtable" afii62820
EndChar

StartChar: afii62822
Encoding: 65250 65250 246
Width: 1145
GlyphClass: 2
Flags: W
AnchorPoint: "Anchor-3" 825 -795 basechar 0
AnchorPoint: "Anchor-2" 600 930 basechar 0
LayerCount: 2
Fore
SplineSet
1175 0 m 1,0,-1
 656 0 l 2,1,2
 538 0 538 0 454 -84 c 128,-1,3
 370 -168 370 -168 370 -286 c 2,4,-1
 370 -801 l 1,5,-1
 141 -801 l 1,6,-1
 141 -286 l 2,7,8
 141 -154 141 -154 204 -39 c 0,9,10
 265 73 265 73 371 144 c 1,11,12
 311 229 311 229 311 334 c 0,13,14
 311 471 311 471 408.5 568 c 128,-1,15
 506 665 506 665 644 665 c 0,16,17
 777 665 777 665 874 572 c 0,18,19
 975 475 975 475 975 336 c 2,20,-1
 975 230 l 1,21,-1
 1175 230 l 1,22,-1
 1175 0 l 1,0,-1
745 230 m 1,23,-1
 745 334 l 2,24,25
 745 377 745 377 715.5 406.5 c 128,-1,26
 686 436 686 436 644 436 c 0,27,28
 600 436 600 436 570 406.5 c 128,-1,29
 540 377 540 377 540 334 c 256,30,31
 540 291 540 291 570.5 260.5 c 128,-1,32
 601 230 601 230 644 230 c 2,33,-1
 745 230 l 1,23,-1
EndSplineSet
EndChar

StartChar: afii62820
Encoding: 65251 65251 247
Width: 923
GlyphClass: 2
Flags: W
AnchorPoint: "Anchor-3" 465 -495 basechar 0
AnchorPoint: "Anchor-2" 450 945 basechar 0
LayerCount: 2
Fore
SplineSet
923 0 m 1,0,-1
 604 0 l 2,1,2
 435 0 435 0 335 125 c 1,3,4
 196 0 196 0 30 0 c 2,5,-1
 -59 0 l 1,6,-1
 -59 230 l 1,7,-1
 30 230 l 2,8,9
 212 230 212 230 274 433 c 0,10,11
 306 536 306 536 393 600.5 c 128,-1,12
 480 665 480 665 592 665 c 0,13,14
 725 665 725 665 822 572 c 0,15,16
 923 475 923 475 923 336 c 2,17,-1
 923 0 l 1,0,-1
693 230 m 1,18,-1
 693 334 l 2,19,20
 693 377 693 377 663.5 406.5 c 128,-1,21
 634 436 634 436 592 436 c 0,22,23
 548 436 548 436 517.5 406.5 c 128,-1,24
 487 377 487 377 487 334 c 256,25,26
 487 291 487 291 517.5 260.5 c 128,-1,27
 548 230 548 230 592 230 c 2,28,-1
 693 230 l 1,18,-1
EndSplineSet
EndChar

StartChar: afii57446
Encoding: 1606 1606 248
Width: 1171
GlyphClass: 2
Flags: W
AnchorPoint: "Anchor-3" 630 -915 basechar 0
AnchorPoint: "Anchor-2" 705 1125 basechar 0
LayerCount: 2
Fore
SplineSet
856 675 m 1,0,-1
 741 675 l 2,1,2
 694 675 694 675 660 708.5 c 128,-1,3
 626 742 626 742 626 789 c 256,4,5
 626 836 626 836 660 870 c 128,-1,6
 694 904 694 904 741 904 c 0,7,8
 789 904 789 904 822.5 870 c 128,-1,9
 856 836 856 836 856 789 c 2,10,-1
 856 675 l 1,0,-1
1171 30 m 2,11,12
 1171 -183 1171 -183 1019.5 -334 c 128,-1,13
 868 -485 868 -485 656 -485 c 0,14,15
 443 -485 443 -485 292 -334 c 128,-1,16
 141 -183 141 -183 141 30 c 0,17,18
 141 246 141 246 296.5 396 c 128,-1,19
 452 546 452 546 685 546 c 1,20,-1
 685 317 l 1,21,22
 547 317 547 317 458.5 234 c 128,-1,23
 370 151 370 151 370 30 c 0,24,25
 370 -88 370 -88 454 -172 c 128,-1,26
 538 -256 538 -256 656 -256 c 256,27,28
 774 -256 774 -256 857.5 -172 c 128,-1,29
 941 -88 941 -88 941 30 c 2,30,-1
 941 658 l 1,31,-1
 1171 658 l 1,32,-1
 1171 30 l 2,11,12
EndSplineSet
Substitution2: "'medi' Medial Forms in Arabic lookup 3 subtable" afii62824
Substitution2: "'fina' Terminal Forms in Arabic lookup 2 subtable" afii62825
Substitution2: "'init' Initial Forms in Arabic lookup 1 subtable" afii62823
EndChar

StartChar: afii62825
Encoding: 65254 65254 249
Width: 1454
GlyphClass: 2
Flags: W
AnchorPoint: "Anchor-3" 720 -870 basechar 0
AnchorPoint: "Anchor-2" 675 1080 basechar 0
LayerCount: 2
Fore
SplineSet
856 675 m 1,0,-1
 741 675 l 2,1,2
 694 675 694 675 660 708.5 c 128,-1,3
 626 742 626 742 626 789 c 256,4,5
 626 836 626 836 660 870 c 128,-1,6
 694 904 694 904 741 904 c 0,7,8
 789 904 789 904 822.5 870 c 128,-1,9
 856 836 856 836 856 789 c 2,10,-1
 856 675 l 1,0,-1
1484 0 m 1,11,-1
 1395 0 l 2,12,13
 1271 0 1271 0 1171 62 c 1,14,-1
 1171 30 l 2,15,16
 1171 -183 1171 -183 1019.5 -334 c 128,-1,17
 868 -485 868 -485 656 -485 c 0,18,19
 443 -485 443 -485 292 -334 c 128,-1,20
 141 -183 141 -183 141 30 c 0,21,22
 141 246 141 246 296.5 396 c 128,-1,23
 452 546 452 546 685 546 c 1,24,-1
 685 317 l 1,25,26
 547 317 547 317 458.5 234 c 128,-1,27
 370 151 370 151 370 30 c 0,28,29
 370 -88 370 -88 454 -172 c 128,-1,30
 538 -256 538 -256 656 -256 c 256,31,32
 774 -256 774 -256 857.5 -172 c 128,-1,33
 941 -88 941 -88 941 30 c 2,34,-1
 941 657 l 1,35,-1
 1171 657 l 1,36,-1
 1171 484 l 2,37,38
 1171 230 1171 230 1395 230 c 2,39,-1
 1484 230 l 1,40,-1
 1484 0 l 1,11,-1
EndSplineSet
EndChar

StartChar: afii62828
Encoding: 65258 65258 253
Width: 1092
GlyphClass: 2
Flags: W
AnchorPoint: "Anchor-3" 465 -405 basechar 0
AnchorPoint: "Anchor-2" 510 990 basechar 0
LayerCount: 2
Fore
SplineSet
1121 0 m 1,0,-1
 1033 0 l 2,1,2
 864 0 864 0 738 104 c 0,3,4
 620 201 620 201 570 364 c 0,5,6
 548 436 548 436 473 436 c 0,7,8
 429 436 429 436 398.5 406.5 c 128,-1,9
 368 377 368 377 368 334 c 256,10,11
 368 291 368 291 398.5 260.5 c 128,-1,12
 429 230 429 230 473 230 c 2,13,-1
 634 230 l 1,14,-1
 634 0 l 1,15,-1
 484 0 l 2,16,17
 344 0 344 0 242.5 95 c 128,-1,18
 141 190 141 190 141 334 c 0,19,20
 141 471 141 471 238 568 c 128,-1,21
 335 665 335 665 473 665 c 0,22,23
 580 665 580 665 669 599.5 c 128,-1,24
 758 534 758 534 791 431 c 0,25,26
 853 230 853 230 1033 230 c 2,27,-1
 1121 230 l 1,28,-1
 1121 0 l 1,0,-1
EndSplineSet
EndChar

StartChar: afii57448
Encoding: 1608 1608 254
Width: 805
GlyphClass: 2
Flags: W
AnchorPoint: "Anchor-3" 360 -900 basechar 0
AnchorPoint: "Anchor-2" 405 900 basechar 0
LayerCount: 2
Fore
SplineSet
805 30 m 2,0,1
 805 -186 805 -186 649 -335.5 c 128,-1,2
 493 -485 493 -485 260 -485 c 1,3,-1
 260 -256 l 1,4,5
 389 -256 389 -256 478 -182 c 0,6,7
 563 -110 563 -110 574 0 c 1,8,-1
 472 0 l 2,9,10
 335 0 335 0 238 99 c 128,-1,11
 141 198 141 198 141 335 c 0,12,13
 141 473 141 473 238 570.5 c 128,-1,14
 335 668 335 668 472 668 c 0,15,16
 615 668 615 668 712 565 c 0,17,18
 805 464 805 464 805 323 c 2,19,-1
 805 30 l 2,0,1
576 234 m 1,20,-1
 576 335 l 2,21,22
 576 379 576 379 545.5 409.5 c 128,-1,23
 515 440 515 440 472 440 c 256,24,25
 429 440 429 440 399.5 410 c 128,-1,26
 370 380 370 380 370 335 c 0,27,28
 370 293 370 293 399.5 263.5 c 128,-1,29
 429 234 429 234 472 234 c 2,30,-1
 576 234 l 1,20,-1
EndSplineSet
Substitution2: "'fina' Terminal Forms in Arabic lookup 2 subtable" afii62829
EndChar

StartChar: afii62829
Encoding: 65262 65262 255
Width: 976
GlyphClass: 2
Flags: W
AnchorPoint: "Anchor-3" 390 -900 basechar 0
AnchorPoint: "Anchor-2" 405 870 basechar 0
LayerCount: 2
Fore
SplineSet
1005 0 m 1,0,-1
 804 0 l 1,1,2
 793 -205 793 -205 639 -345 c 128,-1,3
 485 -485 485 -485 260 -485 c 1,4,-1
 260 -256 l 1,5,6
 389 -256 389 -256 478 -182 c 0,7,8
 563 -110 563 -110 574 0 c 1,9,-1
 472 0 l 2,10,11
 335 0 335 0 238 99 c 128,-1,12
 141 198 141 198 141 335 c 0,13,14
 141 473 141 473 238 570.5 c 128,-1,15
 335 668 335 668 472 668 c 0,16,17
 615 668 615 668 712 565 c 0,18,19
 805 464 805 464 805 323 c 2,20,-1
 805 230 l 1,21,-1
 1005 230 l 1,22,-1
 1005 0 l 1,0,-1
576 234 m 1,23,-1
 576 335 l 2,24,25
 576 379 576 379 545.5 409.5 c 128,-1,26
 515 440 515 440 472 440 c 256,27,28
 429 440 429 440 399.5 410 c 128,-1,29
 370 380 370 380 370 335 c 0,30,31
 370 293 370 293 399.5 263.5 c 128,-1,32
 429 234 429 234 472 234 c 2,33,-1
 576 234 l 1,23,-1
EndSplineSet
PairPos2: "'kern' Horizontal Kerning in Arabic lookup 0 subtable" afii57434 dx=0 dy=0 dh=0 dv=0 dx=0 dy=0 dh=-100 dv=0
PairPos2: "'kern' Horizontal Kerning in Arabic lookup 0 subtable" afii57433 dx=0 dy=0 dh=0 dv=0 dx=0 dy=0 dh=-100 dv=0
EndChar

StartChar: afii62840
Encoding: 65275 65275 268
Width: 810
GlyphClass: 3
Flags: W
AnchorPoint: "Anchor-1" 825 -435 baselig 0
AnchorPoint: "Anchor-0" 705 1230 baselig 0
AnchorPoint: "Anchor-1" 375 -450 baselig 1
AnchorPoint: "Anchor-0" 225 1275 baselig 1
LayerCount: 2
Fore
SplineSet
381 434 m 1,0,-1
 152 434 l 1,1,-1
 152 1087 l 1,2,-1
 381 1087 l 1,3,-1
 381 434 l 1,0,-1
810 -175 m 1,4,-1
 666 -175 l 2,5,6
 438 -175 438 -175 284 -3 c 0,7,8
 152 143 152 143 152 370 c 1,9,-1
 381 370 l 1,10,11
 381 256 381 256 436 176 c 128,-1,12
 491 96 491 96 580 67 c 1,13,-1
 580 1087 l 1,14,-1
 810 1087 l 1,15,-1
 810 -175 l 1,4,-1
EndSplineSet
Ligature2: "'rlig' Required Ligatures in Arabic lookup 6 subtable" afii62817 afii62760
Substitution2: "'fina' Terminal Forms in Arabic lookup 2 subtable" afii62841
PairPos2: "'kern' Horizontal Kerning in Arabic lookup 0 subtable" afii57434 dx=0 dy=0 dh=0 dv=0 dx=0 dy=0 dh=-200 dv=0
PairPos2: "'kern' Horizontal Kerning in Arabic lookup 0 subtable" afii57433 dx=0 dy=0 dh=0 dv=0 dx=0 dy=0 dh=-200 dv=0
EndChar

StartChar: afii62841
Encoding: 65276 65276 269
Width: 1083
GlyphClass: 3
Flags: W
AnchorPoint: "Anchor-1" 630 -540 baselig 0
AnchorPoint: "Anchor-0" 630 1230 baselig 0
AnchorPoint: "Anchor-1" 195 -540 baselig 1
AnchorPoint: "Anchor-0" 150 1215 baselig 1
LayerCount: 2
Fore
SplineSet
1112 0 m 1,0,-1
 1024 0 l 2,1,2
 885 0 885 0 768 85 c 1,3,-1
 768 -175 l 1,4,-1
 624 -175 l 2,5,6
 396 -175 396 -175 242 -3 c 0,7,8
 110 143 110 143 110 370 c 1,9,-1
 339 370 l 1,10,11
 339 256 339 256 394 176 c 128,-1,12
 449 96 449 96 538 67 c 1,13,-1
 538 1087 l 1,14,-1
 768 1087 l 1,15,-1
 768 515 l 2,16,17
 768 392 768 392 839 311 c 128,-1,18
 910 230 910 230 1024 230 c 2,19,-1
 1112 230 l 1,20,-1
 1112 0 l 1,0,-1
339 434 m 1,21,-1
 110 434 l 1,22,-1
 110 1087 l 1,23,-1
 339 1087 l 1,24,-1
 339 434 l 1,21,-1
EndSplineSet
Ligature2: "'rlig' Required Ligatures in Arabic lookup 6 subtable" afii62818 afii62760
EndChar

StartChar: afii59759
Encoding: 3663 3663 276
Width: 1233
GlyphClass: 2
Flags: W
LayerCount: 2
Fore
SplineSet
616 983 m 0,0,1
 823 983 823 983 969.5 836.5 c 128,-1,2
 1116 690 1116 690 1116 483 c 0,3,4
 1116 277 1116 277 969.5 130.5 c 128,-1,5
 823 -16 823 -16 616 -16 c 0,6,7
 410 -16 410 -16 263.5 130.5 c 128,-1,8
 117 277 117 277 117 483 c 0,9,10
 117 690 117 690 263.5 836.5 c 128,-1,11
 410 983 410 983 616 983 c 0,0,1
616 147 m 0,12,13
 758 147 758 147 849 242 c 128,-1,14
 940 337 940 337 940 483 c 256,15,16
 940 629 940 629 849 724 c 128,-1,17
 758 819 758 819 616 819 c 0,18,19
 475 819 475 819 384 724 c 128,-1,20
 293 629 293 629 293 483 c 256,21,22
 293 337 293 337 384 242 c 128,-1,23
 475 147 475 147 616 147 c 0,12,13
616 598 m 0,24,25
 664 598 664 598 697.5 565 c 128,-1,26
 731 532 731 532 731 485 c 256,27,28
 731 438 731 438 697.5 404.5 c 128,-1,29
 664 371 664 371 616 371 c 0,30,31
 569 371 569 371 535.5 404.5 c 128,-1,32
 502 438 502 438 502 485 c 256,33,34
 502 532 502 532 535.5 565 c 128,-1,35
 569 598 569 598 616 598 c 0,24,25
EndSplineSet
EndChar

StartChar: afii59760
Encoding: 3664 3664 277
Width: 1233
GlyphClass: 2
Flags: W
LayerCount: 2
Fore
SplineSet
616 924 m 0,0,1
 834 924 834 924 975 794.5 c 128,-1,2
 1116 665 1116 665 1116 453 c 0,3,4
 1116 242 1116 242 975 113 c 128,-1,5
 834 -16 834 -16 616 -16 c 0,6,7
 399 -16 399 -16 258 113 c 128,-1,8
 117 242 117 242 117 453 c 0,9,10
 117 665 117 665 258 794.5 c 128,-1,11
 399 924 399 924 616 924 c 0,0,1
616 150 m 0,12,13
 765 150 765 150 852.5 231 c 128,-1,14
 940 312 940 312 940 453 c 256,15,16
 940 594 940 594 852 677 c 128,-1,17
 764 760 764 760 616 760 c 0,18,19
 469 760 469 760 381 677 c 128,-1,20
 293 594 293 594 293 453 c 0,21,22
 293 310 293 310 381.5 230 c 128,-1,23
 470 150 470 150 616 150 c 0,12,13
EndSplineSet
EndChar

StartChar: glyph279
Encoding: 65559 -1 279
Width: 0
GlyphClass: 2
Flags: W
LayerCount: 2
Fore
SplineSet
36 1831 m 1,0,-1
 36 863 l 1,1,-1
 -36 863 l 1,2,-1
 -36 1831 l 1,3,-1
 36 1831 l 1,0,-1
36 543 m 1,4,-1
 36 -423 l 1,5,-1
 -36 -423 l 1,6,-1
 -36 543 l 1,7,-1
 36 543 l 1,4,-1
EndSplineSet
EndChar

StartChar: glyph280
Encoding: 65560 -1 280
Width: 0
GlyphClass: 2
Flags: W
LayerCount: 2
Fore
SplineSet
-234 -423 m 1,0,-1
 -234 -352 l 1,1,-1
 -36 -352 l 1,2,-1
 -36 1760 l 1,3,-1
 -234 1760 l 1,4,-1
 -234 1831 l 1,5,-1
 234 1831 l 1,6,-1
 234 1760 l 1,7,-1
 36 1760 l 1,8,-1
 36 -352 l 1,9,-1
 234 -352 l 1,10,-1
 234 -423 l 1,11,-1
 -234 -423 l 1,0,-1
EndSplineSet
EndChar

StartChar: glyph281
Encoding: 65561 -1 281
Width: 0
GlyphClass: 2
Flags: W
LayerCount: 2
Fore
SplineSet
224 1646 m 1,0,-1
 36 1504 l 1,1,-1
 36 -423 l 1,2,-1
 -36 -423 l 1,3,-1
 -36 1831 l 1,4,-1
 224 1646 l 1,0,-1
EndSplineSet
EndChar

StartChar: glyph282
Encoding: 65562 -1 282
Width: 0
GlyphClass: 2
Flags: W
LayerCount: 2
Fore
SplineSet
36 1831 m 1,0,-1
 36 -423 l 1,1,-1
 -36 -423 l 1,2,-1
 -36 1504 l 1,3,-1
 -224 1646 l 1,4,-1
 36 1831 l 1,0,-1
EndSplineSet
EndChar

StartChar: glyph283
Encoding: 65563 -1 283
Width: 0
GlyphClass: 2
Flags: W
LayerCount: 2
Fore
SplineSet
36 1831 m 1,0,-1
 36 -352 l 1,1,-1
 234 -352 l 1,2,-1
 234 -423 l 1,3,-1
 -36 -423 l 1,4,-1
 -36 1831 l 1,5,-1
 36 1831 l 1,0,-1
EndSplineSet
EndChar

StartChar: glyph284
Encoding: 65564 -1 284
Width: 0
GlyphClass: 2
Flags: W
LayerCount: 2
Fore
SplineSet
224 1646 m 1,0,-1
 36 1504 l 1,1,-1
 36 -423 l 1,2,-1
 -36 -423 l 1,3,-1
 -36 1504 l 1,4,-1
 -224 1641 l 1,5,-1
 0 1831 l 1,6,-1
 224 1646 l 1,0,-1
EndSplineSet
EndChar

StartChar: uni0670
Encoding: 1648 1648 297
Width: 0
GlyphClass: 4
Flags: W
AnchorPoint: "Anchor-2" 0 0 mark 0
AnchorPoint: "Anchor-0" 0 0 mark 0
LayerCount: 2
Fore
SplineSet
-52 353 m 1,0,-1
 50 353 l 1,1,-1
 50 0 l 1,2,-1
 -52 0 l 1,3,-1
 -52 353 l 1,0,-1
EndSplineSet
EndChar

StartChar: glyph298
Encoding: 65565 -1 298
Width: 458
GlyphClass: 2
Flags: W
LayerCount: 2
Fore
SplineSet
235 1433 m 2,0,1
 266 1457 266 1457 294 1461.5 c 128,-1,2
 322 1466 322 1466 343 1455 c 128,-1,3
 364 1444 364 1444 377 1419 c 128,-1,4
 390 1394 390 1394 390 1357 c 2,5,-1
 389 1277 l 1,6,-1
 69 1277 l 1,7,-1
 69 1335 l 1,8,-1
 123 1335 l 1,9,-1
 235 1433 l 2,0,1
203 1335 m 1,10,-1
 331 1335 l 1,11,-1
 331 1365 l 2,12,13
 329 1394 329 1394 311 1402 c 128,-1,14
 293 1410 293 1410 263 1388 c 2,15,-1
 203 1335 l 1,10,-1
EndSplineSet
EndChar

StartChar: glyph299
Encoding: 65566 -1 299
Width: 1171
GlyphClass: 2
Flags: W
LayerCount: 2
Fore
SplineSet
1171 30 m 2,0,1
 1171 -183 1171 -183 1019.5 -334 c 128,-1,2
 868 -485 868 -485 656 -485 c 0,3,4
 443 -485 443 -485 292 -334 c 128,-1,5
 141 -183 141 -183 141 30 c 0,6,7
 141 225 141 225 289 393 c 1,8,-1
 458 240 l 1,9,10
 370 137 370 137 370 30 c 0,11,12
 370 -88 370 -88 454 -172 c 128,-1,13
 538 -256 538 -256 656 -256 c 0,14,15
 766 -256 766 -256 847 -182 c 128,-1,16
 928 -108 928 -108 939 0 c 1,17,-1
 837 0 l 2,18,19
 700 0 700 0 603 99 c 128,-1,20
 506 198 506 198 506 335 c 0,21,22
 506 473 506 473 603 570.5 c 128,-1,23
 700 668 700 668 837 668 c 0,24,25
 981 668 981 668 1077 565 c 0,26,27
 1171 464 1171 464 1171 323 c 2,28,-1
 1171 30 l 2,0,1
941 335 m 2,29,30
 941 380 941 380 911 410 c 128,-1,31
 881 440 881 440 837 440 c 0,32,33
 795 440 795 440 765.5 410 c 128,-1,34
 736 380 736 380 736 335 c 0,35,36
 736 293 736 293 765.5 263.5 c 128,-1,37
 795 234 795 234 837 234 c 2,38,-1
 941 234 l 1,39,-1
 941 335 l 2,29,30
EndSplineSet
EndChar

StartChar: uni06DD
Encoding: 1757 1757 388
Width: 2300
GlyphClass: 2
Flags: W
LayerCount: 2
Fore
SplineSet
2250 715 m 256,0,1
 2250 469 2250 469 2146 249 c 0,2,3
 2046 35 2046 35 1867 -119 c 1,4,5
 1870 -133 1870 -133 1870 -148 c 0,6,7
 1870 -203 1870 -203 1831 -241.5 c 128,-1,8
 1792 -280 1792 -280 1737 -280 c 0,9,10
 1697 -280 1697 -280 1664 -258 c 1,11,12
 1424 -385 1424 -385 1149 -385 c 0,13,14
 876 -385 876 -385 636 -258 c 1,15,16
 603 -280 603 -280 563 -280 c 0,17,18
 508 -280 508 -280 469 -241.5 c 128,-1,19
 430 -203 430 -203 430 -148 c 0,20,21
 430 -133 430 -133 433 -119 c 1,22,23
 254 35 254 35 154 249 c 0,24,25
 50 469 50 469 50 715 c 256,26,27
 50 961 50 961 154 1181 c 0,28,29
 254 1394 254 1394 433 1548 c 1,30,31
 430 1562 430 1562 430 1577 c 0,32,33
 430 1632 430 1632 469 1670.5 c 128,-1,34
 508 1709 508 1709 563 1709 c 0,35,36
 603 1709 603 1709 636 1687 c 1,37,38
 876 1814 876 1814 1151 1814 c 0,39,40
 1424 1814 1424 1814 1664 1687 c 1,41,42
 1697 1709 1697 1709 1737 1709 c 0,43,44
 1792 1709 1792 1709 1831 1670.5 c 128,-1,45
 1870 1632 1870 1632 1870 1577 c 0,46,47
 1870 1562 1870 1562 1867 1548 c 1,48,49
 2046 1394 2046 1394 2146 1181 c 0,50,51
 2250 961 2250 961 2250 715 c 256,0,1
1816 1576 m 0,52,53
 1816 1609 1816 1609 1793 1632 c 128,-1,54
 1770 1655 1770 1655 1738 1655 c 256,55,56
 1706 1655 1706 1655 1682.5 1631.5 c 128,-1,57
 1659 1608 1659 1608 1659 1576 c 256,58,59
 1659 1544 1659 1544 1682 1521 c 128,-1,60
 1705 1498 1705 1498 1738 1498 c 0,61,62
 1770 1498 1770 1498 1793 1521 c 128,-1,63
 1816 1544 1816 1544 1816 1576 c 0,52,53
1602 1595 m 1,64,65
 1390 1704 1390 1704 1151 1704 c 0,66,67
 910 1704 910 1704 698 1595 c 1,68,-1
 1602 1595 l 1,64,65
641 1576 m 256,69,70
 641 1608 641 1608 617.5 1631.5 c 128,-1,71
 594 1655 594 1655 562 1655 c 256,72,73
 530 1655 530 1655 507 1632 c 128,-1,74
 484 1609 484 1609 484 1576 c 0,75,76
 484 1544 484 1544 507 1521 c 128,-1,77
 530 1498 530 1498 562 1498 c 0,78,79
 595 1498 595 1498 618 1521 c 128,-1,80
 641 1544 641 1544 641 1576 c 256,69,70
2140 714 m 0,81,82
 2140 933 2140 933 2048 1131 c 0,83,84
 1960 1321 1960 1321 1801 1460 c 1,85,86
 1772 1444 1772 1444 1737 1444 c 0,87,88
 1681 1444 1681 1444 1642 1485 c 1,89,-1
 658 1485 l 1,90,91
 619 1444 619 1444 563 1444 c 0,92,93
 528 1444 528 1444 499 1460 c 1,94,95
 340 1321 340 1321 252 1131 c 0,96,97
 160 933 160 933 160 714 c 0,98,99
 160 265 160 265 499 -31 c 1,100,101
 528 -15 528 -15 563 -15 c 0,102,103
 619 -15 619 -15 658 -56 c 1,104,-1
 1642 -56 l 1,105,106
 1681 -15 1681 -15 1737 -15 c 0,107,108
 1772 -15 1772 -15 1801 -31 c 1,109,110
 2140 265 2140 265 2140 714 c 0,81,82
1816 -147 m 0,111,112
 1816 -115 1816 -115 1793 -92 c 128,-1,113
 1770 -69 1770 -69 1738 -69 c 0,114,115
 1705 -69 1705 -69 1682 -92 c 128,-1,116
 1659 -115 1659 -115 1659 -147 c 256,117,118
 1659 -179 1659 -179 1682.5 -202.5 c 128,-1,119
 1706 -226 1706 -226 1738 -226 c 256,120,121
 1770 -226 1770 -226 1793 -203 c 128,-1,122
 1816 -180 1816 -180 1816 -147 c 0,111,112
1602 -166 m 1,123,-1
 698 -166 l 1,124,125
 910 -275 910 -275 1151 -275 c 0,126,127
 1390 -275 1390 -275 1602 -166 c 1,123,-1
641 -147 m 256,128,129
 641 -115 641 -115 618 -92 c 128,-1,130
 595 -69 595 -69 562 -69 c 0,131,132
 530 -69 530 -69 507 -92 c 128,-1,133
 484 -115 484 -115 484 -147 c 0,134,135
 484 -180 484 -180 507 -203 c 128,-1,136
 530 -226 530 -226 562 -226 c 256,137,138
 594 -226 594 -226 617.5 -202.5 c 128,-1,139
 641 -179 641 -179 641 -147 c 256,128,129
EndSplineSet
EndChar

StartChar: uni06DE
Encoding: 1758 1758 389
Width: 2221
GlyphClass: 2
Flags: W
LayerCount: 2
Fore
SplineSet
2171 750 m 1,0,-1
 1861 439 l 1,1,-1
 1861 0 l 1,2,-1
 1421 0 l 1,3,-1
 1111 -311 l 1,4,-1
 800 0 l 1,5,-1
 361 0 l 1,6,-1
 361 439 l 1,7,-1
 50 750 l 1,8,-1
 361 1061 l 1,9,-1
 361 1500 l 1,10,-1
 800 1500 l 1,11,-1
 1111 1811 l 1,12,-1
 1421 1500 l 1,13,-1
 1861 1500 l 1,14,-1
 1861 1061 l 1,15,-1
 2171 750 l 1,0,-1
436 364 m 1,16,-1
 436 75 l 1,17,-1
 725 75 l 1,18,-1
 436 364 l 1,16,-1
725 1425 m 1,19,-1
 436 1425 l 1,20,-1
 436 1136 l 1,21,-1
 725 1425 l 1,19,-1
1786 1136 m 1,22,-1
 1786 1425 l 1,23,-1
 1496 1425 l 1,24,-1
 1786 1136 l 1,22,-1
1786 75 m 1,25,-1
 1786 364 l 1,26,-1
 1496 75 l 1,27,-1
 1786 75 l 1,25,-1
906 0 m 1,28,-1
 1111 -205 l 1,29,-1
 1315 0 l 1,30,-1
 906 0 l 1,28,-1
361 955 m 1,31,-1
 156 750 l 1,32,-1
 361 545 l 1,33,-1
 361 955 l 1,31,-1
1315 1500 m 1,34,-1
 1111 1705 l 1,35,-1
 906 1500 l 1,36,-1
 1315 1500 l 1,34,-1
1786 1030 m 1,37,-1
 1390 1425 l 1,38,-1
 831 1425 l 1,39,-1
 436 1030 l 1,40,-1
 436 470 l 1,41,-1
 831 75 l 1,42,-1
 1390 75 l 1,43,-1
 1786 470 l 1,44,-1
 1786 1030 l 1,37,-1
2065 750 m 1,45,-1
 1861 955 l 1,46,-1
 1861 545 l 1,47,-1
 2065 750 l 1,45,-1
1328 750 m 256,48,49
 1328 660 1328 660 1264.5 596 c 128,-1,50
 1201 532 1201 532 1111 532 c 256,51,52
 1021 532 1021 532 957 596 c 128,-1,53
 893 660 893 660 893 750 c 256,54,55
 893 840 893 840 957 903.5 c 128,-1,56
 1021 967 1021 967 1111 967 c 256,57,58
 1201 967 1201 967 1264.5 903.5 c 128,-1,59
 1328 840 1328 840 1328 750 c 256,48,49
1253 750 m 256,60,61
 1253 809 1253 809 1211 850.5 c 128,-1,62
 1169 892 1169 892 1110 892 c 256,63,64
 1051 892 1051 892 1009 850.5 c 128,-1,65
 967 809 967 809 967 750 c 256,66,67
 967 691 967 691 1009 649 c 128,-1,68
 1051 607 1051 607 1110 607 c 256,69,70
 1169 607 1169 607 1211 649 c 128,-1,71
 1253 691 1253 691 1253 750 c 256,60,61
EndSplineSet
EndChar

StartChar: uni06DF
Encoding: 1759 1759 390
Width: 0
GlyphClass: 2
Flags: W
LayerCount: 2
Fore
SplineSet
75 1429 m 256,0,1
 75 1398 75 1398 53 1376 c 128,-1,2
 31 1354 31 1354 0 1354 c 256,3,4
 -31 1354 -31 1354 -53 1376 c 128,-1,5
 -75 1398 -75 1398 -75 1429 c 256,6,7
 -75 1460 -75 1460 -53 1482 c 128,-1,8
 -31 1504 -31 1504 0 1504 c 256,9,10
 31 1504 31 1504 53 1482 c 128,-1,11
 75 1460 75 1460 75 1429 c 256,0,1
EndSplineSet
EndChar

StartChar: uni06E9
Encoding: 1769 1769 391
Width: 1229
GlyphClass: 2
Flags: W
LayerCount: 2
Fore
SplineSet
1179 0 m 1,0,-1
 50 0 l 1,1,-1
 278 261 l 1,2,-1
 278 849 l 1,3,-1
 50 1108 l 1,4,-1
 614 1676 l 1,5,-1
 1179 1108 l 1,6,-1
 951 849 l 1,7,-1
 951 261 l 1,8,-1
 1179 0 l 1,0,-1
1101 1108 m 1,9,-1
 614 1598 l 1,10,-1
 128 1108 l 1,11,-1
 338 871 l 1,12,-1
 338 239 l 1,13,-1
 178 56 l 1,14,-1
 1051 56 l 1,15,-1
 891 239 l 1,16,-1
 891 871 l 1,17,-1
 1101 1108 l 1,9,-1
995 1108 m 1,18,-1
 845 937 l 1,19,-1
 845 131 l 1,20,-1
 384 131 l 1,21,-1
 384 937 l 1,22,-1
 234 1108 l 1,23,-1
 614 1489 l 1,24,-1
 995 1108 l 1,18,-1
922 1108 m 1,25,-1
 614 1416 l 1,26,-1
 307 1108 l 1,27,-1
 433 968 l 1,28,-1
 433 186 l 1,29,-1
 796 186 l 1,30,-1
 796 968 l 1,31,-1
 922 1108 l 1,25,-1
833 1108 m 1,32,-1
 745 1011 l 1,33,-1
 745 267 l 1,34,-1
 484 267 l 1,35,-1
 484 1011 l 1,36,-1
 396 1108 l 1,37,-1
 614 1331 l 1,38,-1
 833 1108 l 1,32,-1
780 1108 m 1,39,-1
 614 1278 l 1,40,-1
 449 1108 l 1,41,-1
 523 1027 l 1,42,-1
 523 309 l 1,43,-1
 705 309 l 1,44,-1
 705 1027 l 1,45,-1
 780 1108 l 1,39,-1
EndSplineSet
EndChar

StartChar: uni06EB
Encoding: 1771 1771 393
Width: 0
GlyphClass: 2
Flags: W
LayerCount: 2
Fore
SplineSet
168 1522 m 1,0,-1
 -1 1354 l 1,1,-1
 -168 1521 l 1,2,-1
 1 1689 l 1,3,-1
 168 1522 l 1,0,-1
104 1522 m 1,4,-1
 0 1626 l 1,5,-1
 -104 1521 l 1,6,-1
 0 1417 l 1,7,-1
 104 1522 l 1,4,-1
EndSplineSet
EndChar

StartChar: comma
Encoding: 44 44 402
Width: 400
Flags: W
LayerCount: 2
Fore
SplineSet
402 212 m 1,0,-1
 214 -209 l 1,1,-1
 65 -207 l 1,2,-1
 184 211 l 1,3,-1
 402 212 l 1,0,-1
EndSplineSet
EndChar

StartChar: afii57407
Encoding: 1567 1567 403
Width: 849
GlyphClass: 2
Flags: W
LayerCount: 2
Fore
SplineSet
849 806 m 1,0,-1
 383 806 l 1,1,2
 410 718 410 718 484.5 663 c 128,-1,3
 559 608 559 608 656 608 c 2,4,-1
 760 608 l 1,5,-1
 760 299 l 1,6,-1
 532 299 l 1,7,-1
 532 394 l 1,8,9
 362 436 362 436 253 574 c 0,10,11
 141 715 141 715 141 893 c 2,12,-1
 141 1036 l 1,13,-1
 849 1036 l 1,14,-1
 849 806 l 1,0,-1
764 -30 m 1,15,-1
 649 -30 l 2,16,17
 602 -30 602 -30 568.5 3.5 c 128,-1,18
 535 37 535 37 535 85 c 0,19,20
 535 132 535 132 568.5 165.5 c 128,-1,21
 602 199 602 199 649 199 c 256,22,23
 696 199 696 199 730 165.5 c 128,-1,24
 764 132 764 132 764 85 c 2,25,-1
 764 -30 l 1,15,-1
EndSplineSet
EndChar

StartChar: afii57392
Encoding: 1776 1776 404
Width: 733
Flags: W
LayerCount: 2
Fore
SplineSet
624 204 m 1,0,-1
 419 204 l 2,1,2
 335 204 335 204 275 264 c 128,-1,3
 215 324 215 324 215 409 c 256,4,5
 215 494 215 494 275 553.5 c 128,-1,6
 335 613 335 613 419 613 c 0,7,8
 504 613 504 613 564 553 c 128,-1,9
 624 493 624 493 624 409 c 2,10,-1
 624 204 l 1,0,-1
EndSplineSet
EndChar

StartChar: afii57393
Encoding: 1777 1777 405
Width: 628
Flags: W
LayerCount: 2
Fore
SplineSet
494 0 m 1,0,-1
 265 0 l 1,1,-1
 265 1087 l 1,2,-1
 494 1087 l 1,3,-1
 494 0 l 1,0,-1
EndSplineSet
EndChar

StartChar: afii57394
Encoding: 1778 1778 406
Width: 1024
Flags: W
LayerCount: 2
Fore
SplineSet
909 485 m 1,0,-1
 795 485 l 2,1,2
 637 485 637 485 509 572 c 1,3,-1
 509 -1 l 1,4,-1
 280 -1 l 1,5,-1
 280 1086 l 1,6,-1
 509 1086 l 1,7,8
 509 815 509 815 679 739 c 1,9,-1
 679 1086 l 1,10,-1
 909 1086 l 1,11,-1
 909 485 l 1,0,-1
EndSplineSet
EndChar

StartChar: afii57395
Encoding: 1779 1779 407
Width: 1229
Flags: W
LayerCount: 2
Fore
SplineSet
1150 486 m 1,0,-1
 1036 486 l 2,1,2
 879 486 879 486 750 573 c 1,3,-1
 750 486 l 1,4,-1
 636 486 l 2,5,6
 479 486 479 486 351 573 c 1,7,-1
 351 0 l 1,8,-1
 121 0 l 1,9,-1
 121 1087 l 1,10,-1
 351 1087 l 1,11,12
 351 816 351 816 521 740 c 1,13,-1
 521 1087 l 1,14,-1
 750 1087 l 1,15,16
 750 816 750 816 922 740 c 1,17,-1
 922 1087 l 1,18,-1
 1150 1087 l 1,19,-1
 1150 486 l 1,0,-1
EndSplineSet
EndChar

StartChar: afii62843
Encoding: 1780 1780 408
Width: 1087
Flags: W
LayerCount: 2
Fore
SplineSet
438 -1 m 1,0,-1
 209 -1 l 1,1,-1
 209 1086 l 1,2,-1
 438 1086 l 1,3,-1
 438 812 l 1,4,5
 504 936 504 936 625.5 1011 c 128,-1,6
 747 1086 747 1086 893 1086 c 2,7,-1
 981 1086 l 1,8,-1
 981 857 l 1,9,-1
 893 857 l 2,10,11
 805 857 805 857 735.5 810.5 c 128,-1,12
 666 764 666 764 632 687 c 1,13,-1
 981 687 l 1,14,-1
 981 457 l 1,15,-1
 438 457 l 1,16,-1
 438 -1 l 1,0,-1
EndSplineSet
EndChar

StartChar: afii62844
Encoding: 1781 1781 409
Width: 1221
Flags: W
LayerCount: 2
Fore
SplineSet
1140 -2 m 1,0,-1
 1025 -2 l 2,1,2
 868 -2 868 -2 739 85 c 1,3,-1
 739 -2 l 1,4,-1
 625 -2 l 2,5,6
 387 -2 387 -2 241 181 c 0,7,8
 110 344 110 344 110 571 c 0,9,10
 110 783 110 783 261.5 934.5 c 128,-1,11
 413 1086 413 1086 625 1086 c 0,12,13
 838 1086 838 1086 989 934.5 c 128,-1,14
 1140 783 1140 783 1140 571 c 2,15,-1
 1140 -2 l 1,0,-1
911 571 m 2,16,17
 911 689 911 689 827 773 c 128,-1,18
 743 857 743 857 625 857 c 256,19,20
 507 857 507 857 423.5 773 c 128,-1,21
 340 689 340 689 340 571 c 0,22,23
 340 327 340 327 510 252 c 1,24,-1
 510 600 l 1,25,-1
 739 600 l 1,26,27
 739 328 739 328 911 252 c 1,28,-1
 911 571 l 2,16,17
EndSplineSet
EndChar

StartChar: afii62845
Encoding: 1782 1782 410
Width: 1172
Flags: W
LayerCount: 2
Fore
SplineSet
1059 742 m 1,0,-1
 248 -68 l 1,1,-1
 88 94 l 1,2,-1
 409 416 l 1,3,4
 333 538 333 538 333 682 c 0,5,6
 333 895 333 895 484 1048 c 2,7,-1
 615 1182 l 1,8,-1
 778 1020 l 1,9,10
 649 889 649 889 633 869 c 0,11,12
 560 777 560 777 560 688 c 0,13,14
 560 640 560 640 580 588 c 1,15,-1
 896 904 l 1,16,-1
 1059 742 l 1,0,-1
EndSplineSet
EndChar

StartChar: afii57399
Encoding: 1783 1783 411
Width: 937
Flags: W
LayerCount: 2
Fore
SplineSet
844 0 m 1,0,-1
 730 0 l 2,1,2
 541 0 541 0 396 126 c 0,3,4
 215 282 215 282 215 573 c 2,5,-1
 215 1087 l 1,6,-1
 444 1087 l 1,7,-1
 444 573 l 2,8,9
 444 324 444 324 614 254 c 1,10,-1
 614 1087 l 1,11,-1
 844 1087 l 1,12,-1
 844 0 l 1,0,-1
EndSplineSet
EndChar

StartChar: afii57400
Encoding: 1784 1784 412
Width: 969
Flags: W
LayerCount: 2
Fore
SplineSet
864 -2 m 1,0,-1
 635 -2 l 1,1,-1
 635 831 l 1,2,3
 465 762 465 762 465 513 c 2,4,-1
 465 -2 l 1,5,-1
 235 -2 l 1,6,-1
 235 513 l 2,7,8
 235 804 235 804 416 960 c 0,9,10
 561 1085 561 1085 750 1085 c 2,11,-1
 864 1085 l 1,12,-1
 864 -2 l 1,0,-1
EndSplineSet
EndChar

StartChar: afii57401
Encoding: 1785 1785 413
Width: 969
Flags: W
LayerCount: 2
Fore
SplineSet
858 -5 m 1,0,-1
 628 -5 l 1,1,-1
 628 311 l 1,2,-1
 228 311 l 1,3,-1
 228 510 l 2,4,5
 228 801 228 801 410 957 c 0,6,7
 554 1082 554 1082 743 1082 c 2,8,-1
 858 1082 l 1,9,-1
 858 -5 l 1,0,-1
628 540 m 1,10,-1
 628 828 l 1,11,12
 469 762 469 762 459 540 c 1,13,-1
 628 540 l 1,10,-1
EndSplineSet
EndChar

StartChar: afii57392.001
Encoding: 1632 1632 414
Width: 733
Flags: W
LayerCount: 2
Fore
SplineSet
624 204 m 1,0,-1
 419 204 l 2,1,2
 335 204 335 204 275 264 c 128,-1,3
 215 324 215 324 215 409 c 256,4,5
 215 494 215 494 275 553.5 c 128,-1,6
 335 613 335 613 419 613 c 0,7,8
 504 613 504 613 564 553 c 128,-1,9
 624 493 624 493 624 409 c 2,10,-1
 624 204 l 1,0,-1
EndSplineSet
EndChar

StartChar: afii57393.001
Encoding: 1633 1633 415
Width: 628
Flags: W
LayerCount: 2
Fore
SplineSet
494 0 m 1,0,-1
 265 0 l 1,1,-1
 265 1087 l 1,2,-1
 494 1087 l 1,3,-1
 494 0 l 1,0,-1
EndSplineSet
EndChar

StartChar: afii57394.001
Encoding: 1634 1634 416
Width: 1024
Flags: W
LayerCount: 2
Fore
SplineSet
909 485 m 1,0,-1
 795 485 l 2,1,2
 637 485 637 485 509 572 c 1,3,-1
 509 -1 l 1,4,-1
 280 -1 l 1,5,-1
 280 1086 l 1,6,-1
 509 1086 l 1,7,8
 509 815 509 815 679 739 c 1,9,-1
 679 1086 l 1,10,-1
 909 1086 l 1,11,-1
 909 485 l 1,0,-1
EndSplineSet
EndChar

StartChar: afii57395.001
Encoding: 1635 1635 417
Width: 1229
Flags: W
LayerCount: 2
Fore
SplineSet
1150 486 m 1,0,-1
 1036 486 l 2,1,2
 879 486 879 486 750 573 c 1,3,-1
 750 486 l 1,4,-1
 636 486 l 2,5,6
 479 486 479 486 351 573 c 1,7,-1
 351 0 l 1,8,-1
 121 0 l 1,9,-1
 121 1087 l 1,10,-1
 351 1087 l 1,11,12
 351 816 351 816 521 740 c 1,13,-1
 521 1087 l 1,14,-1
 750 1087 l 1,15,16
 750 816 750 816 922 740 c 1,17,-1
 922 1087 l 1,18,-1
 1150 1087 l 1,19,-1
 1150 486 l 1,0,-1
EndSplineSet
EndChar

StartChar: afii57396
Encoding: 1636 1636 418
Width: 1087
Flags: W
LayerCount: 2
Fore
SplineSet
438 -1 m 1,0,-1
 209 -1 l 1,1,-1
 209 1086 l 1,2,-1
 438 1086 l 1,3,-1
 438 812 l 1,4,5
 504 936 504 936 625.5 1011 c 128,-1,6
 747 1086 747 1086 893 1086 c 2,7,-1
 981 1086 l 1,8,-1
 981 857 l 1,9,-1
 893 857 l 2,10,11
 805 857 805 857 735.5 810.5 c 128,-1,12
 666 764 666 764 632 687 c 1,13,-1
 981 687 l 1,14,-1
 981 457 l 1,15,-1
 438 457 l 1,16,-1
 438 -1 l 1,0,-1
EndSplineSet
EndChar

StartChar: afii57397
Encoding: 1637 1637 419
Width: 1221
Flags: W
LayerCount: 2
Fore
SplineSet
1140 -2 m 1,0,-1
 1025 -2 l 2,1,2
 868 -2 868 -2 739 85 c 1,3,-1
 739 -2 l 1,4,-1
 625 -2 l 2,5,6
 387 -2 387 -2 241 181 c 0,7,8
 110 344 110 344 110 571 c 0,9,10
 110 783 110 783 261.5 934.5 c 128,-1,11
 413 1086 413 1086 625 1086 c 0,12,13
 838 1086 838 1086 989 934.5 c 128,-1,14
 1140 783 1140 783 1140 571 c 2,15,-1
 1140 -2 l 1,0,-1
911 571 m 2,16,17
 911 689 911 689 827 773 c 128,-1,18
 743 857 743 857 625 857 c 256,19,20
 507 857 507 857 423.5 773 c 128,-1,21
 340 689 340 689 340 571 c 0,22,23
 340 327 340 327 510 252 c 1,24,-1
 510 600 l 1,25,-1
 739 600 l 1,26,27
 739 328 739 328 911 252 c 1,28,-1
 911 571 l 2,16,17
EndSplineSet
EndChar

StartChar: afii57398
Encoding: 1638 1638 420
Width: 1172
Flags: W
LayerCount: 2
Fore
SplineSet
1059 742 m 1,0,-1
 248 -68 l 1,1,-1
 88 94 l 1,2,-1
 409 416 l 1,3,4
 333 538 333 538 333 682 c 0,5,6
 333 895 333 895 484 1048 c 2,7,-1
 615 1182 l 1,8,-1
 778 1020 l 1,9,10
 649 889 649 889 633 869 c 0,11,12
 560 777 560 777 560 688 c 0,13,14
 560 640 560 640 580 588 c 1,15,-1
 896 904 l 1,16,-1
 1059 742 l 1,0,-1
EndSplineSet
EndChar

StartChar: afii57399.001
Encoding: 1639 1639 421
Width: 937
Flags: W
LayerCount: 2
Fore
SplineSet
844 0 m 1,0,-1
 730 0 l 2,1,2
 541 0 541 0 396 126 c 0,3,4
 215 282 215 282 215 573 c 2,5,-1
 215 1087 l 1,6,-1
 444 1087 l 1,7,-1
 444 573 l 2,8,9
 444 324 444 324 614 254 c 1,10,-1
 614 1087 l 1,11,-1
 844 1087 l 1,12,-1
 844 0 l 1,0,-1
EndSplineSet
EndChar

StartChar: afii57400.001
Encoding: 1640 1640 422
Width: 969
Flags: W
LayerCount: 2
Fore
SplineSet
864 -2 m 1,0,-1
 635 -2 l 1,1,-1
 635 831 l 1,2,3
 465 762 465 762 465 513 c 2,4,-1
 465 -2 l 1,5,-1
 235 -2 l 1,6,-1
 235 513 l 2,7,8
 235 804 235 804 416 960 c 0,9,10
 561 1085 561 1085 750 1085 c 2,11,-1
 864 1085 l 1,12,-1
 864 -2 l 1,0,-1
EndSplineSet
EndChar

StartChar: afii57401.001
Encoding: 1641 1641 423
Width: 969
Flags: W
LayerCount: 2
Fore
SplineSet
858 -5 m 1,0,-1
 628 -5 l 1,1,-1
 628 311 l 1,2,-1
 228 311 l 1,3,-1
 228 510 l 2,4,5
 228 801 228 801 410 957 c 0,6,7
 554 1082 554 1082 743 1082 c 2,8,-1
 858 1082 l 1,9,-1
 858 -5 l 1,0,-1
628 540 m 1,10,-1
 628 828 l 1,11,12
 469 762 469 762 459 540 c 1,13,-1
 628 540 l 1,10,-1
EndSplineSet
EndChar

StartChar: guillemotleft
Encoding: 171 171 424
Width: 836
Flags: W
LayerCount: 2
Fore
SplineSet
442 616 m 1,0,1
 387 507 387 507 387 393 c 0,2,3
 387 255 387 255 518 82 c 1,4,-1
 518 83 l 1,5,6
 538 60 538 60 547.5 44 c 128,-1,7
 557 28 557 28 560 20 c 0,8,9
 560 -5 560 -5 534 -5 c 0,10,11
 528 -5 528 -5 513 1 c 0,12,13
 377 71 377 71 294 168 c 1,14,-1
 294 167 l 1,15,16
 202 276 202 276 202 396 c 0,17,18
 203 448 203 448 222.5 500 c 128,-1,19
 242 552 242 552 280 603 c 0,20,21
 307 640 307 640 344.5 676.5 c 128,-1,22
 382 713 382 713 426 745 c 0,23,24
 499 799 499 799 528 799 c 0,25,26
 563 799 563 799 563 775 c 0,27,28
 563 765 563 765 555 757 c 0,29,30
 528 730 528 730 509 708 c 128,-1,31
 490 686 490 686 477 668.5 c 128,-1,32
 464 651 464 651 455.5 638 c 128,-1,33
 447 625 447 625 441 615 c 2,34,-1
 442 616 l 1,0,1
721 616 m 1,35,36
 666 507 666 507 666 393 c 0,37,38
 666 255 666 255 797 82 c 1,39,-1
 797 83 l 1,40,41
 817 60 817 60 826.5 44 c 128,-1,42
 836 28 836 28 839 20 c 0,43,44
 839 -5 839 -5 813 -5 c 0,45,46
 806 -5 806 -5 793 1 c 0,47,48
 725 36 725 36 670 77 c 128,-1,49
 615 118 615 118 573 168 c 1,50,-1
 573 167 l 1,51,52
 481 276 481 276 481 396 c 0,53,54
 482 448 482 448 501.5 500 c 128,-1,55
 521 552 521 552 559 603 c 0,56,57
 586 640 586 640 623.5 676.5 c 128,-1,58
 661 713 661 713 705 745 c 0,59,60
 778 799 778 799 807 799 c 0,61,62
 842 799 842 799 842 775 c 0,63,64
 842 765 842 765 834 757 c 0,65,66
 807 730 807 730 788 708 c 128,-1,67
 769 686 769 686 756 668.5 c 128,-1,68
 743 651 743 651 734.5 638 c 128,-1,69
 726 625 726 625 720 615 c 2,70,-1
 721 616 l 1,35,36
EndSplineSet
EndChar

StartChar: guillemotright
Encoding: 187 187 425
Width: 836
Flags: W
LayerCount: 2
Fore
SplineSet
573 622 m 1,0,1
 561 641 561 641 537.5 674.5 c 128,-1,2
 514 708 514 708 460 762 c 0,3,4
 452 770 452 770 452 780 c 0,5,6
 452 804 452 804 487 804 c 0,7,8
 514 804 514 804 588 751 c 0,9,10
 631 719 631 719 668 683 c 128,-1,11
 705 647 705 647 732 610 c 0,12,13
 769 559 769 559 788.5 508 c 128,-1,14
 808 457 808 457 809 406 c 0,15,16
 809 287 809 287 718 179 c 1,17,-1
 718 180 l 1,18,19
 636 83 636 83 501 15 c 0,20,21
 487 9 487 9 481 9 c 0,22,23
 455 9 455 9 455 34 c 0,24,25
 458 42 458 42 467.5 57.5 c 128,-1,26
 477 73 477 73 497 96 c 1,27,-1
 497 95 l 1,28,29
 626 266 626 266 626 403 c 0,30,31
 626 515 626 515 572 623 c 1,32,-1
 573 622 l 1,0,1
297 622 m 1,33,34
 285 641 285 641 261.5 674.5 c 128,-1,35
 238 708 238 708 184 762 c 0,36,37
 176 770 176 770 176 780 c 0,38,39
 176 804 176 804 211 804 c 0,40,41
 238 804 238 804 312 751 c 0,42,43
 355 719 355 719 392 683 c 128,-1,44
 429 647 429 647 456 610 c 0,45,46
 493 559 493 559 512.5 508 c 128,-1,47
 532 457 532 457 533 406 c 0,48,49
 533 287 533 287 442 179 c 1,50,-1
 442 180 l 1,51,52
 360 83 360 83 225 15 c 0,53,54
 211 9 211 9 205 9 c 0,55,56
 179 9 179 9 179 34 c 0,57,58
 182 42 182 42 191.5 57.5 c 128,-1,59
 201 73 201 73 221 96 c 1,60,-1
 221 95 l 1,61,62
 350 266 350 266 350 403 c 0,63,64
 350 515 350 515 296 623 c 1,65,-1
 297 622 l 1,33,34
EndSplineSet
EndChar

StartChar: quoteleft
Encoding: 8216 8216 426
Width: 425
Flags: W
LayerCount: 2
Fore
SplineSet
121 953 m 0,0,1
 122 1018 122 1018 166 1081.5 c 128,-1,2
 210 1145 210 1145 265 1171 c 1,3,-1
 296 1113 l 1,4,5
 280 1104 280 1104 258 1080 c 128,-1,6
 236 1056 236 1056 226 1018 c 1,7,8
 292 990 292 990 289 935 c 0,9,10
 289 919 289 919 282.5 904.5 c 128,-1,11
 276 890 276 890 265 879 c 128,-1,12
 254 868 254 868 239 861.5 c 128,-1,13
 224 855 224 855 208 855 c 0,14,15
 188 855 188 855 171.5 863.5 c 128,-1,16
 155 872 155 872 144 885.5 c 128,-1,17
 133 899 133 899 127 917 c 128,-1,18
 121 935 121 935 121 953 c 0,0,1
EndSplineSet
EndChar

StartChar: quoteright
Encoding: 8217 8217 427
Width: 372
Flags: W
LayerCount: 2
Fore
SplineSet
281 1073 m 0,0,1
 280 1008 280 1008 236 944.5 c 128,-1,2
 192 881 192 881 137 855 c 1,3,-1
 106 913 l 1,4,5
 122 922 122 922 144 946 c 128,-1,6
 166 970 166 970 176 1008 c 1,7,8
 110 1036 110 1036 113 1091 c 0,9,10
 113 1107 113 1107 119.5 1121.5 c 128,-1,11
 126 1136 126 1136 137 1147 c 128,-1,12
 148 1158 148 1158 162.5 1164.5 c 128,-1,13
 177 1171 177 1171 194 1171 c 0,14,15
 214 1171 214 1171 230 1162.5 c 128,-1,16
 246 1154 246 1154 257.5 1140.5 c 128,-1,17
 269 1127 269 1127 275 1109 c 128,-1,18
 281 1091 281 1091 281 1073 c 0,0,1
EndSplineSet
EndChar

StartChar: afii57451
Encoding: 1611 1611 428
Width: 0
GlyphClass: 4
Flags: W
AnchorPoint: "Anchor-2" 0 0 mark 0
AnchorPoint: "Anchor-0" 0 0 mark 0
LayerCount: 2
Fore
SplineSet
217 234 m 1,0,-1
 -235 151 l 1,1,-1
 -251 243 l 1,2,-1
 200 325 l 1,3,-1
 217 234 l 1,0,-1
244 84 m 1,4,-1
 -207 2 l 1,5,-1
 -224 94 l 1,6,-1
 227 177 l 1,7,-1
 244 84 l 1,4,-1
EndSplineSet
EndChar

StartChar: afii57454
Encoding: 1614 1614 429
Width: 0
GlyphClass: 4
Flags: W
AnchorPoint: "Anchor-2" 0 0 mark 0
AnchorPoint: "Anchor-0" 0 0 mark 0
LayerCount: 2
Fore
SplineSet
244 84 m 1,0,-1
 -207 2 l 1,1,-1
 -224 94 l 1,2,-1
 227 177 l 1,3,-1
 244 84 l 1,0,-1
EndSplineSet
EndChar

StartChar: afii57455
Encoding: 1615 1615 430
Width: 0
GlyphClass: 4
Flags: W
AnchorPoint: "Anchor-2" 0 0 mark 0
AnchorPoint: "Anchor-0" 0 0 mark 0
LayerCount: 2
Fore
SplineSet
238 103 m 1,0,-1
 -251 0 l 1,1,-1
 -270 90 l 1,2,-1
 -74 131 l 1,3,4
 -80 145 -80 145 -83 160 c 0,5,6
 -96 222 -96 222 -62 274 c 128,-1,7
 -28 326 -28 326 34 339 c 0,8,9
 99 353 99 353 150.5 316.5 c 128,-1,10
 202 280 202 280 215 216 c 2,11,-1
 238 103 l 1,0,-1
102 169 m 1,12,-1
 94 206 l 2,13,14
 87 242 87 242 50 234 c 0,15,16
 14 227 14 227 22 191 c 0,17,18
 30 154 30 154 65 162 c 2,19,-1
 102 169 l 1,12,-1
EndSplineSet
EndChar

StartChar: afii57452
Encoding: 1612 1612 431
Width: 0
GlyphClass: 4
Flags: W
AnchorPoint: "Anchor-2" 0 0 mark 0
AnchorPoint: "Anchor-0" 0 0 mark 0
LayerCount: 2
Fore
SplineSet
270 92 m 1,0,-1
 -221 -2 l 1,1,-1
 -238 89 l 1,2,-1
 -164 103 l 1,3,4
 -161 109 -161 109 -163 117 c 0,5,6
 -167 137 -167 137 -202 130 c 1,7,-1
 -217 206 l 1,8,9
 -167 216 -167 216 -131 194 c 0,10,11
 -95 173 -95 173 -88 132 c 0,12,13
 -86 125 -86 125 -86 118 c 1,14,-1
 -42 126 l 1,15,16
 -47 141 -47 141 -50 156 c 0,17,18
 -62 218 -62 218 -27 269.5 c 128,-1,19
 8 321 8 321 70 333 c 0,20,21
 134 345 134 345 185 308 c 128,-1,22
 236 271 236 271 248 207 c 2,23,-1
 270 92 l 1,0,-1
135 162 m 1,24,-1
 128 199 l 2,25,26
 121 235 121 235 84 228 c 0,27,28
 48 221 48 221 55 185 c 0,29,30
 62 148 62 148 97 155 c 2,31,-1
 135 162 l 1,24,-1
EndSplineSet
EndChar

StartChar: afii57456
Encoding: 1616 1616 432
Width: 0
GlyphClass: 4
Flags: W
AnchorPoint: "Anchor-3" 0 0 mark 0
AnchorPoint: "Anchor-1" 0 0 mark 0
LayerCount: 2
Fore
SplineSet
244 84 m 1,0,-1
 -207 2 l 1,1,-1
 -224 94 l 1,2,-1
 227 177 l 1,3,-1
 244 84 l 1,0,-1
EndSplineSet
EndChar

StartChar: afii57457
Encoding: 1617 1617 433
Width: 0
GlyphClass: 4
Flags: W
AnchorPoint: "Anchor-2" 0 0 mark 0
AnchorPoint: "Anchor-0" 0 0 mark 0
LayerCount: 2
Fore
SplineSet
224 3 m 1,0,-1
 141 3 l 2,1,2
 91 3 91 3 48 26 c 1,3,4
 27 4 27 4 -36 3 c 0,5,6
 -120 3 -120 3 -175 53 c 0,7,8
 -233 108 -233 108 -233 200 c 2,9,-1
 -233 263 l 1,10,-1
 -129 263 l 1,11,-1
 -129 200 l 2,12,13
 -129 169 -129 169 -108.5 143 c 128,-1,14
 -88 117 -88 117 -57 110 c 1,15,-1
 -57 263 l 1,16,-1
 48 263 l 1,17,-1
 48 200 l 2,18,19
 48 169 48 169 68 143 c 128,-1,20
 88 117 88 117 119 110 c 1,21,-1
 119 263 l 1,22,-1
 224 263 l 1,23,-1
 224 3 l 1,0,-1
EndSplineSet
EndChar

StartChar: afii57458
Encoding: 1618 1618 434
Width: 0
GlyphClass: 4
Flags: W
AnchorPoint: "Anchor-2" 0 0 mark 0
AnchorPoint: "Anchor-0" 0 0 mark 0
LayerCount: 2
Fore
SplineSet
154 0 m 1,0,-1
 -12 0 l 2,1,2
 -96 0 -96 0 -131 35.5 c 128,-1,3
 -166 71 -166 71 -166 155 c 0,4,5
 -166 240 -166 240 -129 274.5 c 128,-1,6
 -92 309 -92 309 -12 309 c 0,7,8
 73 309 73 309 113.5 274 c 128,-1,9
 154 239 154 239 154 155 c 2,10,-1
 154 0 l 1,0,-1
49 154 m 2,11,12
 49 212 49 212 -10 212 c 0,13,14
 -68 212 -68 212 -68 154 c 0,15,16
 -68 94 -68 94 -10 94 c 2,17,-1
 49 94 l 1,18,-1
 49 154 l 2,11,12
EndSplineSet
EndChar

StartChar: exclam
Encoding: 33 33 437
Width: 700
GlyphClass: 2
Flags: W
LayerCount: 2
Fore
SplineSet
602 957 m 0,0,1
 602 897 602 897 578 772 c 0,2,3
 549 628 549 628 544 558 c 2,4,-1
 528 362 l 1,5,-1
 463 362 l 1,6,7
 461 384 461 384 445 556 c 0,8,9
 439 627 439 627 409 775 c 0,10,11
 384 903 384 903 384 959 c 0,12,13
 384 1164 384 1164 492 1164 c 0,14,15
 602 1164 602 1164 602 957 c 0,0,1
632 136 m 0,16,17
 632 78 632 78 593 38.5 c 128,-1,18
 554 -1 554 -1 496 -1 c 256,19,20
 438 -1 438 -1 399 38.5 c 128,-1,21
 360 78 360 78 360 136 c 0,22,23
 360 193 360 193 399.5 232.5 c 128,-1,24
 439 272 439 272 496 272 c 256,25,26
 553 272 553 272 592.5 232.5 c 128,-1,27
 632 193 632 193 632 136 c 0,16,17
EndSplineSet
EndChar

StartChar: afii64060
Encoding: 64830 64830 438
Width: 576
GlyphClass: 2
Flags: W
LayerCount: 2
Fore
SplineSet
502 932 m 0,0,1
 299 643 299 643 299 408 c 0,2,3
 299 214 299 214 402 26 c 0,4,5
 418 -4 418 -4 459 -64.5 c 128,-1,6
 500 -125 500 -125 568 -216 c 0,7,8
 574 -224 574 -224 574 -233 c 0,9,10
 574 -256 574 -256 543 -256 c 0,11,12
 469 -256 469 -256 380 -168 c 0,13,14
 270 -61 270 -61 202 65 c 0,15,16
 110 235 110 235 110 403 c 0,17,18
 110 595 110 595 220 774 c 0,19,20
 321 938 321 938 538 1055 c 0,21,22
 547 1061 547 1061 554 1061 c 0,23,24
 573 1061 573 1061 573 1036 c 1,25,26
 563 1019 563 1019 502 932 c 0,0,1
EndSplineSet
EndChar

StartChar: afii64061
Encoding: 64831 64831 439
Width: 576
GlyphClass: 2
Flags: W
LayerCount: 2
Fore
SplineSet
182 932 m 0,0,1
 121 1019 121 1019 111 1036 c 1,2,3
 111 1061 111 1061 130 1061 c 0,4,5
 137 1061 137 1061 146 1055 c 0,6,7
 363 938 363 938 464 774 c 0,8,9
 574 595 574 595 574 403 c 0,10,11
 574 235 574 235 482 65 c 0,12,13
 414 -61 414 -61 304 -168 c 0,14,15
 215 -256 215 -256 141 -256 c 0,16,17
 110 -256 110 -256 110 -233 c 0,18,19
 110 -224 110 -224 116 -216 c 0,20,21
 184 -125 184 -125 225 -64.5 c 128,-1,22
 266 -4 266 -4 282 26 c 0,23,24
 385 214 385 214 385 408 c 0,25,26
 385 643 385 643 182 932 c 0,0,1
EndSplineSet
EndChar

StartChar: afii62821
Encoding: 65252 65252 440
Width: 1093
GlyphClass: 2
Flags: W
AnchorPoint: "Anchor-3" 525 -510 basechar 0
AnchorPoint: "Anchor-2" 585 930 basechar 0
LayerCount: 2
Fore
SplineSet
1122 0 m 1,0,-1
 604 0 l 2,1,2
 435 0 435 0 335 125 c 1,3,4
 196 0 196 0 30 0 c 2,5,-1
 -59 0 l 1,6,-1
 -59 230 l 1,7,-1
 30 230 l 2,8,9
 212 230 212 230 274 433 c 0,10,11
 306 536 306 536 393 600.5 c 128,-1,12
 480 665 480 665 592 665 c 0,13,14
 725 665 725 665 822 572 c 0,15,16
 923 475 923 475 923 336 c 2,17,-1
 923 230 l 1,18,-1
 1122 230 l 1,19,-1
 1122 0 l 1,0,-1
693 230 m 1,20,-1
 693 334 l 2,21,22
 693 377 693 377 663.5 406.5 c 128,-1,23
 634 436 634 436 592 436 c 0,24,25
 548 436 548 436 517.5 406.5 c 128,-1,26
 487 377 487 377 487 334 c 256,27,28
 487 291 487 291 517.5 260.5 c 128,-1,29
 548 230 548 230 592 230 c 2,30,-1
 693 230 l 1,20,-1
EndSplineSet
EndChar

StartChar: uni25CC
Encoding: 9676 9676 441
Width: 911
Flags: W
AnchorPoint: "Anchor-3" 480 -315 basechar 0
AnchorPoint: "Anchor-2" 510 870 basechar 0
LayerCount: 2
Fore
SplineSet
771 629 m 256,0,1
 771 592 771 592 734 592 c 0,2,3
 695 592 695 592 695 629 c 256,4,5
 695 666 695 666 734 666 c 0,6,7
 771 666 771 666 771 629 c 256,0,1
658 703 m 0,8,9
 658 666 658 666 621 666 c 0,10,11
 582 666 582 666 582 703 c 0,12,13
 582 742 582 742 621 742 c 0,14,15
 658 742 658 742 658 703 c 0,8,9
847 516 m 0,16,17
 847 477 847 477 808 477 c 0,18,19
 771 477 771 477 771 516 c 0,20,21
 771 553 771 553 810 553 c 0,22,23
 847 553 847 553 847 516 c 0,16,17
873 384 m 256,24,25
 873 347 873 347 836 347 c 0,26,27
 797 347 797 347 797 384 c 256,28,29
 797 421 797 421 836 421 c 0,30,31
 873 421 873 421 873 384 c 256,24,25
525 731 m 0,32,33
 525 692 525 692 488 692 c 256,34,35
 451 692 451 692 451 731 c 0,36,37
 451 768 451 768 488 768 c 256,38,39
 525 768 525 768 525 731 c 0,32,33
847 251 m 0,40,41
 847 214 847 214 808 214 c 0,42,43
 771 214 771 214 771 251 c 0,44,45
 771 290 771 290 808 290 c 0,46,47
 847 290 847 290 847 251 c 0,40,41
394 703 m 0,48,49
 394 666 394 666 356 666 c 0,50,51
 319 666 319 666 319 703 c 0,52,53
 319 742 319 742 356 742 c 0,54,55
 394 742 394 742 394 703 c 0,48,49
282 629 m 256,56,57
 282 592 282 592 243 592 c 0,58,59
 206 592 206 592 206 627 c 0,60,61
 206 666 206 666 243 666 c 0,62,63
 282 666 282 666 282 629 c 256,56,57
771 138 m 0,64,65
 771 101 771 101 734 101 c 256,66,67
 697 101 697 101 697 138 c 0,68,69
 697 177 697 177 734 177 c 256,70,71
 771 177 771 177 771 138 c 0,64,65
658 64 m 0,72,73
 658 27 658 27 621 27 c 256,74,75
 584 27 584 27 584 64 c 0,76,77
 584 103 584 103 621 103 c 256,78,79
 658 103 658 103 658 64 c 0,72,73
206 516 m 0,80,81
 206 477 206 477 171 477 c 0,82,83
 132 477 132 477 132 516 c 0,84,85
 132 553 132 553 169 553 c 256,86,87
 206 553 206 553 206 516 c 0,80,81
180 384 m 256,88,89
 180 347 180 347 143 347 c 0,90,91
 104 347 104 347 104 384 c 256,92,93
 104 421 104 421 143 421 c 0,94,95
 180 421 180 421 180 384 c 256,88,89
525 38 m 0,96,97
 525 -1 525 -1 488 -1 c 256,98,99
 451 -1 451 -1 451 38 c 0,100,101
 451 75 451 75 488 75 c 256,102,103
 525 75 525 75 525 38 c 0,96,97
394 66 m 0,104,105
 394 27 394 27 356 27 c 0,106,107
 319 27 319 27 319 64 c 0,108,109
 319 103 319 103 356 103 c 0,110,111
 394 103 394 103 394 66 c 0,104,105
206 251 m 0,112,113
 206 214 206 214 169 214 c 256,114,115
 132 214 132 214 132 251 c 0,116,117
 132 290 132 290 169 290 c 256,118,119
 206 290 206 290 206 251 c 0,112,113
282 138 m 0,120,121
 282 101 282 101 245 101 c 0,122,123
 206 101 206 101 206 138 c 0,124,125
 206 177 206 177 243 177 c 0,126,127
 282 177 282 177 282 138 c 0,120,121
EndSplineSet
EndChar

StartChar: afii62819
Encoding: 65246 65246 442
Width: 1454
GlyphClass: 2
Flags: W
AnchorPoint: "Anchor-3" 645 -915 basechar 0
AnchorPoint: "Anchor-2" 780 1215 basechar 0
LayerCount: 2
Fore
SplineSet
1484 0 m 1,0,-1
 1395 0 l 2,1,2
 1271 0 1271 0 1171 62 c 1,3,-1
 1171 30 l 2,4,5
 1171 -183 1171 -183 1019.5 -334 c 128,-1,6
 868 -485 868 -485 656 -485 c 0,7,8
 443 -485 443 -485 292 -334 c 128,-1,9
 141 -183 141 -183 141 30 c 0,10,11
 141 246 141 246 296.5 396 c 128,-1,12
 452 546 452 546 685 546 c 1,13,-1
 685 317 l 1,14,15
 547 317 547 317 458.5 234 c 128,-1,16
 370 151 370 151 370 30 c 0,17,18
 370 -88 370 -88 454 -172 c 128,-1,19
 538 -256 538 -256 656 -256 c 256,20,21
 774 -256 774 -256 857.5 -172 c 128,-1,22
 941 -88 941 -88 941 30 c 2,23,-1
 941 1086 l 1,24,-1
 1171 1086 l 1,25,-1
 1171 484 l 2,26,27
 1171 230 1171 230 1395 230 c 2,28,-1
 1484 230 l 1,29,-1
 1484 0 l 1,0,-1
EndSplineSet
EndChar

StartChar: braceright
Encoding: 125 125 445
Width: 547
GlyphClass: 2
Flags: W
LayerCount: 2
Fore
SplineSet
506 365 m 2,0,1
 506 346 506 346 487 346 c 0,2,3
 434 345 434 345 402 318 c 128,-1,4
 370 291 370 291 359 244 c 0,5,6
 349 196 349 196 347 67 c 0,7,8
 346 2 346 2 345 -40.5 c 128,-1,9
 344 -83 344 -83 342 -104 c 0,10,11
 336 -156 336 -156 323.5 -192.5 c 128,-1,12
 311 -229 311 -229 291.5 -254 c 128,-1,13
 272 -279 272 -279 245.5 -295 c 128,-1,14
 219 -311 219 -311 185 -322 c 0,15,16
 154 -332 154 -332 84 -332 c 2,17,-1
 42 -332 l 2,18,19
 34 -332 34 -332 28 -326.5 c 128,-1,20
 22 -321 22 -321 22 -313 c 2,21,-1
 22 -192 l 2,22,23
 22 -184 22 -184 28 -178 c 128,-1,24
 34 -172 34 -172 42 -172 c 2,25,-1
 65 -172 l 2,26,27
 138 -172 138 -172 157 -150 c 0,28,29
 168 -139 168 -139 173 -109.5 c 128,-1,30
 178 -80 178 -80 178 -33 c 0,31,32
 178 65 178 65 179.5 126.5 c 128,-1,33
 181 188 181 188 185 214 c 0,34,35
 196 294 196 294 228.5 345 c 128,-1,36
 261 396 261 396 316 428 c 1,37,38
 248 469 248 469 216 530 c 0,39,40
 178 604 178 604 178 775 c 0,41,42
 178 849 178 849 177 893 c 128,-1,43
 176 937 176 937 174 951 c 0,44,45
 171 995 171 995 150 1011 c 0,46,47
 133 1027 133 1027 65 1027 c 2,48,-1
 42 1027 l 2,49,50
 34 1027 34 1027 28 1032.5 c 128,-1,51
 22 1038 22 1038 22 1046 c 2,52,-1
 22 1167 l 2,53,54
 22 1175 22 1175 28 1181 c 128,-1,55
 34 1187 34 1187 42 1187 c 2,56,-1
 84 1187 l 2,57,58
 166 1187 166 1187 200 1173 c 0,59,60
 251 1154 251 1154 288 1108.5 c 128,-1,61
 325 1063 325 1063 336 1000 c 0,62,63
 341 970 341 970 343.5 919.5 c 128,-1,64
 346 869 346 869 347 798 c 0,65,66
 348 661 348 661 359 611 c 0,67,68
 371 563 371 563 403 537 c 1,69,-1
 403 538 l 1,70,71
 435 512 435 512 487 510 c 0,72,73
 495 510 495 510 500.5 504.5 c 128,-1,74
 506 499 506 499 506 491 c 2,75,-1
 506 365 l 2,0,1
EndSplineSet
EndChar

StartChar: uni0656
Encoding: 1622 1622 452
Width: 0
GlyphClass: 4
Flags: W
AnchorPoint: "Anchor-3" 0 0 mark 0
AnchorPoint: "Anchor-1" 0 0 mark 0
LayerCount: 2
Fore
SplineSet
-52 353 m 1,0,-1
 50 353 l 1,1,-1
 50 0 l 1,2,-1
 -52 0 l 1,3,-1
 -52 353 l 1,0,-1
EndSplineSet
EndChar

StartChar: E005
Encoding: 65578 -1 470
Width: 295
GlyphClass: 3
Flags: W
LayerCount: 2
Fore
SplineSet
-10 0 m 1,0,-1
 -10 147 l 1,1,-1
 305 147 l 1,2,-1
 305 0 l 1,3,-1
 -10 0 l 1,0,-1
EndSplineSet
EndChar

StartChar: afii57470
Encoding: 1726 1726 480
Width: 1166
Flags: W
AnchorPoint: "Anchor-3" 615 -495 basechar 0
AnchorPoint: "Anchor-2" 540 945 basechar 0
LayerCount: 2
Fore
SplineSet
1166 0 m 1,0,-1
 -59 0 l 1,1,-1
 -59 230 l 1,2,-1
 145 230 l 1,3,4
 183 410 183 410 322 532 c 0,5,6
 467 659 467 659 650 659 c 0,7,8
 863 659 863 659 1014.5 507 c 128,-1,9
 1166 355 1166 355 1166 142 c 2,10,-1
 1166 0 l 1,0,-1
923 230 m 1,11,12
 882 355 882 355 762 407 c 1,13,-1
 762 230 l 1,14,-1
 923 230 l 1,11,12
533 230 m 1,15,-1
 533 404 l 1,16,17
 416 352 416 352 378 230 c 1,18,-1
 533 230 l 1,15,-1
EndSplineSet
Substitution2: "'medi' Medial Forms in Arabic lookup 3 subtable" afii62827
Substitution2: "'fina' Terminal Forms in Arabic lookup 2 subtable" afii62827
Substitution2: "'init' Initial Forms in Arabic lookup 1 subtable" afii57470
EndChar

StartChar: at
Encoding: 64 64 489
Width: 1663
Flags: W
LayerCount: 2
Fore
SplineSet
907 70 m 0,0,1
 900 81 900 81 897 102 c 1,2,3
 847 54 847 54 789.5 26 c 128,-1,4
 732 -2 732 -2 673 -2 c 0,5,6
 599 -2 599 -2 530.5 40 c 128,-1,7
 462 82 462 82 418 171 c 0,8,9
 376 259 376 259 376 363 c 0,10,11
 376 427 376 427 392 489.5 c 128,-1,12
 408 552 408 552 440 616 c 0,13,14
 506 745 506 745 603 808 c 0,15,16
 699 873 699 873 795 873 c 0,17,18
 857 873 857 873 914.5 845.5 c 128,-1,19
 972 818 972 818 1017 760 c 1,20,-1
 1034 835 l 2,21,22
 1036 841 1036 841 1041.5 846 c 128,-1,23
 1047 851 1047 851 1053 851 c 2,24,-1
 1191 851 l 2,25,26
 1201 851 1201 851 1206.5 844 c 128,-1,27
 1212 837 1212 837 1210 828 c 2,28,-1
 1100 311 l 2,29,30
 1076 203 1076 203 1076 195 c 0,31,32
 1076 183 1076 183 1086 173.5 c 128,-1,33
 1096 164 1096 164 1111 164 c 0,34,35
 1145 164 1145 164 1206 207 c 0,36,37
 1248 236 1248 236 1281.5 276.5 c 128,-1,38
 1315 317 1315 317 1339 365 c 0,39,40
 1388 465 1388 465 1388 571 c 0,41,42
 1388 694 1388 694 1326 801 c 0,43,44
 1294 854 1294 854 1247.5 897 c 128,-1,45
 1201 940 1201 940 1137 972 c 0,46,47
 1011 1037 1011 1037 857 1037 c 0,48,49
 769 1037 769 1037 689.5 1017.5 c 128,-1,50
 610 998 610 998 538 956 c 0,51,52
 393 873 393 873 314 721 c 0,53,54
 234 570 234 570 234 393 c 0,55,56
 234 209 234 209 313 78 c 128,-1,57
 392 -53 392 -53 542 -115 c 0,58,59
 691 -179 691 -179 878 -179 c 0,60,61
 1078 -179 1078 -179 1207 -114 c 0,62,63
 1341 -47 1341 -47 1405 44 c 0,64,65
 1407 47 1407 47 1411.5 50 c 128,-1,66
 1416 53 1416 53 1420 53 c 2,67,-1
 1560 53 l 2,68,69
 1571 53 1571 53 1576.5 44 c 128,-1,70
 1582 35 1582 35 1577 25 c 0,71,72
 1557 -17 1557 -17 1522.5 -59.5 c 128,-1,73
 1488 -102 1488 -102 1437 -145 c 0,74,75
 1388 -189 1388 -189 1330 -222.5 c 128,-1,76
 1272 -256 1272 -256 1204 -282 c 0,77,78
 1138 -308 1138 -308 1057 -320 c 128,-1,79
 976 -332 976 -332 880 -332 c 0,80,81
 706 -332 706 -332 559 -287 c 128,-1,82
 412 -242 412 -242 307 -151 c 0,83,84
 202 -61 202 -61 149 59 c 0,85,86
 82 208 82 208 82 380 c 0,87,88
 82 472 82 472 103.5 566.5 c 128,-1,89
 125 661 125 661 161 746 c 0,90,91
 209 851 209 851 278 933 c 128,-1,92
 347 1015 347 1015 436 1071.5 c 128,-1,93
 525 1128 525 1128 632.5 1158 c 128,-1,94
 740 1188 740 1188 865 1188 c 0,95,96
 1059 1188 1059 1188 1216 1108 c 256,97,98
 1373 1028 1373 1028 1463 867 c 0,99,100
 1541 730 1541 730 1541 568 c 0,101,102
 1541 453 1541 453 1500 350.5 c 128,-1,103
 1459 248 1459 248 1380 159 c 0,104,105
 1308 82 1308 82 1226 39.5 c 128,-1,106
 1144 -3 1144 -3 1058 -3 c 0,107,108
 999 -3 999 -3 961.5 16 c 128,-1,109
 924 35 924 35 907 70 c 0,0,1
557 353 m 0,110,111
 557 254 557 254 602 202 c 256,112,113
 647 150 647 150 702 150 c 0,114,115
 741 150 741 150 785 174.5 c 128,-1,116
 829 199 829 199 870 245 c 0,117,118
 890 268 890 268 906.5 299.5 c 128,-1,119
 923 331 923 331 937 369 c 0,120,121
 949 407 949 407 956.5 445 c 128,-1,122
 964 483 964 483 964 519 c 0,123,124
 964 616 964 616 917 669 c 0,125,126
 870 720 870 720 804 720 c 0,127,128
 759 720 759 720 719.5 697 c 128,-1,129
 680 674 680 674 642 622 c 0,130,131
 602 568 602 568 580 493 c 0,132,133
 568 455 568 455 562.5 420 c 128,-1,134
 557 385 557 385 557 353 c 0,110,111
EndSplineSet
EndChar

StartChar: A
Encoding: 65 65 490
Width: 1093
Flags: W
LayerCount: 2
Fore
SplineSet
5 0 m 2,0,1
 -6 0 -6 0 -11.5 8 c 128,-1,2
 -17 16 -17 16 -13 26 c 2,3,-1
 425 1167 l 2,4,5
 427 1172 427 1172 432.5 1176 c 128,-1,6
 438 1180 438 1180 443 1180 c 2,7,-1
 606 1180 l 2,8,9
 611 1180 611 1180 616.5 1176.5 c 128,-1,10
 622 1173 622 1173 624 1168 c 2,11,-1
 1091 27 l 2,12,13
 1096 17 1096 17 1090 8.5 c 128,-1,14
 1084 0 1084 0 1073 0 c 2,15,-1
 900 0 l 2,16,17
 895 0 895 0 889.5 4 c 128,-1,18
 884 8 884 8 882 13 c 2,19,-1
 755 345 l 1,20,-1
 304 345 l 1,21,-1
 183 13 l 2,22,23
 182 8 182 8 176 4 c 128,-1,24
 170 0 170 0 165 0 c 2,25,-1
 5 0 l 2,0,1
363 508 m 1,26,-1
 693 508 l 1,27,-1
 583 797 l 2,28,29
 570 830 570 830 562 852 c 128,-1,30
 554 874 554 874 547.5 891 c 128,-1,31
 541 908 541 908 536 924 c 128,-1,32
 531 940 531 940 524 963 c 1,33,34
 514 926 514 926 503 890 c 128,-1,35
 492 854 492 854 478 816 c 2,36,-1
 363 508 l 1,26,-1
EndSplineSet
EndChar

StartChar: B
Encoding: 66 66 491
Width: 1093
Flags: W
LayerCount: 2
Fore
SplineSet
124 0 m 2,0,1
 116 0 116 0 110.5 5.5 c 128,-1,2
 105 11 105 11 105 19 c 2,3,-1
 105 1161 l 2,4,5
 105 1169 105 1169 110.5 1174.5 c 128,-1,6
 116 1180 116 1180 124 1180 c 2,7,-1
 552 1180 l 2,8,9
 688 1180 688 1180 771 1143 c 128,-1,10
 854 1106 854 1106 903 1029 c 1,11,-1
 903 1030 l 1,12,13
 950 957 950 957 950 869 c 0,14,15
 950 799 950 799 917 737.5 c 128,-1,16
 884 676 884 676 818 631 c 1,17,18
 911 595 911 595 958.5 521 c 128,-1,19
 1006 447 1006 447 1006 350 c 0,20,21
 1006 308 1006 308 996.5 268.5 c 128,-1,22
 987 229 987 229 970 193 c 0,23,24
 934 119 934 119 880 79 c 0,25,26
 828 39 828 39 750 19.5 c 128,-1,27
 672 0 672 0 559 0 c 2,28,-1
 124 0 l 2,0,1
295 700 m 1,29,-1
 522 700 l 2,30,31
 572 700 572 700 606 703.5 c 128,-1,32
 640 707 640 707 660 713 c 0,33,34
 763 744 763 744 763 850 c 0,35,36
 763 901 763 901 739 939 c 128,-1,37
 715 977 715 977 671 991 c 0,38,39
 623 1006 623 1006 504 1006 c 2,40,-1
 295 1006 l 1,41,-1
 295 700 l 1,29,-1
295 173 m 1,42,-1
 559 173 l 2,43,44
 628 173 628 173 658 179 c 0,45,46
 706 188 706 188 737.5 207 c 128,-1,47
 769 226 769 226 789 264 c 0,48,49
 810 303 810 303 810 350 c 0,50,51
 810 405 810 405 779 447.5 c 128,-1,52
 748 490 748 490 700 509 c 0,53,54
 673 517 673 517 632 522 c 128,-1,55
 591 527 591 527 539 527 c 2,56,-1
 295 527 l 1,57,-1
 295 173 l 1,42,-1
EndSplineSet
EndChar

StartChar: C
Encoding: 67 67 492
Width: 1183
Flags: W
LayerCount: 2
Fore
SplineSet
1101 400 m 2,0,1
 1109 398 1109 398 1112.5 391 c 128,-1,2
 1116 384 1116 384 1114 376 c 0,3,4
 1090 280 1090 280 1045 206 c 128,-1,5
 1000 132 1000 132 937 82 c 128,-1,6
 874 32 874 32 795 6.5 c 128,-1,7
 716 -19 716 -19 624 -19 c 0,8,9
 433 -19 433 -19 313 58.5 c 128,-1,10
 193 136 193 136 131 284 c 0,11,12
 100 358 100 358 84 436 c 128,-1,13
 68 514 68 514 68 598 c 0,14,15
 68 783 68 783 138.5 919.5 c 128,-1,16
 209 1056 209 1056 340 1128 c 0,17,18
 405 1163 405 1163 476.5 1181.5 c 128,-1,19
 548 1200 548 1200 626 1200 c 0,20,21
 806 1200 806 1200 926.5 1109.5 c 128,-1,22
 1047 1019 1047 1019 1095 853 c 0,23,24
 1100 834 1100 834 1081 829 c 2,25,-1
 933 794 l 2,26,27
 926 792 926 792 919 795.5 c 128,-1,28
 912 799 912 799 910 806 c 0,29,30
 872 924 872 924 802 977.5 c 128,-1,31
 732 1031 732 1031 623 1031 c 0,32,33
 562 1031 562 1031 510 1014.5 c 128,-1,34
 458 998 458 998 416.5 969 c 128,-1,35
 375 940 375 940 345 900 c 128,-1,36
 315 860 315 860 297 812 c 0,37,38
 281 761 281 761 272 707.5 c 128,-1,39
 263 654 263 654 263 599 c 0,40,41
 263 459 263 459 303 354.5 c 128,-1,42
 343 250 343 250 427 199 c 0,43,44
 511 149 511 149 611 149 c 0,45,46
 670 149 670 149 721 166.5 c 128,-1,47
 772 184 772 184 812.5 218.5 c 128,-1,48
 853 253 853 253 882 304 c 128,-1,49
 911 355 911 355 926 423 c 0,50,51
 927 431 927 431 934.5 435.5 c 128,-1,52
 942 440 942 440 950 438 c 2,53,-1
 1101 400 l 2,0,1
EndSplineSet
EndChar

StartChar: D
Encoding: 68 68 493
Width: 1183
Flags: W
LayerCount: 2
Fore
SplineSet
131 0 m 2,0,1
 123 0 123 0 117 5.5 c 128,-1,2
 111 11 111 11 111 19 c 2,3,-1
 111 1161 l 2,4,5
 111 1169 111 1169 117 1174.5 c 128,-1,6
 123 1180 123 1180 131 1180 c 2,7,-1
 524 1180 l 2,8,9
 655 1180 655 1180 731 1163 c 1,10,-1
 731 1164 l 1,11,12
 780 1153 780 1153 826 1130 c 128,-1,13
 872 1107 872 1107 907 1077 c 0,14,15
 1000 998 1000 998 1047 875 c 128,-1,16
 1094 752 1094 752 1094 596 c 0,17,18
 1094 494 1094 494 1076 411.5 c 128,-1,19
 1058 329 1058 329 1027 265 c 128,-1,20
 996 201 996 201 956 155 c 128,-1,21
 916 109 916 109 873 80 c 0,22,23
 755 0 755 0 543 0 c 2,24,-1
 131 0 l 2,0,1
302 173 m 1,25,-1
 526 173 l 2,26,27
 580 173 580 173 622 178 c 128,-1,28
 664 183 664 183 695.5 193 c 128,-1,29
 727 203 727 203 750.5 216.5 c 128,-1,30
 774 230 774 230 791 248 c 0,31,32
 842 299 842 299 870.5 386 c 128,-1,33
 899 473 899 473 899 598 c 0,34,35
 899 773 899 773 843 863 c 0,36,37
 817 907 817 907 782.5 937.5 c 128,-1,38
 748 968 748 968 711 984 c 0,39,40
 682 994 682 994 633.5 1000 c 128,-1,41
 585 1006 585 1006 522 1006 c 2,42,-1
 302 1006 l 1,43,-1
 302 173 l 1,25,-1
EndSplineSet
EndChar

StartChar: E
Encoding: 69 69 494
Width: 1093
Flags: W
LayerCount: 2
Fore
SplineSet
134 0 m 2,0,1
 126 0 126 0 120.5 5.5 c 128,-1,2
 115 11 115 11 115 19 c 2,3,-1
 115 1161 l 2,4,5
 115 1169 115 1169 120.5 1174.5 c 128,-1,6
 126 1180 126 1180 134 1180 c 2,7,-1
 959 1180 l 2,8,9
 967 1180 967 1180 973 1174.5 c 128,-1,10
 979 1169 979 1169 979 1161 c 2,11,-1
 979 1025 l 2,12,13
 979 1017 979 1017 973 1011.5 c 128,-1,14
 967 1006 967 1006 959 1006 c 2,15,-1
 304 1006 l 1,16,-1
 304 696 l 1,17,-1
 916 696 l 2,18,19
 924 696 924 696 930 690 c 128,-1,20
 936 684 936 684 936 676 c 2,21,-1
 936 543 l 2,22,23
 936 535 936 535 930 529 c 128,-1,24
 924 523 924 523 916 523 c 2,25,-1
 304 523 l 1,26,-1
 304 173 l 1,27,-1
 985 173 l 2,28,29
 993 173 993 173 999 167.5 c 128,-1,30
 1005 162 1005 162 1005 154 c 2,31,-1
 1005 19 l 2,32,33
 1005 11 1005 11 999 5.5 c 128,-1,34
 993 0 993 0 985 0 c 2,35,-1
 134 0 l 2,0,1
EndSplineSet
EndChar

StartChar: F
Encoding: 70 70 495
Width: 1001
Flags: W
LayerCount: 2
Fore
SplineSet
138 0 m 2,0,1
 130 0 130 0 124 5.5 c 128,-1,2
 118 11 118 11 118 19 c 2,3,-1
 118 1161 l 2,4,5
 118 1169 118 1169 124 1174.5 c 128,-1,6
 130 1180 130 1180 138 1180 c 2,7,-1
 908 1180 l 2,8,9
 916 1180 916 1180 922 1174.5 c 128,-1,10
 928 1169 928 1169 928 1161 c 2,11,-1
 928 1025 l 2,12,13
 928 1017 928 1017 922 1011.5 c 128,-1,14
 916 1006 916 1006 908 1006 c 2,15,-1
 309 1006 l 1,16,-1
 309 692 l 1,17,-1
 824 692 l 2,18,19
 832 692 832 692 838 686 c 128,-1,20
 844 680 844 680 844 672 c 2,21,-1
 844 538 l 2,22,23
 844 530 844 530 838 524.5 c 128,-1,24
 832 519 832 519 824 519 c 2,25,-1
 309 519 l 1,26,-1
 309 19 l 2,27,28
 309 11 309 11 303 5.5 c 128,-1,29
 297 0 297 0 289 0 c 2,30,-1
 138 0 l 2,0,1
EndSplineSet
EndChar

StartChar: G
Encoding: 71 71 496
Width: 1274
Flags: W
LayerCount: 2
Fore
SplineSet
665 448 m 2,0,1
 657 448 657 448 651.5 453.5 c 128,-1,2
 646 459 646 459 646 467 c 2,3,-1
 646 601 l 2,4,5
 646 609 646 609 651.5 615 c 128,-1,6
 657 621 657 621 665 621 c 2,7,-1
 1149 621 l 2,8,9
 1157 621 1157 621 1162.5 615 c 128,-1,10
 1168 609 1168 609 1168 601 c 2,11,-1
 1168 178 l 2,12,13
 1168 175 1168 175 1165 169.5 c 128,-1,14
 1162 164 1162 164 1160 162 c 0,15,16
 934 -19 934 -19 676 -19 c 0,17,18
 506 -19 506 -19 362 54 c 0,19,20
 219 129 219 129 146 271 c 0,21,22
 74 412 74 412 74 585 c 0,23,24
 74 754 74 754 145 904 c 0,25,26
 217 1053 217 1053 354 1128 c 0,27,28
 422 1163 422 1163 499 1181.5 c 128,-1,29
 576 1200 576 1200 664 1200 c 0,30,31
 728 1200 728 1200 786.5 1189 c 128,-1,32
 845 1178 845 1178 896 1157 c 128,-1,33
 947 1136 947 1136 988.5 1106 c 128,-1,34
 1030 1076 1030 1076 1060 1039 c 0,35,36
 1087 1003 1087 1003 1111 953 c 128,-1,37
 1135 903 1135 903 1150 846 c 0,38,39
 1152 839 1152 839 1148 832 c 128,-1,40
 1144 825 1144 825 1136 823 c 2,41,-1
 1000 785 l 2,42,43
 981 780 981 780 977 799 c 0,44,45
 953 882 953 882 916 929 c 0,46,47
 899 952 899 952 874 970.5 c 128,-1,48
 849 989 849 989 815 1003 c 0,49,50
 749 1031 749 1031 665 1031 c 0,51,52
 590 1031 590 1031 532 1013.5 c 128,-1,53
 474 996 474 996 430.5 966.5 c 128,-1,54
 387 937 387 937 357.5 897.5 c 128,-1,55
 328 858 328 858 310 815 c 0,56,57
 268 714 268 714 268 593 c 0,58,59
 268 447 268 447 317.5 349 c 128,-1,60
 367 251 367 251 463 203 c 0,61,62
 511 179 511 179 562.5 167.5 c 128,-1,63
 614 156 614 156 668 156 c 0,64,65
 713 156 713 156 759.5 165.5 c 128,-1,66
 806 175 806 175 851 193 c 0,67,68
 892 210 892 210 926 228 c 128,-1,69
 960 246 960 246 981 264 c 1,70,-1
 981 448 l 1,71,-1
 665 448 l 2,0,1
EndSplineSet
EndChar

StartChar: H
Encoding: 72 72 497
Width: 1183
Flags: W
LayerCount: 2
Fore
SplineSet
135 0 m 2,0,1
 127 0 127 0 121.5 5.5 c 128,-1,2
 116 11 116 11 116 19 c 2,3,-1
 116 1161 l 2,4,5
 116 1169 116 1169 121.5 1174.5 c 128,-1,6
 127 1180 127 1180 135 1180 c 2,7,-1
 286 1180 l 2,8,9
 294 1180 294 1180 300 1174.5 c 128,-1,10
 306 1169 306 1169 306 1161 c 2,11,-1
 306 711 l 1,12,-1
 860 711 l 1,13,-1
 860 1161 l 2,14,15
 860 1169 860 1169 866 1174.5 c 128,-1,16
 872 1180 872 1180 880 1180 c 2,17,-1
 1030 1180 l 2,18,19
 1038 1180 1038 1180 1044 1174.5 c 128,-1,20
 1050 1169 1050 1169 1050 1161 c 2,21,-1
 1050 19 l 2,22,23
 1050 11 1050 11 1044 5.5 c 128,-1,24
 1038 0 1038 0 1030 0 c 2,25,-1
 880 0 l 2,26,27
 872 0 872 0 866 5.5 c 128,-1,28
 860 11 860 11 860 19 c 2,29,-1
 860 538 l 1,30,-1
 306 538 l 1,31,-1
 306 19 l 2,32,33
 306 11 306 11 300 5.5 c 128,-1,34
 294 0 294 0 286 0 c 2,35,-1
 135 0 l 2,0,1
EndSplineSet
EndChar

StartChar: I
Encoding: 73 73 498
Width: 455
Flags: W
LayerCount: 2
Fore
SplineSet
152 0 m 2,0,1
 144 0 144 0 138.5 5.5 c 128,-1,2
 133 11 133 11 133 19 c 2,3,-1
 133 1161 l 2,4,5
 133 1169 133 1169 138.5 1174.5 c 128,-1,6
 144 1180 144 1180 152 1180 c 2,7,-1
 303 1180 l 2,8,9
 311 1180 311 1180 316.5 1174.5 c 128,-1,10
 322 1169 322 1169 322 1161 c 2,11,-1
 322 19 l 2,12,13
 322 11 322 11 316.5 5.5 c 128,-1,14
 311 0 311 0 303 0 c 2,15,-1
 152 0 l 2,0,1
EndSplineSet
EndChar

StartChar: J
Encoding: 74 74 499
Width: 819
Flags: W
LayerCount: 2
Fore
SplineSet
184 381 m 2,0,1
 193 383 193 383 199 377.5 c 128,-1,2
 205 372 205 372 206 363 c 0,3,4
 212 240 212 240 250 196 c 0,5,6
 286 154 286 154 357 154 c 0,7,8
 407 154 407 154 443.5 177 c 128,-1,9
 480 200 480 200 493 238 c 0,10,11
 508 281 508 281 508 375 c 2,12,-1
 508 1161 l 2,13,14
 508 1169 508 1169 513.5 1174.5 c 128,-1,15
 519 1180 519 1180 527 1180 c 2,16,-1
 678 1180 l 2,17,18
 686 1180 686 1180 692 1174.5 c 128,-1,19
 698 1169 698 1169 698 1161 c 2,20,-1
 698 383 l 2,21,22
 698 309 698 309 688 252 c 128,-1,23
 678 195 678 195 661 153 c 0,24,25
 641 111 641 111 612 78.5 c 128,-1,26
 583 46 583 46 543 23 c 0,27,28
 465 -19 465 -19 357 -19 c 0,29,30
 197 -19 197 -19 112.5 72 c 128,-1,31
 28 163 28 163 31 343 c 0,32,33
 31 350 31 350 36 356 c 128,-1,34
 41 362 41 362 48 363 c 2,35,-1
 184 381 l 2,0,1
EndSplineSet
EndChar

StartChar: K
Encoding: 75 75 500
Width: 1093
Flags: W
LayerCount: 2
Fore
SplineSet
125 0 m 2,0,1
 117 0 117 0 111 5.5 c 128,-1,2
 105 11 105 11 105 19 c 2,3,-1
 105 1161 l 2,4,5
 105 1169 105 1169 111 1174.5 c 128,-1,6
 117 1180 117 1180 125 1180 c 2,7,-1
 276 1180 l 2,8,9
 284 1180 284 1180 289.5 1174.5 c 128,-1,10
 295 1169 295 1169 295 1161 c 2,11,-1
 295 641 l 1,12,-1
 829 1174 l 2,13,14
 831 1176 831 1176 836 1178 c 128,-1,15
 841 1180 841 1180 843 1180 c 2,16,-1
 1047 1180 l 2,17,18
 1061 1180 1061 1180 1066 1168.5 c 128,-1,19
 1071 1157 1071 1157 1061 1147 c 2,20,-1
 595 697 l 1,21,-1
 1084 31 l 2,22,23
 1092 21 1092 21 1087 10.5 c 128,-1,24
 1082 0 1082 0 1069 0 c 2,25,-1
 869 0 l 2,26,27
 865 0 865 0 860.5 3 c 128,-1,28
 856 6 856 6 854 9 c 2,29,-1
 460 568 l 1,30,31
 416 526 416 526 378 487 c 128,-1,32
 340 448 340 448 295 406 c 1,33,-1
 295 19 l 2,34,35
 295 11 295 11 289.5 5.5 c 128,-1,36
 284 0 284 0 276 0 c 2,37,-1
 125 0 l 2,0,1
EndSplineSet
EndChar

StartChar: L
Encoding: 76 76 501
Width: 911
Flags: W
LayerCount: 2
Fore
SplineSet
123 0 m 2,0,1
 115 0 115 0 109.5 5.5 c 128,-1,2
 104 11 104 11 104 19 c 2,3,-1
 104 1161 l 2,4,5
 104 1169 104 1169 109.5 1174.5 c 128,-1,6
 115 1180 115 1180 123 1180 c 2,7,-1
 274 1180 l 2,8,9
 282 1180 282 1180 288 1174.5 c 128,-1,10
 294 1169 294 1169 294 1161 c 2,11,-1
 294 173 l 1,12,-1
 836 173 l 2,13,14
 844 173 844 173 850 167.5 c 128,-1,15
 856 162 856 162 856 154 c 2,16,-1
 856 19 l 2,17,18
 856 11 856 11 850 5.5 c 128,-1,19
 844 0 844 0 836 0 c 2,20,-1
 123 0 l 2,0,1
EndSplineSet
EndChar

StartChar: M
Encoding: 77 77 502
Width: 1365
Flags: W
LayerCount: 2
Fore
SplineSet
128 0 m 2,0,1
 120 0 120 0 114 5.5 c 128,-1,2
 108 11 108 11 108 19 c 2,3,-1
 108 1161 l 2,4,5
 108 1169 108 1169 114 1174.5 c 128,-1,6
 120 1180 120 1180 128 1180 c 2,7,-1
 355 1180 l 2,8,9
 360 1180 360 1180 365.5 1175.5 c 128,-1,10
 371 1171 371 1171 373 1166 c 2,11,-1
 644 358 l 1,12,-1
 680 248 l 1,13,-1
 717 360 l 1,14,-1
 722 376 l 1,15,-1
 995 1166 l 2,16,17
 997 1171 997 1171 1002.5 1175.5 c 128,-1,18
 1008 1180 1008 1180 1013 1180 c 2,19,-1
 1217 1180 l 2,20,21
 1225 1180 1225 1180 1230.5 1174.5 c 128,-1,22
 1236 1169 1236 1169 1236 1161 c 2,23,-1
 1236 19 l 2,24,25
 1236 11 1236 11 1230.5 5.5 c 128,-1,26
 1225 0 1225 0 1217 0 c 2,27,-1
 1071 0 l 2,28,29
 1063 0 1063 0 1057 5.5 c 128,-1,30
 1051 11 1051 11 1051 19 c 2,31,-1
 1051 857 l 1,32,33
 978 645 978 645 904.5 435 c 128,-1,34
 831 225 831 225 757 13 c 0,35,36
 755 8 755 8 749.5 4 c 128,-1,37
 744 0 744 0 739 0 c 2,38,-1
 603 0 l 2,39,40
 598 0 598 0 592 4.5 c 128,-1,41
 586 9 586 9 584 14 c 2,42,-1
 292 873 l 1,43,-1
 292 19 l 2,44,45
 292 11 292 11 286.5 5.5 c 128,-1,46
 281 0 281 0 273 0 c 2,47,-1
 128 0 l 2,0,1
EndSplineSet
EndChar

StartChar: N
Encoding: 78 78 503
Width: 1183
Flags: W
LayerCount: 2
Fore
SplineSet
130 0 m 2,0,1
 122 0 122 0 116 5.5 c 128,-1,2
 110 11 110 11 110 19 c 2,3,-1
 110 1161 l 2,4,5
 110 1169 110 1169 116 1174.5 c 128,-1,6
 122 1180 122 1180 130 1180 c 2,7,-1
 284 1180 l 2,8,9
 288 1180 288 1180 293.5 1177 c 128,-1,10
 299 1174 299 1174 301 1171 c 2,11,-1
 864 330 l 1,12,-1
 864 1161 l 2,13,14
 864 1169 864 1169 870 1174.5 c 128,-1,15
 876 1180 876 1180 884 1180 c 2,16,-1
 1028 1180 l 2,17,18
 1036 1180 1036 1180 1042 1174.5 c 128,-1,19
 1048 1169 1048 1169 1048 1161 c 2,20,-1
 1048 19 l 2,21,22
 1048 11 1048 11 1042 5.5 c 128,-1,23
 1036 0 1036 0 1028 0 c 2,24,-1
 874 0 l 2,25,26
 870 0 870 0 864.5 3 c 128,-1,27
 859 6 859 6 857 9 c 2,28,-1
 294 851 l 1,29,-1
 294 19 l 2,30,31
 294 11 294 11 288.5 5.5 c 128,-1,32
 283 0 283 0 275 0 c 2,33,-1
 130 0 l 2,0,1
EndSplineSet
EndChar

StartChar: O
Encoding: 79 79 504
Width: 1274
Flags: W
LayerCount: 2
Fore
SplineSet
66 575 m 0,0,1
 66 865 66 865 225 1033 c 1,2,-1
 224 1033 l 1,3,4
 382 1200 382 1200 632 1200 c 0,5,6
 794 1200 794 1200 926 1122 c 0,7,8
 1060 1041 1060 1041 1127 903 c 0,9,10
 1160 834 1160 834 1178.5 754 c 128,-1,11
 1197 674 1197 674 1197 589 c 0,12,13
 1197 499 1197 499 1178.5 419.5 c 128,-1,14
 1160 340 1160 340 1125 269 c 0,15,16
 1051 126 1051 126 918 53 c 0,17,18
 786 -19 786 -19 631 -19 c 0,19,20
 465 -19 465 -19 334 61 c 0,21,22
 200 144 200 144 133 281 c 0,23,24
 66 421 66 421 66 575 c 0,0,1
261 573 m 0,25,26
 261 374 261 374 367 262 c 0,27,28
 474 149 474 149 630 149 c 0,29,30
 792 149 792 149 896 262 c 0,31,32
 1002 377 1002 377 1002 590 c 0,33,34
 1002 724 1002 724 956.5 822.5 c 128,-1,35
 911 921 911 921 826 977 c 0,36,37
 783 1003 783 1003 734.5 1017 c 128,-1,38
 686 1031 686 1031 633 1031 c 0,39,40
 482 1031 482 1031 371 926 c 0,41,42
 261 822 261 822 261 573 c 0,25,26
EndSplineSet
EndChar

StartChar: P
Encoding: 80 80 505
Width: 1093
Flags: W
LayerCount: 2
Fore
SplineSet
130 0 m 2,0,1
 122 0 122 0 116.5 5.5 c 128,-1,2
 111 11 111 11 111 19 c 2,3,-1
 111 1161 l 2,4,5
 111 1169 111 1169 116.5 1174.5 c 128,-1,6
 122 1180 122 1180 130 1180 c 2,7,-1
 561 1180 l 2,8,9
 676 1180 676 1180 737 1169 c 0,10,11
 828 1154 828 1154 887.5 1111.5 c 128,-1,12
 947 1069 947 1069 985 994 c 0,13,14
 1021 920 1021 920 1021 831 c 0,15,16
 1021 754 1021 754 997 689 c 128,-1,17
 973 624 973 624 923 570 c 1,18,-1
 923 571 l 1,19,20
 826 464 826 464 574 464 c 2,21,-1
 302 464 l 1,22,-1
 302 19 l 2,23,24
 302 11 302 11 296 5.5 c 128,-1,25
 290 0 290 0 282 0 c 2,26,-1
 130 0 l 2,0,1
302 637 m 1,27,-1
 577 637 l 2,28,29
 645 637 645 637 692.5 649.5 c 128,-1,30
 740 662 740 662 770 686.5 c 128,-1,31
 800 711 800 711 813.5 746 c 128,-1,32
 827 781 827 781 827 826 c 0,33,34
 827 857 827 857 818 885 c 128,-1,35
 809 913 809 913 793 935 c 128,-1,36
 777 957 777 957 755.5 973 c 128,-1,37
 734 989 734 989 709 997 c 0,38,39
 674 1006 674 1006 574 1006 c 2,40,-1
 302 1006 l 1,41,-1
 302 637 l 1,27,-1
EndSplineSet
EndChar

StartChar: Q
Encoding: 81 81 506
Width: 1274
Flags: W
LayerCount: 2
Fore
SplineSet
1188 591 m 0,0,1
 1188 312 1188 312 1026 144 c 1,2,3
 1071 114 1071 114 1113 91.5 c 128,-1,4
 1155 69 1155 69 1197 54 c 0,5,6
 1205 52 1205 52 1207.5 44 c 128,-1,7
 1210 36 1210 36 1207 28 c 2,8,-1
 1163 -77 l 2,9,10
 1161 -85 1161 -85 1154 -87.5 c 128,-1,11
 1147 -90 1147 -90 1139 -88 c 0,12,13
 1077 -65 1077 -65 1018 -32.5 c 128,-1,14
 959 0 959 0 899 48 c 1,15,16
 772 -19 772 -19 621 -19 c 0,17,18
 461 -19 461 -19 330 58 c 0,19,20
 198 135 198 135 127 276 c 0,21,22
 92 346 92 346 74.5 424 c 128,-1,23
 57 502 57 502 57 590 c 0,24,25
 57 760 57 760 127 906 c 0,26,27
 200 1051 200 1051 331 1125 c 0,28,29
 463 1200 463 1200 624 1200 c 256,30,31
 785 1200 785 1200 917 1122 c 0,32,33
 983 1084 983 1084 1034 1028.5 c 128,-1,34
 1085 973 1085 973 1119 904 c 0,35,36
 1152 835 1152 835 1170 755.5 c 128,-1,37
 1188 676 1188 676 1188 591 c 0,0,1
646 340 m 2,38,39
 648 348 648 348 655 351.5 c 128,-1,40
 662 355 662 355 669 353 c 0,41,42
 732 336 732 336 784 310 c 128,-1,43
 836 284 836 284 878 251 c 1,44,45
 938 309 938 309 965.5 392.5 c 128,-1,46
 993 476 993 476 993 591 c 0,47,48
 993 725 993 725 947.5 823 c 128,-1,49
 902 921 902 921 817 977 c 0,50,51
 731 1031 731 1031 625 1031 c 0,52,53
 545 1031 545 1031 477.5 1002 c 128,-1,54
 410 973 410 973 357 921 c 1,55,56
 307 866 307 866 279.5 782.5 c 128,-1,57
 252 699 252 699 252 590 c 0,58,59
 252 375 252 375 357 261 c 1,60,-1
 357 262 l 1,61,62
 464 149 464 149 625 149 c 0,63,64
 678 149 678 149 732 163 c 1,65,66
 704 179 704 179 678 189 c 128,-1,67
 652 199 652 199 623 206 c 0,68,69
 614 208 614 208 610 215.5 c 128,-1,70
 606 223 606 223 609 231 c 2,71,-1
 646 340 l 2,38,39
EndSplineSet
EndChar

StartChar: R
Encoding: 82 82 507
Width: 1183
Flags: W
LayerCount: 2
Fore
SplineSet
134 0 m 2,0,1
 126 0 126 0 120.5 5.5 c 128,-1,2
 115 11 115 11 115 19 c 2,3,-1
 115 1161 l 2,4,5
 115 1169 115 1169 120.5 1174.5 c 128,-1,6
 126 1180 126 1180 134 1180 c 2,7,-1
 640 1180 l 2,8,9
 718 1180 718 1180 777.5 1171.5 c 128,-1,10
 837 1163 837 1163 878 1148 c 0,11,12
 920 1131 920 1131 955 1101.5 c 128,-1,13
 990 1072 990 1072 1015 1031 c 1,14,-1
 1015 1032 l 1,15,16
 1041 991 1041 991 1053 945.5 c 128,-1,17
 1065 900 1065 900 1065 849 c 0,18,19
 1065 731 1065 731 996.5 646.5 c 128,-1,20
 928 562 928 562 783 529 c 1,21,22
 798 521 798 521 808.5 512.5 c 128,-1,23
 819 504 819 504 829 496 c 0,24,25
 863 465 863 465 895.5 425.5 c 128,-1,26
 928 386 928 386 957 340 c 0,27,28
 1005 268 1005 268 1056.5 185 c 128,-1,29
 1108 102 1108 102 1156 30 c 0,30,31
 1163 20 1163 20 1157.5 10 c 128,-1,32
 1152 0 1152 0 1139 0 c 2,33,-1
 950 0 l 2,34,35
 946 0 946 0 940.5 3 c 128,-1,36
 935 6 935 6 933 9 c 2,37,-1
 782 246 l 2,38,39
 737 317 737 317 702.5 363.5 c 128,-1,40
 668 410 668 410 639.5 438.5 c 128,-1,41
 611 467 611 467 587 481.5 c 128,-1,42
 563 496 563 496 539 502 c 0,43,44
 516 507 516 507 460 507 c 2,45,-1
 305 507 l 1,46,-1
 305 19 l 2,47,48
 305 11 305 11 299 5.5 c 128,-1,49
 293 0 293 0 285 0 c 2,50,-1
 134 0 l 2,0,1
305 676 m 1,51,-1
 610 676 l 2,52,53
 702 676 702 676 758.5 697.5 c 128,-1,54
 815 719 815 719 843 757 c 0,55,56
 856 777 856 777 863.5 801.5 c 128,-1,57
 871 826 871 826 871 849 c 0,58,59
 871 921 871 921 819 967 c 0,60,61
 766 1015 766 1015 646 1015 c 2,62,-1
 305 1015 l 1,63,-1
 305 676 l 1,51,-1
EndSplineSet
EndChar

StartChar: S
Encoding: 83 83 508
Width: 1093
Flags: W
LayerCount: 2
Fore
SplineSet
219 418 m 2,0,1
 227 419 227 419 233.5 414 c 128,-1,2
 240 409 240 409 241 401 c 0,3,4
 249 322 249 322 284.5 270.5 c 128,-1,5
 320 219 320 219 391 187 c 0,6,7
 464 155 464 155 558 155 c 0,8,9
 619 154 619 154 668.5 167.5 c 128,-1,10
 718 181 718 181 752.5 205 c 128,-1,11
 787 229 787 229 805.5 260.5 c 128,-1,12
 824 292 824 292 823 328 c 0,13,14
 823 376 823 376 795 411.5 c 128,-1,15
 767 447 767 447 701 472 c 0,16,17
 677 481 677 481 627 495 c 128,-1,18
 577 509 577 509 500 527 c 0,19,20
 420 547 420 547 364 564.5 c 128,-1,21
 308 582 308 582 276 599 c 0,22,23
 191 646 191 646 147 713.5 c 128,-1,24
 103 781 103 781 103 866 c 0,25,26
 103 911 103 911 116 955 c 128,-1,27
 129 999 129 999 155 1037.5 c 128,-1,28
 181 1076 181 1076 219 1107 c 128,-1,29
 257 1138 257 1138 307 1159 c 0,30,31
 407 1200 407 1200 524 1200 c 0,32,33
 624 1201 624 1201 706 1175.5 c 128,-1,34
 788 1150 788 1150 847 1102 c 128,-1,35
 906 1054 906 1054 938.5 987 c 128,-1,36
 971 920 971 920 972 839 c 0,37,38
 972 821 972 821 954 819 c 2,39,-1
 809 808 l 2,40,41
 801 807 801 807 795 812.5 c 128,-1,42
 789 818 789 818 789 826 c 0,43,44
 778 926 778 926 716 976.5 c 128,-1,45
 654 1027 654 1027 531 1027 c 0,46,47
 400 1027 400 1027 342 981 c 0,48,49
 288 939 288 939 288 876 c 0,50,51
 288 822 288 822 325 789 c 0,52,53
 367 752 367 752 543 711 c 1,54,-1
 543 712 l 1,55,56
 726 672 726 672 800 638 c 0,57,58
 906 588 906 588 956 514.5 c 128,-1,59
 1006 441 1006 441 1006 341 c 0,60,61
 1006 244 1006 244 951 160 c 0,62,63
 924 118 924 118 883.5 84 c 128,-1,64
 843 50 843 50 792 27 c 0,65,66
 691 -19 691 -19 566 -19 c 0,67,68
 405 -19 405 -19 296.5 28 c 128,-1,69
 188 75 188 75 125 170 c 0,70,71
 63 263 63 263 60 385 c 0,72,73
 60 393 60 393 65 399 c 128,-1,74
 70 405 70 405 77 406 c 2,75,-1
 219 418 l 2,0,1
EndSplineSet
EndChar

StartChar: T
Encoding: 84 84 509
Width: 1001
Flags: W
LayerCount: 2
Fore
SplineSet
420 0 m 2,0,1
 412 0 412 0 406.5 5.5 c 128,-1,2
 401 11 401 11 401 19 c 2,3,-1
 401 1006 l 1,4,-1
 44 1006 l 2,5,6
 36 1006 36 1006 30 1011.5 c 128,-1,7
 24 1017 24 1017 24 1025 c 2,8,-1
 24 1161 l 2,9,10
 24 1169 24 1169 30 1174.5 c 128,-1,11
 36 1180 36 1180 44 1180 c 2,12,-1
 949 1180 l 2,13,14
 957 1180 957 1180 962.5 1174.5 c 128,-1,15
 968 1169 968 1169 968 1161 c 2,16,-1
 968 1025 l 2,17,18
 968 1017 968 1017 962.5 1011.5 c 128,-1,19
 957 1006 957 1006 949 1006 c 2,20,-1
 591 1006 l 1,21,-1
 591 19 l 2,22,23
 591 11 591 11 585 5.5 c 128,-1,24
 579 0 579 0 571 0 c 2,25,-1
 420 0 l 2,0,1
EndSplineSet
EndChar

StartChar: U
Encoding: 85 85 510
Width: 1183
Flags: W
LayerCount: 2
Fore
SplineSet
860 1161 m 2,0,1
 860 1169 860 1169 866 1174.5 c 128,-1,2
 872 1180 872 1180 880 1180 c 2,3,-1
 1030 1180 l 2,4,5
 1038 1180 1038 1180 1044 1174.5 c 128,-1,6
 1050 1169 1050 1169 1050 1161 c 2,7,-1
 1050 501 l 2,8,9
 1050 323 1050 323 1010 221 c 0,10,11
 969 113 969 113 860 47 c 1,12,-1
 861 47 l 1,13,14
 756 -19 756 -19 585 -19 c 0,15,16
 417 -19 417 -19 310.5 38.5 c 128,-1,17
 204 96 204 96 158 207 c 0,18,19
 114 316 114 316 114 501 c 2,20,-1
 114 1161 l 2,21,22
 114 1169 114 1169 120 1174.5 c 128,-1,23
 126 1180 126 1180 134 1180 c 2,24,-1
 284 1180 l 2,25,26
 292 1180 292 1180 298 1174.5 c 128,-1,27
 304 1169 304 1169 304 1161 c 2,28,-1
 304 502 l 2,29,30
 304 361 304 361 330 289 c 0,31,32
 356 226 356 226 417 191 c 0,33,34
 477 156 477 156 571 156 c 0,35,36
 729 156 729 156 795 225 c 1,37,-1
 794 225 l 1,38,39
 828 260 828 260 844 329.5 c 128,-1,40
 860 399 860 399 860 502 c 2,41,-1
 860 1161 l 2,0,1
EndSplineSet
EndChar

StartChar: V
Encoding: 86 86 511
Width: 1093
Flags: W
LayerCount: 2
Fore
SplineSet
457 0 m 2,0,1
 452 0 452 0 446 4 c 128,-1,2
 440 8 440 8 438 13 c 2,3,-1
 -4 1154 l 2,4,5
 -8 1164 -8 1164 -2.5 1172 c 128,-1,6
 3 1180 3 1180 14 1180 c 2,7,-1
 178 1180 l 2,8,9
 183 1180 183 1180 188.5 1176 c 128,-1,10
 194 1172 194 1172 196 1167 c 2,11,-1
 493 339 l 2,12,13
 502 313 502 313 507.5 298.5 c 128,-1,14
 513 284 513 284 517 272.5 c 128,-1,15
 521 261 521 261 525 248 c 128,-1,16
 529 235 529 235 535 214 c 1,17,18
 544 246 544 246 555 278.5 c 128,-1,19
 566 311 566 311 577 339 c 0,20,21
 613 436 613 436 652.5 541 c 128,-1,22
 692 646 692 646 732 753 c 128,-1,23
 772 860 772 860 811 965 c 128,-1,24
 850 1070 850 1070 886 1167 c 0,25,26
 888 1172 888 1172 893.5 1176 c 128,-1,27
 899 1180 899 1180 904 1180 c 2,28,-1
 1058 1180 l 2,29,30
 1069 1180 1069 1180 1074.5 1172 c 128,-1,31
 1080 1164 1080 1164 1077 1154 c 2,32,-1
 630 13 l 2,33,34
 628 8 628 8 622.5 4 c 128,-1,35
 617 0 617 0 612 0 c 2,36,-1
 457 0 l 2,0,1
EndSplineSet
EndChar

StartChar: W
Encoding: 87 87 512
Width: 1546
Flags: W
LayerCount: 2
Fore
SplineSet
763 942 m 1,0,-1
 763 941 l 1,1,-1
 763 943 l 1,2,-1
 763 942 l 1,0,-1
333 0 m 2,3,4
 327 0 327 0 321.5 4.5 c 128,-1,5
 316 9 316 9 314 15 c 2,6,-1
 11 1156 l 2,7,8
 9 1165 9 1165 14 1172.5 c 128,-1,9
 19 1180 19 1180 30 1180 c 2,10,-1
 185 1180 l 2,11,12
 191 1180 191 1180 196 1175 c 128,-1,13
 201 1170 201 1170 203 1164 c 2,14,-1
 377 416 l 1,15,-1
 377 417 l 1,16,17
 384 388 384 388 388 372.5 c 128,-1,18
 392 357 392 357 395 344 c 128,-1,19
 398 331 398 331 401 316 c 128,-1,20
 404 301 404 301 409 272 c 1,21,22
 421 321 421 321 429 353 c 128,-1,23
 437 385 437 385 440 395 c 2,24,-1
 656 1165 l 2,25,26
 658 1171 658 1171 663.5 1175.5 c 128,-1,27
 669 1180 669 1180 675 1180 c 2,28,-1
 857 1180 l 2,29,30
 863 1180 863 1180 868 1175.5 c 128,-1,31
 873 1171 873 1171 875 1165 c 2,32,-1
 1039 588 l 1,33,-1
 1039 589 l 1,34,35
 1062 510 1062 510 1080.5 433.5 c 128,-1,36
 1099 357 1099 357 1113 285 c 1,37,-1
 1148 432 l 2,38,39
 1192 612 1192 612 1237.5 798.5 c 128,-1,40
 1283 985 1283 985 1327 1165 c 0,41,42
 1329 1171 1329 1171 1334 1175.5 c 128,-1,43
 1339 1180 1339 1180 1345 1180 c 2,44,-1
 1497 1180 l 2,45,46
 1508 1180 1508 1180 1513 1172.5 c 128,-1,47
 1518 1165 1518 1165 1515 1156 c 2,48,-1
 1202 15 l 2,49,50
 1200 9 1200 9 1195 4.5 c 128,-1,51
 1190 0 1190 0 1184 0 c 2,52,-1
 1039 0 l 2,53,54
 1033 0 1033 0 1027.5 4.5 c 128,-1,55
 1022 9 1022 9 1020 15 c 2,56,-1
 780 884 l 1,57,-1
 770 918 l 2,58,59
 767 927 767 927 766 932.5 c 128,-1,60
 765 938 765 938 763 941 c 2,61,-1
 763 944 l 1,62,-1
 763 943 l 2,63,64
 762 948 762 948 762 946 c 128,-1,65
 762 944 762 944 763 942 c 2,66,-1
 747 883 l 1,67,-1
 747 884 l 1,68,69
 687 665 687 665 626.5 449.5 c 128,-1,70
 566 234 566 234 506 15 c 0,71,72
 504 9 504 9 498.5 4.5 c 128,-1,73
 493 0 493 0 487 0 c 2,74,-1
 333 0 l 2,3,4
EndSplineSet
EndChar

StartChar: X
Encoding: 88 88 513
Width: 1093
Flags: W
LayerCount: 2
Fore
SplineSet
14 0 m 2,0,1
 1 0 1 0 -4 10.5 c 128,-1,2
 -9 21 -9 21 -1 31 c 2,3,-1
 432 614 l 1,4,-1
 51 1149 l 2,5,6
 43 1160 43 1160 48.5 1170 c 128,-1,7
 54 1180 54 1180 67 1180 c 2,8,-1
 247 1180 l 2,9,10
 251 1180 251 1180 255.5 1177 c 128,-1,11
 260 1174 260 1174 262 1171 c 2,12,-1
 469 878 l 1,13,-1
 469 879 l 1,14,15
 494 845 494 845 513 816.5 c 128,-1,16
 532 788 532 788 546 765 c 1,17,18
 563 789 563 789 582.5 817.5 c 128,-1,19
 602 846 602 846 620 870 c 2,20,-1
 850 1172 l 2,21,22
 852 1174 852 1174 857.5 1177 c 128,-1,23
 863 1180 863 1180 865 1180 c 2,24,-1
 1029 1180 l 2,25,26
 1042 1180 1042 1180 1047 1170 c 128,-1,27
 1052 1160 1052 1160 1044 1149 c 2,28,-1
 652 623 l 1,29,30
 758 474 758 474 864 326.5 c 128,-1,31
 970 179 970 179 1076 31 c 0,32,33
 1083 21 1083 21 1078 10.5 c 128,-1,34
 1073 0 1073 0 1060 0 c 2,35,-1
 873 0 l 2,36,37
 864 0 864 0 858 8 c 2,38,-1
 571 414 l 2,39,40
 562 427 562 427 554 438 c 128,-1,41
 546 449 546 449 537 465 c 1,42,43
 523 442 523 442 513.5 428.5 c 128,-1,44
 504 415 504 415 498 406 c 2,45,-1
 212 8 l 2,46,47
 206 0 206 0 196 0 c 2,48,-1
 14 0 l 2,0,1
EndSplineSet
EndChar

StartChar: Y
Encoding: 89 89 514
Width: 1093
Flags: W
LayerCount: 2
Fore
SplineSet
452 0 m 2,0,1
 444 0 444 0 438 5.5 c 128,-1,2
 432 11 432 11 432 19 c 2,3,-1
 432 497 l 1,4,-1
 -4 1150 l 2,5,6
 -12 1161 -12 1161 -6 1170.5 c 128,-1,7
 0 1180 0 1180 12 1180 c 2,8,-1
 196 1180 l 2,9,10
 200 1180 200 1180 205.5 1177 c 128,-1,11
 211 1174 211 1174 213 1171 c 2,12,-1
 437 827 l 2,13,14
 452 804 452 804 464.5 784.5 c 128,-1,15
 477 765 477 765 488.5 745.5 c 128,-1,16
 500 726 500 726 512 706 c 128,-1,17
 524 686 524 686 537 663 c 1,18,19
 582 739 582 739 645 836 c 2,20,-1
 865 1171 l 2,21,22
 867 1174 867 1174 872.5 1177 c 128,-1,23
 878 1180 878 1180 882 1180 c 2,24,-1
 1058 1180 l 2,25,26
 1071 1180 1071 1180 1076 1170.5 c 128,-1,27
 1081 1161 1081 1161 1074 1150 c 2,28,-1
 622 498 l 1,29,-1
 622 19 l 2,30,31
 622 11 622 11 616.5 5.5 c 128,-1,32
 611 0 611 0 603 0 c 2,33,-1
 452 0 l 2,0,1
EndSplineSet
EndChar

StartChar: Z
Encoding: 90 90 515
Width: 1001
Flags: W
LayerCount: 2
Fore
SplineSet
39 0 m 2,0,1
 31 0 31 0 25 5.5 c 128,-1,2
 19 11 19 11 19 19 c 2,3,-1
 19 166 l 1,4,-1
 608 902 l 2,5,6
 624 921 624 921 634.5 934.5 c 128,-1,7
 645 948 645 948 654 959 c 128,-1,8
 663 970 663 970 672.5 981 c 128,-1,9
 682 992 682 992 696 1006 c 1,10,-1
 105 1006 l 2,11,12
 97 1006 97 1006 91.5 1011.5 c 128,-1,13
 86 1017 86 1017 86 1025 c 2,14,-1
 86 1161 l 2,15,16
 86 1169 86 1169 91.5 1174.5 c 128,-1,17
 97 1180 97 1180 105 1180 c 2,18,-1
 922 1180 l 2,19,20
 930 1180 930 1180 936 1174.5 c 128,-1,21
 942 1169 942 1169 942 1161 c 2,22,-1
 942 1018 l 1,23,-1
 296 222 l 1,24,-1
 254 173 l 1,25,-1
 941 173 l 2,26,27
 949 173 949 173 954.5 167.5 c 128,-1,28
 960 162 960 162 960 154 c 2,29,-1
 960 19 l 2,30,31
 960 11 960 11 954.5 5.5 c 128,-1,32
 949 0 949 0 941 0 c 2,33,-1
 39 0 l 2,0,1
EndSplineSet
EndChar

StartChar: a
Encoding: 97 97 516
Width: 911
Flags: W
LayerCount: 2
Fore
SplineSet
656 11 m 0,0,1
 640 43 640 43 631 84 c 1,2,3
 559 28 559 28 491 5 c 128,-1,4
 423 -18 423 -18 345 -18 c 0,5,6
 205 -18 205 -18 124 52 c 0,7,8
 46 124 46 124 46 235 c 0,9,10
 46 284 46 284 63.5 325.5 c 128,-1,11
 81 367 81 367 110 399.5 c 128,-1,12
 139 432 139 432 178 454.5 c 128,-1,13
 217 477 217 477 260 488 c 0,14,15
 282 494 282 494 314 499.5 c 128,-1,16
 346 505 346 505 386 510 c 0,17,18
 462 519 462 519 519.5 530 c 128,-1,19
 577 541 577 541 616 552 c 1,20,-1
 616 575 l 2,21,22
 616 650 616 650 583 679 c 0,23,24
 536 722 536 722 438 722 c 0,25,26
 393 722 393 722 359.5 713.5 c 128,-1,27
 326 705 326 705 305 691 c 0,28,29
 264 658 264 658 243 580 c 0,30,31
 241 574 241 574 235.5 569.5 c 128,-1,32
 230 565 230 565 222 566 c 2,33,-1
 86 584 l 2,34,35
 78 586 78 586 73 592.5 c 128,-1,36
 68 599 68 599 70 607 c 0,37,38
 80 653 80 653 95.5 690 c 128,-1,39
 111 727 111 727 134.5 756.5 c 128,-1,40
 158 786 158 786 190 808 c 128,-1,41
 222 830 222 830 265 845 c 0,42,43
 349 875 349 875 458 875 c 0,44,45
 543 873 543 873 601.5 859 c 128,-1,46
 660 845 660 845 698 819.5 c 128,-1,47
 736 794 736 794 756.5 758.5 c 128,-1,48
 777 723 777 723 787 678 c 0,49,50
 794 644 794 644 794 547 c 2,51,-1
 794 362 l 2,52,53
 794 266 794 266 796 206 c 128,-1,54
 798 146 798 146 802 120 c 0,55,56
 811 72 811 72 835 29 c 0,57,58
 841 18 841 18 836 9 c 128,-1,59
 831 0 831 0 819 0 c 2,60,-1
 673 0 l 2,61,62
 669 0 669 0 663.5 3.5 c 128,-1,63
 658 7 658 7 656 11 c 0,0,1
615 402 m 1,64,65
 577 391 577 391 524.5 379 c 128,-1,66
 472 367 472 367 411 358 c 0,67,68
 370 351 370 351 340 345.5 c 128,-1,69
 310 340 310 340 294 332 c 0,70,71
 265 318 265 318 249 294 c 0,72,73
 233 269 233 269 233 239 c 0,74,75
 233 191 233 191 269.5 160 c 128,-1,76
 306 129 306 129 378 129 c 0,77,78
 453 129 453 129 510.5 160.5 c 128,-1,79
 568 192 568 192 595 249 c 1,80,-1
 595 248 l 1,81,82
 615 291 615 291 615 379 c 2,83,-1
 615 402 l 1,64,65
EndSplineSet
EndChar

StartChar: b
Encoding: 98 98 517
Width: 911
Flags: W
LayerCount: 2
Fore
SplineSet
260 19 m 2,0,1
 260 11 260 11 254.5 5.5 c 128,-1,2
 249 0 249 0 241 0 c 2,3,-1
 112 0 l 2,4,5
 104 0 104 0 98.5 5.5 c 128,-1,6
 93 11 93 11 93 19 c 2,7,-1
 93 1148 l 2,8,9
 93 1167 93 1167 112 1167 c 2,10,-1
 250 1167 l 2,11,12
 258 1167 258 1167 264 1161.5 c 128,-1,13
 270 1156 270 1156 270 1148 c 2,14,-1
 270 795 l 1,15,16
 354 875 354 875 475 875 c 0,17,18
 555 875 555 875 626 843 c 128,-1,19
 697 811 697 811 743 751 c 1,20,-1
 743 752 l 1,21,22
 789 695 789 695 814.5 614.5 c 128,-1,23
 840 534 840 534 840 441 c 0,24,25
 840 221 840 221 732 103 c 0,26,27
 623 -18 623 -18 468 -18 c 0,28,29
 342 -18 342 -18 260 67 c 1,30,-1
 260 19 l 2,0,1
258 434 m 0,31,32
 258 292 258 292 296 231 c 0,33,34
 354 134 354 134 456 134 c 0,35,36
 537 134 537 134 599 206 c 0,37,38
 660 280 660 280 660 429 c 0,39,40
 660 583 660 583 602 653 c 0,41,42
 543 722 543 722 462 722 c 0,43,44
 380 722 380 722 320 650 c 0,45,46
 288 613 288 613 273 559 c 128,-1,47
 258 505 258 505 258 434 c 0,31,32
EndSplineSet
EndChar

StartChar: c
Encoding: 99 99 518
Width: 819
Flags: W
LayerCount: 2
Fore
SplineSet
785 320 m 2,0,1
 793 320 793 320 798 313 c 128,-1,2
 803 306 803 306 801 298 c 0,3,4
 790 224 790 224 759 166 c 128,-1,5
 728 108 728 108 680 65 c 0,6,7
 632 26 632 26 571 4 c 128,-1,8
 510 -18 510 -18 441 -18 c 0,9,10
 266 -18 266 -18 157 97 c 0,11,12
 103 155 103 155 77 237 c 128,-1,13
 51 319 51 319 51 425 c 0,14,15
 51 563 51 563 96.5 667.5 c 128,-1,16
 142 772 142 772 237 823 c 1,17,-1
 237 822 l 1,18,19
 331 875 331 875 442 875 c 0,20,21
 585 875 585 875 674 804 c 128,-1,22
 763 733 763 733 788 601 c 0,23,24
 790 593 790 593 784.5 586 c 128,-1,25
 779 579 779 579 771 577 c 2,26,-1
 637 556 l 2,27,28
 629 554 629 554 623 558.5 c 128,-1,29
 617 563 617 563 615 571 c 0,30,31
 597 647 597 647 554 684.5 c 128,-1,32
 511 722 511 722 448 722 c 0,33,34
 352 722 352 722 292 653 c 0,35,36
 231 583 231 583 231 429 c 0,37,38
 231 271 231 271 289 201 c 0,39,40
 348 134 348 134 440 134 c 0,41,42
 514 134 514 134 563.5 179.5 c 128,-1,43
 613 225 613 225 626 321 c 0,44,45
 628 329 628 329 634 334 c 128,-1,46
 640 339 640 339 648 338 c 2,47,-1
 785 320 l 2,0,1
EndSplineSet
EndChar

StartChar: d
Encoding: 100 100 519
Width: 911
Flags: W
LayerCount: 2
Fore
SplineSet
642 0 m 2,0,1
 634 0 634 0 628.5 5.5 c 128,-1,2
 623 11 623 11 623 19 c 2,3,-1
 623 65 l 1,4,5
 582 20 582 20 532 1 c 128,-1,6
 482 -18 482 -18 414 -18 c 0,7,8
 336 -19 336 -19 267.5 13.5 c 128,-1,9
 199 46 199 46 148.5 105.5 c 128,-1,10
 98 165 98 165 69.5 247 c 128,-1,11
 41 329 41 329 43 427 c 0,12,13
 43 555 43 555 85.5 658.5 c 128,-1,14
 128 762 128 762 214 818 c 0,15,16
 301 875 301 875 407 875 c 0,17,18
 472 875 472 875 523.5 853.5 c 128,-1,19
 575 832 575 832 614 794 c 1,20,-1
 614 1148 l 2,21,22
 614 1156 614 1156 620 1161.5 c 128,-1,23
 626 1167 626 1167 634 1167 c 2,24,-1
 771 1167 l 2,25,26
 790 1167 790 1167 790 1148 c 2,27,-1
 790 19 l 2,28,29
 790 11 790 11 784.5 5.5 c 128,-1,30
 779 0 779 0 771 0 c 2,31,-1
 642 0 l 2,0,1
224 427 m 0,32,33
 224 276 224 276 285 205 c 0,34,35
 347 134 347 134 427 134 c 0,36,37
 509 134 509 134 567 201 c 0,38,39
 597 236 597 236 611.5 290 c 128,-1,40
 626 344 626 344 626 416 c 0,41,42
 626 577 626 577 565 650 c 0,43,44
 506 722 506 722 421 722 c 0,45,46
 337 722 337 722 280 653 c 0,47,48
 224 584 224 584 224 427 c 0,32,33
EndSplineSet
EndChar

StartChar: e
Encoding: 101 101 520
Width: 911
Flags: W
LayerCount: 2
Fore
SplineSet
817 284 m 2,0,1
 826 282 826 282 830.5 275 c 128,-1,2
 835 268 835 268 833 260 c 0,3,4
 797 127 797 127 701 54.5 c 128,-1,5
 605 -18 605 -18 456 -18 c 0,6,7
 268 -18 268 -18 157 97 c 0,8,9
 47 213 47 213 47 422 c 0,10,11
 47 635 47 635 158 755 c 0,12,13
 272 875 272 875 448 875 c 0,14,15
 620 875 620 875 730 757 c 0,16,17
 839 641 839 641 839 429 c 0,18,19
 839 424 839 424 839 414 c 128,-1,20
 839 404 839 404 838 392 c 0,21,22
 837 384 837 384 831.5 378.5 c 128,-1,23
 826 373 826 373 819 373 c 2,24,-1
 230 373 l 1,25,26
 240 263 240 263 300 199 c 1,27,-1
 299 199 l 1,28,29
 362 134 362 134 457 134 c 0,30,31
 526 134 526 134 575.5 170.5 c 128,-1,32
 625 207 625 207 654 290 c 0,33,34
 656 295 656 295 662.5 299 c 128,-1,35
 669 303 669 303 675 302 c 2,36,-1
 817 284 l 2,0,1
652 525 m 1,37,38
 643 605 643 605 607 649 c 0,39,40
 545 722 545 722 449 722 c 0,41,42
 360 722 360 722 302 664 c 0,43,44
 275 637 275 637 259 603.5 c 128,-1,45
 243 570 243 570 238 525 c 1,46,-1
 652 525 l 1,37,38
EndSplineSet
EndChar

StartChar: f
Encoding: 102 102 521
Width: 455
Flags: W
LayerCount: 2
Fore
SplineSet
142 0 m 2,0,1
 134 0 134 0 128 5.5 c 128,-1,2
 122 11 122 11 122 19 c 2,3,-1
 122 710 l 1,4,-1
 19 710 l 2,5,6
 11 710 11 710 5.5 716 c 128,-1,7
 0 722 0 722 0 730 c 2,8,-1
 0 837 l 2,9,10
 0 845 0 845 5.5 851 c 128,-1,11
 11 857 11 857 19 857 c 2,12,-1
 122 857 l 1,13,-1
 122 924 l 2,14,15
 122 968 122 968 126 1000.5 c 128,-1,16
 130 1033 130 1033 139 1054 c 1,17,-1
 139 1053 l 1,18,19
 161 1113 161 1113 215.5 1150 c 128,-1,20
 270 1187 270 1187 369 1187 c 0,21,22
 430 1187 430 1187 502 1172 c 0,23,24
 509 1170 509 1170 514 1164 c 128,-1,25
 519 1158 519 1158 517 1150 c 2,26,-1
 496 1030 l 2,27,28
 494 1022 494 1022 488 1016.5 c 128,-1,29
 482 1011 482 1011 474 1013 c 0,30,31
 453 1017 453 1017 433.5 1019 c 128,-1,32
 414 1021 414 1021 396 1021 c 0,33,34
 369 1021 369 1021 350.5 1016 c 128,-1,35
 332 1011 332 1011 320.5 998.5 c 128,-1,36
 309 986 309 986 304 965 c 128,-1,37
 299 944 299 944 299 912 c 2,38,-1
 299 857 l 1,39,-1
 439 857 l 2,40,41
 447 857 447 857 452.5 851 c 128,-1,42
 458 845 458 845 458 837 c 2,43,-1
 458 730 l 2,44,45
 458 722 458 722 452.5 716 c 128,-1,46
 447 710 447 710 439 710 c 2,47,-1
 299 710 l 1,48,-1
 299 19 l 2,49,50
 299 11 299 11 293.5 5.5 c 128,-1,51
 288 0 288 0 280 0 c 2,52,-1
 142 0 l 2,0,1
EndSplineSet
EndChar

StartChar: g
Encoding: 103 103 522
Width: 911
Flags: W
LayerCount: 2
Fore
SplineSet
225 -49 m 2,0,1
 230 -50 230 -50 235 -55.5 c 128,-1,2
 240 -61 240 -61 241 -66 c 0,3,4
 249 -121 249 -121 279 -144 c 0,5,6
 328 -179 328 -179 409 -179 c 0,7,8
 495 -179 495 -179 544 -142.5 c 128,-1,9
 593 -106 593 -106 610 -47 c 0,10,11
 614 -31 614 -31 616 1 c 128,-1,12
 618 33 618 33 619 78 c 1,13,14
 534 0 534 0 412 0 c 0,15,16
 233 0 233 0 136 129 c 0,17,18
 40 258 40 258 40 433 c 0,19,20
 40 494 40 494 51 549 c 128,-1,21
 62 604 62 604 84 656 c 0,22,23
 129 762 129 762 213 818 c 0,24,25
 298 875 298 875 413 875 c 0,26,27
 479 875 479 875 533 854.5 c 128,-1,28
 587 834 587 834 633 789 c 1,29,-1
 633 837 l 2,30,31
 633 845 633 845 638.5 851 c 128,-1,32
 644 857 644 857 652 857 c 2,33,-1
 780 857 l 2,34,35
 788 857 788 857 793.5 851 c 128,-1,36
 799 845 799 845 799 837 c 2,37,-1
 799 130 l 2,38,39
 799 -64 799 -64 758 -149 c 0,40,41
 716 -235 716 -235 627 -284 c 0,42,43
 538 -332 538 -332 410 -332 c 0,44,45
 259 -332 259 -332 162 -262 c 0,46,47
 114 -227 114 -227 90 -172.5 c 128,-1,48
 66 -118 66 -118 68 -47 c 0,49,50
 68 -39 68 -39 74.5 -33 c 128,-1,51
 81 -27 81 -27 90 -29 c 2,52,-1
 225 -49 l 2,0,1
221 443 m 0,53,54
 221 290 221 290 279 220 c 1,55,56
 340 153 340 153 426 153 c 256,57,58
 512 153 512 153 571 219 c 0,59,60
 631 288 631 288 631 438 c 0,61,62
 631 579 631 579 569 652 c 0,63,64
 508 722 508 722 423 722 c 0,65,66
 340 722 340 722 280 653 c 0,67,68
 221 584 221 584 221 443 c 0,53,54
EndSplineSet
EndChar

StartChar: h
Encoding: 104 104 523
Width: 911
Flags: W
LayerCount: 2
Fore
SplineSet
112 0 m 2,0,1
 104 0 104 0 98.5 5.5 c 128,-1,2
 93 11 93 11 93 19 c 2,3,-1
 93 1148 l 2,4,5
 93 1156 93 1156 98.5 1161.5 c 128,-1,6
 104 1167 104 1167 112 1167 c 2,7,-1
 251 1167 l 2,8,9
 270 1167 270 1167 270 1148 c 2,10,-1
 270 791 l 1,11,12
 363 875 363 875 496 875 c 0,13,14
 593 875 593 875 664 835.5 c 128,-1,15
 735 796 735 796 767 728 c 0,16,17
 781 694 781 694 789.5 646.5 c 128,-1,18
 798 599 798 599 798 537 c 2,19,-1
 798 19 l 2,20,21
 798 11 798 11 792 5.5 c 128,-1,22
 786 0 786 0 778 0 c 2,23,-1
 640 0 l 2,24,25
 632 0 632 0 626.5 5.5 c 128,-1,26
 621 11 621 11 621 19 c 2,27,-1
 621 537 l 2,28,29
 621 631 621 631 580.5 674 c 128,-1,30
 540 717 540 717 468 717 c 0,31,32
 410 717 410 717 361 687 c 0,33,34
 312 659 312 659 291 609 c 256,35,36
 270 559 270 559 270 467 c 2,37,-1
 270 19 l 2,38,39
 270 11 270 11 264.5 5.5 c 128,-1,40
 259 0 259 0 251 0 c 2,41,-1
 112 0 l 2,0,1
EndSplineSet
EndChar

StartChar: i
Encoding: 105 105 524
Width: 364
Flags: W
LayerCount: 2
Fore
SplineSet
108 969 m 2,0,1
 100 969 100 969 94.5 974.5 c 128,-1,2
 89 980 89 980 89 988 c 2,3,-1
 89 1148 l 2,4,5
 89 1156 89 1156 94.5 1161.5 c 128,-1,6
 100 1167 100 1167 108 1167 c 2,7,-1
 247 1167 l 2,8,9
 255 1167 255 1167 260.5 1161.5 c 128,-1,10
 266 1156 266 1156 266 1148 c 2,11,-1
 266 988 l 2,12,13
 266 980 266 980 260.5 974.5 c 128,-1,14
 255 969 255 969 247 969 c 2,15,-1
 108 969 l 2,0,1
108 0 m 2,16,17
 100 0 100 0 94.5 5.5 c 128,-1,18
 89 11 89 11 89 19 c 2,19,-1
 89 837 l 2,20,21
 89 845 89 845 94.5 851 c 128,-1,22
 100 857 100 857 108 857 c 2,23,-1
 247 857 l 2,24,25
 255 857 255 857 260.5 851 c 128,-1,26
 266 845 266 845 266 837 c 2,27,-1
 266 19 l 2,28,29
 266 11 266 11 260.5 5.5 c 128,-1,30
 255 0 255 0 247 0 c 2,31,-1
 108 0 l 2,16,17
EndSplineSet
EndChar

StartChar: j
Encoding: 106 106 525
Width: 364
Flags: W
LayerCount: 2
Fore
SplineSet
105 968 m 2,0,1
 97 968 97 968 91 973.5 c 128,-1,2
 85 979 85 979 85 987 c 2,3,-1
 85 1148 l 2,4,5
 85 1156 85 1156 91 1161.5 c 128,-1,6
 97 1167 97 1167 105 1167 c 2,7,-1
 243 1167 l 2,8,9
 262 1167 262 1167 262 1148 c 2,10,-1
 262 987 l 2,11,12
 262 979 262 979 256.5 973.5 c 128,-1,13
 251 968 251 968 243 968 c 2,14,-1
 105 968 l 2,0,1
-64 -176 m 2,15,16
 -62 -168 -62 -168 -55 -164 c 128,-1,17
 -48 -160 -48 -160 -40 -162 c 0,18,19
 -21 -166 -21 -166 -6 -168.5 c 128,-1,20
 9 -171 9 -171 21 -171 c 0,21,22
 54 -171 54 -171 68 -151 c 0,23,24
 77 -140 77 -140 81 -107.5 c 128,-1,25
 85 -75 85 -75 85 -22 c 2,26,-1
 85 837 l 2,27,28
 85 845 85 845 91 851 c 128,-1,29
 97 857 97 857 105 857 c 2,30,-1
 243 857 l 2,31,32
 251 857 251 857 256.5 851 c 128,-1,33
 262 845 262 845 262 837 c 2,34,-1
 262 -25 l 2,35,36
 262 -183 262 -183 220 -246 c 0,37,38
 164 -332 164 -332 38 -332 c 0,39,40
 -20 -332 -20 -332 -75 -317 c 0,41,42
 -83 -315 -83 -315 -87.5 -308.5 c 128,-1,43
 -92 -302 -92 -302 -90 -294 c 2,44,-1
 -64 -176 l 2,15,16
EndSplineSet
EndChar

StartChar: k
Encoding: 107 107 526
Width: 819
Flags: W
LayerCount: 2
Fore
SplineSet
114 0 m 2,0,1
 106 0 106 0 100 5.5 c 128,-1,2
 94 11 94 11 94 19 c 2,3,-1
 94 1148 l 2,4,5
 94 1156 94 1156 100 1161.5 c 128,-1,6
 106 1167 106 1167 114 1167 c 2,7,-1
 252 1167 l 2,8,9
 271 1167 271 1167 271 1148 c 2,10,-1
 271 551 l 1,11,-1
 567 851 l 2,12,13
 569 853 569 853 573.5 855 c 128,-1,14
 578 857 578 857 580 857 c 2,15,-1
 759 857 l 2,16,17
 773 857 773 857 778 845 c 128,-1,18
 783 833 783 833 773 824 c 2,19,-1
 472 530 l 1,20,-1
 807 30 l 2,21,22
 815 19 815 19 809 9.5 c 128,-1,23
 803 0 803 0 791 0 c 2,24,-1
 620 0 l 2,25,26
 616 0 616 0 610.5 3 c 128,-1,27
 605 6 605 6 603 9 c 2,28,-1
 346 406 l 1,29,-1
 271 336 l 1,30,-1
 271 19 l 2,31,32
 271 11 271 11 265.5 5.5 c 128,-1,33
 260 0 260 0 252 0 c 2,34,-1
 114 0 l 2,0,1
EndSplineSet
EndChar

StartChar: l
Encoding: 108 108 527
Width: 364
Flags: W
LayerCount: 2
Fore
SplineSet
104 0 m 2,0,1
 96 0 96 0 90.5 5.5 c 128,-1,2
 85 11 85 11 85 19 c 2,3,-1
 85 1148 l 2,4,5
 85 1156 85 1156 90.5 1161.5 c 128,-1,6
 96 1167 96 1167 104 1167 c 2,7,-1
 243 1167 l 2,8,9
 262 1167 262 1167 262 1148 c 2,10,-1
 262 19 l 2,11,12
 262 11 262 11 256.5 5.5 c 128,-1,13
 251 0 251 0 243 0 c 2,14,-1
 104 0 l 2,0,1
EndSplineSet
EndChar

StartChar: m
Encoding: 109 109 528
Width: 1365
Flags: W
LayerCount: 2
Fore
SplineSet
117 0 m 2,0,1
 109 0 109 0 103.5 5.5 c 128,-1,2
 98 11 98 11 98 19 c 2,3,-1
 98 837 l 2,4,5
 98 845 98 845 103.5 851 c 128,-1,6
 109 857 109 857 117 857 c 2,7,-1
 241 857 l 2,8,9
 249 857 249 857 254.5 851 c 128,-1,10
 260 845 260 845 260 837 c 2,11,-1
 260 780 l 1,12,13
 302 830 302 830 357.5 852.5 c 128,-1,14
 413 875 413 875 488 875 c 0,15,16
 576 875 576 875 635 842.5 c 128,-1,17
 694 810 694 810 724 752 c 1,18,19
 823 875 823 875 972 875 c 0,20,21
 1103 875 1103 875 1173.5 803 c 128,-1,22
 1244 731 1244 731 1244 580 c 2,23,-1
 1244 19 l 2,24,25
 1244 11 1244 11 1238.5 5.5 c 128,-1,26
 1233 0 1233 0 1225 0 c 2,27,-1
 1087 0 l 2,28,29
 1079 0 1079 0 1073.5 5.5 c 128,-1,30
 1068 11 1068 11 1068 19 c 2,31,-1
 1068 534 l 2,32,33
 1068 574 1068 574 1064.5 602.5 c 128,-1,34
 1061 631 1061 631 1055 648 c 0,35,36
 1042 680 1042 680 1015 697 c 0,37,38
 982 716 982 716 942 716 c 0,39,40
 903 716 903 716 870 703 c 128,-1,41
 837 690 837 690 812 664 c 0,42,43
 761 613 761 613 761 495 c 2,44,-1
 761 19 l 2,45,46
 761 11 761 11 755 5.5 c 128,-1,47
 749 0 749 0 741 0 c 2,48,-1
 603 0 l 2,49,50
 595 0 595 0 589.5 5.5 c 128,-1,51
 584 11 584 11 584 19 c 2,52,-1
 584 550 l 2,53,54
 584 634 584 634 554.5 675 c 128,-1,55
 525 716 525 716 457 716 c 0,56,57
 406 716 406 716 361.5 687 c 128,-1,58
 317 658 317 658 296 607 c 0,59,60
 287 579 287 579 281 536.5 c 128,-1,61
 275 494 275 494 275 444 c 2,62,-1
 275 19 l 2,63,64
 275 11 275 11 269 5.5 c 128,-1,65
 263 0 263 0 255 0 c 2,66,-1
 117 0 l 2,0,1
EndSplineSet
EndChar

StartChar: n
Encoding: 110 110 529
Width: 911
Flags: W
LayerCount: 2
Fore
SplineSet
112 0 m 2,0,1
 104 0 104 0 98.5 5.5 c 128,-1,2
 93 11 93 11 93 19 c 2,3,-1
 93 837 l 2,4,5
 93 845 93 845 98.5 851 c 128,-1,6
 104 857 104 857 112 857 c 2,7,-1
 238 857 l 2,8,9
 246 857 246 857 251.5 851 c 128,-1,10
 257 845 257 845 257 837 c 2,11,-1
 257 777 l 1,12,13
 302 824 302 824 362.5 849.5 c 128,-1,14
 423 875 423 875 497 875 c 0,15,16
 536 875 536 875 573 867.5 c 128,-1,17
 610 860 610 860 642 846 c 128,-1,18
 674 832 674 832 699.5 812.5 c 128,-1,19
 725 793 725 793 742 770 c 0,20,21
 776 723 776 723 788 660 c 0,22,23
 792 640 792 640 794 606.5 c 128,-1,24
 796 573 796 573 796 522 c 2,25,-1
 796 19 l 2,26,27
 796 11 796 11 790.5 5.5 c 128,-1,28
 785 0 785 0 777 0 c 2,29,-1
 638 0 l 2,30,31
 630 0 630 0 624.5 5.5 c 128,-1,32
 619 11 619 11 619 19 c 2,33,-1
 619 517 l 2,34,35
 619 558 619 558 615 587 c 128,-1,36
 611 616 611 616 603 636 c 0,37,38
 597 654 597 654 584.5 668.5 c 128,-1,39
 572 683 572 683 555 694 c 0,40,41
 516 716 516 716 469 716 c 0,42,43
 386 716 386 716 328 664 c 256,44,45
 270 612 270 612 270 466 c 2,46,-1
 270 19 l 2,47,48
 270 11 270 11 264.5 5.5 c 128,-1,49
 259 0 259 0 251 0 c 2,50,-1
 112 0 l 2,0,1
EndSplineSet
EndChar

StartChar: o
Encoding: 111 111 530
Width: 911
Flags: W
LayerCount: 2
Fore
SplineSet
41 428 m 0,0,1
 41 546 41 546 75 634 c 128,-1,2
 109 722 109 722 175 779 c 0,3,4
 230 824 230 824 298 849.5 c 128,-1,5
 366 875 366 875 444 875 c 0,6,7
 620 875 620 875 733 758 c 0,8,9
 846 640 846 640 846 440 c 0,10,11
 846 278 846 278 797 183 c 0,12,13
 746 87 746 87 651 35 c 0,14,15
 558 -18 558 -18 444 -18 c 0,16,17
 263 -18 263 -18 152 97 c 0,18,19
 41 214 41 214 41 428 c 0,0,1
222 428 m 0,20,21
 222 356 222 356 239 299 c 128,-1,22
 256 242 256 242 286 205 c 0,23,24
 351 134 351 134 444 134 c 0,25,26
 538 134 538 134 601 205 c 0,27,28
 631 242 631 242 648 300 c 128,-1,29
 665 358 665 358 665 433 c 0,30,31
 665 579 665 579 600 650 c 0,32,33
 538 722 538 722 444 722 c 0,34,35
 351 722 351 722 286 651 c 0,36,37
 256 614 256 614 239 557.5 c 128,-1,38
 222 501 222 501 222 428 c 0,20,21
EndSplineSet
EndChar

StartChar: p
Encoding: 112 112 531
Width: 911
Flags: W
LayerCount: 2
Fore
SplineSet
113 -314 m 2,0,1
 105 -314 105 -314 99.5 -308 c 128,-1,2
 94 -302 94 -302 94 -294 c 2,3,-1
 94 837 l 2,4,5
 94 845 94 845 99.5 851 c 128,-1,6
 105 857 105 857 113 857 c 2,7,-1
 239 857 l 2,8,9
 247 857 247 857 252.5 851 c 128,-1,10
 258 845 258 845 258 837 c 2,11,-1
 258 784 l 1,12,13
 300 827 300 827 354 851 c 128,-1,14
 408 875 408 875 477 875 c 0,15,16
 530 875 530 875 579 859.5 c 128,-1,17
 628 844 628 844 669.5 815.5 c 128,-1,18
 711 787 711 787 744 746.5 c 128,-1,19
 777 706 777 706 799 657 c 0,20,21
 819 608 819 608 830.5 549.5 c 128,-1,22
 842 491 842 491 842 434 c 0,23,24
 842 306 842 306 795 200 c 0,25,26
 746 93 746 93 658 38 c 0,27,28
 570 -18 570 -18 466 -18 c 0,29,30
 439 -18 439 -18 411.5 -12 c 128,-1,31
 384 -6 384 -6 359 4 c 128,-1,32
 334 14 334 14 311.5 27 c 128,-1,33
 289 40 289 40 271 55 c 1,34,-1
 271 -294 l 2,35,36
 271 -302 271 -302 265 -308 c 128,-1,37
 259 -314 259 -314 251 -314 c 2,38,-1
 113 -314 l 2,0,1
257 423 m 0,39,40
 257 351 257 351 272.5 294 c 128,-1,41
 288 237 288 237 316 202 c 0,42,43
 345 170 345 170 381 152 c 128,-1,44
 417 134 417 134 457 134 c 0,45,46
 541 134 541 134 601 205 c 0,47,48
 661 278 661 278 661 435 c 0,49,50
 661 582 661 582 601 656 c 0,51,52
 542 728 542 728 463 728 c 0,53,54
 383 728 383 728 321 652 c 0,55,56
 257 576 257 576 257 423 c 0,39,40
EndSplineSet
EndChar

StartChar: q
Encoding: 113 113 532
Width: 911
Flags: W
LayerCount: 2
Fore
SplineSet
634 -314 m 2,0,1
 626 -314 626 -314 620 -308 c 128,-1,2
 614 -302 614 -302 614 -294 c 2,3,-1
 614 56 l 1,4,5
 576 22 576 22 525.5 2 c 128,-1,6
 475 -18 475 -18 419 -18 c 0,7,8
 264 -18 264 -18 154 104 c 0,9,10
 45 225 45 225 45 436 c 0,11,12
 45 565 45 565 89 666.5 c 128,-1,13
 133 768 133 768 220 821 c 0,14,15
 305 875 305 875 408 875 c 0,16,17
 541 875 541 875 628 783 c 1,18,-1
 628 837 l 2,19,20
 628 845 628 845 633.5 851 c 128,-1,21
 639 857 639 857 647 857 c 2,22,-1
 772 857 l 2,23,24
 780 857 780 857 785.5 851 c 128,-1,25
 791 845 791 845 791 837 c 2,26,-1
 791 -294 l 2,27,28
 791 -302 791 -302 785.5 -308 c 128,-1,29
 780 -314 780 -314 772 -314 c 2,30,-1
 634 -314 l 2,0,1
226 430 m 0,31,32
 226 279 226 279 286 206 c 0,33,34
 347 134 347 134 431 134 c 0,35,36
 511 134 511 134 568 202 c 0,37,38
 628 271 628 271 628 418 c 0,39,40
 628 576 628 576 565 651 c 0,41,42
 503 727 503 727 422 727 c 256,43,44
 341 727 341 727 284 656 c 0,45,46
 255 620 255 620 240.5 564 c 128,-1,47
 226 508 226 508 226 430 c 0,31,32
EndSplineSet
EndChar

StartChar: r
Encoding: 114 114 533
Width: 546
Flags: W
LayerCount: 2
Fore
SplineSet
108 0 m 2,0,1
 100 0 100 0 94.5 5.5 c 128,-1,2
 89 11 89 11 89 19 c 2,3,-1
 89 837 l 2,4,5
 89 845 89 845 94.5 851 c 128,-1,6
 100 857 100 857 108 857 c 2,7,-1
 233 857 l 2,8,9
 241 857 241 857 247 851 c 128,-1,10
 253 845 253 845 253 837 c 2,11,-1
 253 782 l 1,12,13
 283 825 283 825 311 844 c 0,14,15
 357 875 357 875 411 875 c 0,16,17
 449 875 449 875 487.5 862.5 c 128,-1,18
 526 850 526 850 564 827 c 0,19,20
 569 823 569 823 571 816 c 128,-1,21
 573 809 573 809 571 804 c 2,22,-1
 523 676 l 2,23,24
 520 667 520 667 511.5 664 c 128,-1,25
 503 661 503 661 495 666 c 0,26,27
 448 693 448 693 404 693 c 0,28,29
 364 693 364 693 333 669 c 128,-1,30
 302 645 302 645 288 603 c 0,31,32
 277 568 277 568 271.5 529.5 c 128,-1,33
 266 491 266 491 266 448 c 2,34,-1
 266 19 l 2,35,36
 266 11 266 11 260.5 5.5 c 128,-1,37
 255 0 255 0 247 0 c 2,38,-1
 108 0 l 2,0,1
EndSplineSet
EndChar

StartChar: s
Encoding: 115 115 534
Width: 819
Flags: W
LayerCount: 2
Fore
SplineSet
190 304 m 2,0,1
 198 306 198 306 204.5 301 c 128,-1,2
 211 296 211 296 213 288 c 0,3,4
 223 213 223 213 270.5 173.5 c 128,-1,5
 318 134 318 134 405 134 c 0,6,7
 448 134 448 134 479.5 143 c 128,-1,8
 511 152 511 152 532 167 c 128,-1,9
 553 182 553 182 563 202 c 128,-1,10
 573 222 573 222 573 244 c 0,11,12
 573 280 573 280 542 302 c 0,13,14
 514 320 514 320 405 347 c 0,15,16
 328 367 328 367 275 384 c 128,-1,17
 222 401 222 401 191 415 c 0,18,19
 128 443 128 443 93 500 c 0,20,21
 60 555 60 555 60 620 c 0,22,23
 60 680 60 680 86.5 730.5 c 128,-1,24
 113 781 113 781 161 814 c 0,25,26
 196 839 196 839 254.5 857 c 128,-1,27
 313 875 313 875 380 875 c 0,28,29
 481 875 481 875 557.5 845 c 128,-1,30
 634 815 634 815 672 764 c 0,31,32
 711 712 711 712 724 628 c 0,33,34
 726 620 726 620 720.5 613.5 c 128,-1,35
 715 607 715 607 707 606 c 2,36,-1
 572 588 l 2,37,38
 564 587 564 587 557 591.5 c 128,-1,39
 550 596 550 596 549 604 c 0,40,41
 541 660 541 660 502 691 c 128,-1,42
 463 722 463 722 391 722 c 0,43,44
 348 722 348 722 318 715 c 128,-1,45
 288 708 288 708 269 696 c 128,-1,46
 250 684 250 684 241.5 668.5 c 128,-1,47
 233 653 233 653 233 636 c 0,48,49
 233 627 233 627 236.5 617 c 128,-1,50
 240 607 240 607 245 599 c 0,51,52
 252 591 252 591 263 582.5 c 128,-1,53
 274 574 274 574 290 569 c 1,54,-1
 289 569 l 1,55,56
 300 565 300 565 329.5 556 c 128,-1,57
 359 547 359 547 411 533 c 0,58,59
 480 515 480 515 534.5 497.5 c 128,-1,60
 589 480 589 480 618 468 c 0,61,62
 681 440 681 440 717 388 c 0,63,64
 754 335 754 335 754 260 c 0,65,66
 755 203 755 203 729.5 151.5 c 128,-1,67
 704 100 704 100 657.5 62 c 128,-1,68
 611 24 611 24 546.5 2 c 128,-1,69
 482 -20 482 -20 406 -18 c 0,70,71
 238 -18 238 -18 149.5 52 c 128,-1,72
 61 122 61 122 36 261 c 0,73,74
 35 269 35 269 40 275 c 128,-1,75
 45 281 45 281 53 283 c 2,76,-1
 190 304 l 2,0,1
EndSplineSet
EndChar

StartChar: t
Encoding: 116 116 535
Width: 455
Flags: W
LayerCount: 2
Fore
SplineSet
450 24 m 2,0,1
 452 16 452 16 447 10 c 128,-1,2
 442 4 442 4 435 2 c 0,3,4
 377 -11 377 -11 326 -11 c 0,5,6
 244 -11 244 -11 198.5 16 c 128,-1,7
 153 43 153 43 133 87 c 0,8,9
 114 131 114 131 114 259 c 2,10,-1
 114 710 l 1,11,-1
 32 710 l 2,12,13
 24 710 24 710 18.5 716 c 128,-1,14
 13 722 13 722 13 730 c 2,15,-1
 13 837 l 2,16,17
 13 845 13 845 18.5 851 c 128,-1,18
 24 857 24 857 32 857 c 2,19,-1
 114 857 l 1,20,-1
 114 1039 l 2,21,22
 114 1043 114 1043 117 1048.5 c 128,-1,23
 120 1054 120 1054 124 1056 c 2,24,-1
 262 1139 l 2,25,26
 273 1144 273 1144 282 1139.5 c 128,-1,27
 291 1135 291 1135 291 1122 c 2,28,-1
 291 857 l 1,29,-1
 411 857 l 2,30,31
 419 857 419 857 424.5 851 c 128,-1,32
 430 845 430 845 430 837 c 2,33,-1
 430 730 l 2,34,35
 430 722 430 722 424.5 716 c 128,-1,36
 419 710 419 710 411 710 c 2,37,-1
 291 710 l 1,38,-1
 291 251 l 2,39,40
 291 223 291 223 292 205.5 c 128,-1,41
 293 188 293 188 296 182 c 0,42,43
 301 171 301 171 313 164 c 0,44,45
 324 157 324 157 350 157 c 0,46,47
 370 157 370 157 408 163 c 0,48,49
 416 165 416 165 422 159.5 c 128,-1,50
 428 154 428 154 430 146 c 2,51,-1
 450 24 l 2,0,1
EndSplineSet
EndChar

StartChar: u
Encoding: 117 117 536
Width: 911
Flags: W
LayerCount: 2
Fore
SplineSet
648 0 m 2,0,1
 640 0 640 0 634.5 5.5 c 128,-1,2
 629 11 629 11 629 19 c 2,3,-1
 629 85 l 1,4,5
 535 -18 535 -18 389 -18 c 0,6,7
 351 -18 351 -18 315 -11 c 128,-1,8
 279 -4 279 -4 246 11 c 0,9,10
 178 40 178 40 145 87 c 0,11,12
 129 109 129 109 117.5 137.5 c 128,-1,13
 106 166 106 166 99 197 c 0,14,15
 94 217 94 217 92 251 c 128,-1,16
 90 285 90 285 90 330 c 2,17,-1
 90 837 l 2,18,19
 90 845 90 845 95.5 851 c 128,-1,20
 101 857 101 857 109 857 c 2,21,-1
 248 857 l 2,22,23
 256 857 256 857 261.5 851 c 128,-1,24
 267 845 267 845 267 837 c 2,25,-1
 267 383 l 2,26,27
 267 281 267 281 276 241 c 0,28,29
 287 194 287 194 324.5 167 c 128,-1,30
 362 140 362 140 416 140 c 0,31,32
 477 140 477 140 523 168 c 0,33,34
 571 197 571 197 594 246 c 1,35,-1
 593 246 l 1,36,37
 604 274 604 274 609.5 311.5 c 128,-1,38
 615 349 615 349 615 398 c 2,39,-1
 615 837 l 2,40,41
 615 845 615 845 620.5 851 c 128,-1,42
 626 857 626 857 634 857 c 2,43,-1
 773 857 l 2,44,45
 781 857 781 857 786.5 851 c 128,-1,46
 792 845 792 845 792 837 c 2,47,-1
 792 19 l 2,48,49
 792 11 792 11 786.5 5.5 c 128,-1,50
 781 0 781 0 773 0 c 2,51,-1
 648 0 l 2,0,1
EndSplineSet
EndChar

StartChar: v
Encoding: 118 118 537
Width: 819
Flags: W
LayerCount: 2
Fore
SplineSet
339 0 m 2,0,1
 334 0 334 0 328 4 c 128,-1,2
 322 8 322 8 320 13 c 2,3,-1
 10 831 l 2,4,5
 6 841 6 841 11.5 849 c 128,-1,6
 17 857 17 857 28 857 c 2,7,-1
 174 857 l 2,8,9
 179 857 179 857 185 853 c 128,-1,10
 191 849 191 849 192 844 c 2,11,-1
 368 354 l 2,12,13
 375 335 375 335 379 324 c 128,-1,14
 383 313 383 313 386 303.5 c 128,-1,15
 389 294 389 294 392.5 282.5 c 128,-1,16
 396 271 396 271 402 250 c 1,17,-1
 435 345 l 1,18,-1
 617 844 l 2,19,20
 619 849 619 849 624.5 853 c 128,-1,21
 630 857 630 857 635 857 c 2,22,-1
 778 857 l 2,23,24
 789 857 789 857 794.5 849 c 128,-1,25
 800 841 800 841 796 831 c 2,26,-1
 486 13 l 2,27,28
 484 8 484 8 478.5 4 c 128,-1,29
 473 0 473 0 468 0 c 2,30,-1
 339 0 l 2,0,1
EndSplineSet
EndChar

StartChar: w
Encoding: 119 119 538
Width: 1183
Flags: W
LayerCount: 2
Fore
SplineSet
266 0 m 2,0,1
 260 0 260 0 255 4 c 128,-1,2
 250 8 250 8 248 13 c 2,3,-1
 -2 832 l 2,4,5
 -5 842 -5 842 0 849.5 c 128,-1,6
 5 857 5 857 16 857 c 2,7,-1
 159 857 l 2,8,9
 165 857 165 857 170.5 852.5 c 128,-1,10
 176 848 176 848 178 842 c 2,11,-1
 307 370 l 1,12,-1
 336 266 l 1,13,14
 343 290 343 290 349.5 314 c 128,-1,15
 356 338 356 338 361 363 c 2,16,-1
 491 842 l 2,17,18
 493 848 493 848 498.5 852.5 c 128,-1,19
 504 857 504 857 510 857 c 2,20,-1
 652 857 l 2,21,22
 658 857 658 857 663 852.5 c 128,-1,23
 668 848 668 848 670 842 c 2,24,-1
 793 368 l 1,25,-1
 817 277 l 1,26,-1
 844 370 l 1,27,-1
 984 843 l 2,28,29
 986 849 986 849 991.5 853 c 128,-1,30
 997 857 997 857 1002 857 c 2,31,-1
 1137 857 l 2,32,33
 1148 857 1148 857 1153 849.5 c 128,-1,34
 1158 842 1158 842 1155 832 c 2,35,-1
 900 13 l 2,36,37
 898 8 898 8 893 4 c 128,-1,38
 888 0 888 0 882 0 c 2,39,-1
 738 0 l 2,40,41
 732 0 732 0 726.5 4.5 c 128,-1,42
 721 9 721 9 719 14 c 2,43,-1
 589 504 l 1,44,-1
 575 568 l 1,45,-1
 429 14 l 2,46,47
 427 9 427 9 421.5 4.5 c 128,-1,48
 416 0 416 0 410 0 c 2,49,-1
 266 0 l 2,0,1
EndSplineSet
EndChar

